<svg width="768" height="159" viewBox="0 0 768 159" fill="none" xmlns="http://www.w3.org/2000/svg">
<path d="M26.4352 50.5049C23.4517 50.7271 21.0031 50.0855 18.0114 52.8349C27.2672 56.3993 38.2544 53.0712 45.2417 59.3289C31.4855 68.0297 15.8319 65.2513 0.000228935 63.7343C14.5459 71.4757 31.0626 69.64 47.6761 72.4452C37.1683 77.7964 26.4883 73.3828 16.8015 77.2354C38.6747 80.4169 60.9171 80.8455 83.462 84.2251C76.6811 86.9026 70.0024 83.3407 61.6044 86.1696C73.376 90.7208 83.8838 90.483 94.1158 92.289C91.7761 96.1737 88.7233 98.7635 81.7185 98.8013C85.4678 100.605 87.5401 101.602 92.0162 103.756C64.0456 103.185 38.696 106.661 13.5142 105.014C11.7753 108.429 14.2097 108.719 16.4295 109.771C14.4749 110.704 11.888 109.763 10.0308 113.226C25.1336 113.579 37.862 120.281 52.1155 121.775C52.6075 123.782 49.2672 123.688 50.8898 126.862C61.6076 124.983 70.6187 131.832 80.4635 135.237C110.031 145.464 140.789 142.411 170.889 144.298C235.182 148.329 299.716 145.788 364.14 146.757C383.948 147.055 403.755 147.399 423.563 147.705C427.236 147.761 430.685 148.199 433.983 149.962C438.804 152.541 444.436 153.091 449.109 150.531C455.738 146.898 462.193 147.449 469.099 148.934C483.057 151.936 497.601 152.72 511.437 151.088C520.696 149.996 529.755 147.909 540.165 148.679C535.155 150.569 529.914 148.516 525.351 152.061C528.801 155.345 533.074 154.783 537.01 154.778C590.912 154.701 644.604 151.644 698.103 145.83C702.36 145.367 706.647 145.005 710.93 144.878C723.82 144.496 731.728 137.159 739.805 129.53C743.025 126.489 739.216 125.802 738.851 124.25C747.676 121.011 758.625 124.765 767.645 116.94C737.101 109.901 707.528 107.588 677.661 106.688C677.439 101.984 678.631 99.2622 684.124 100.066C699.356 102.295 713.302 95.8785 728.056 94.9213C734.16 94.5253 735.84 89.4132 739.276 87.2145C729.205 71.0472 748.974 75.5184 754.542 70.0232C748.809 65.5825 743.515 61.4814 738.2 57.3642C738.834 56.2676 739.256 55.4978 739.717 54.7469C742.348 50.4641 752.562 49.882 750.177 44.6405C746.193 35.8867 742.315 26.1339 731.075 21.6111C713.336 14.4734 694.034 13.2724 675.297 10.1114C636.925 3.63809 598.241 -0.346841 559.052 1.54114C551.122 1.92316 543.535 -0.800817 535.422 0.237687C519.366 2.29309 503.692 6.00155 486.984 4.90821C452.409 2.64578 417.647 2.20901 383.038 3.43523C329.558 5.33011 276.083 6.53444 222.571 6.88945C219.066 6.91269 214.377 6.53782 214.295 11.1028C214.215 15.5416 218.928 14.586 221.856 14.5793C228.283 14.5648 233.318 19.4127 239.986 19.3329C203.991 20.4933 167.997 21.6713 132.001 22.8071C112.213 23.4315 92.4248 24.2018 72.6296 24.4471C66.1204 24.5278 61.2093 26.081 57.4544 31.5939C78.6709 34.998 99.8724 36.0089 121.202 37.1272C88.7077 35.772 58.8484 48.1322 26.4352 50.5049Z" fill="#D41F48"/>
<path d="M188.981 18.0116C195.199 17.9791 200.475 17.9527 205.742 17.7537C206.548 17.7232 207.316 16.8956 208.614 16.1371C206.219 12.4786 202.053 14.1725 199.03 13.2171C178.07 6.59224 156.417 5.17048 134.475 6.90454C119.607 8.07966 104.771 6.24945 90.012 6.97237C79.5557 7.48455 69.0845 3.6432 58.1626 11.0863C51.6143 15.549 39.0189 12.9977 29.1491 13.6868C25.1252 13.9677 20.7286 13.1467 16.8811 15.8365C20.3077 19.6376 24.5074 19.2794 28.2889 19.3245C54.3554 19.6352 80.4352 19.4572 106.487 20.1363C116.886 20.4073 126.327 16.6382 136.572 16.4716C153.774 16.1918 170.899 16.993 188.981 18.0116Z" fill="#39A9A3"/>
<path d="M239.315 151.681C228.767 152.151 219.149 152.56 206.92 153.081C220.862 160.515 233.716 158.395 245.634 158.016C280.57 156.905 315.484 157.01 350.415 157.224C353.597 157.243 357.059 157.953 359.815 154.072C319.963 153.053 280.209 149.815 239.315 151.681Z" fill="#39A9A3"/>
<path d="M71.4543 145.248C67.8848 144.719 65.1115 143.146 59.39 146.907C94.5479 152.801 127.425 154.531 160.515 154.537C131.46 148.631 101.777 147.615 71.4543 145.248Z" fill="#39A9A3"/>
<path d="M197.38 158.968C199.668 158.837 201.343 159.01 202.791 156.76C195.113 154.003 187.979 152.43 178.742 155.564C185.145 160.303 191.22 158.095 197.38 158.968Z" fill="#39A9A3"/>
</svg>
