<svg width="1032" height="160" viewBox="0 0 1032 160" fill="none" xmlns="http://www.w3.org/2000/svg">
<path d="M35.862 51.2324C31.8554 51.4547 28.5671 50.813 24.5494 53.5625C36.9794 57.1269 51.7345 53.7987 61.1181 60.0565C42.6444 68.7572 21.6225 65.9788 0.361419 64.4618C19.8955 72.2032 42.0764 70.3675 64.3874 73.1728C50.276 78.5239 35.9334 74.1103 22.9246 77.9629C52.299 81.1444 82.1693 81.573 112.446 84.9526C103.339 87.6302 94.3703 84.0683 83.0923 86.8972C98.9009 91.4484 113.012 91.2105 126.753 93.0165C123.611 96.9012 119.511 99.4911 110.104 99.5289C115.139 101.333 117.922 102.33 123.934 104.484C86.3706 103.912 52.3276 107.389 18.51 105.742C16.1746 109.156 19.4439 109.446 22.425 110.499C19.8 111.432 16.326 110.491 13.8319 113.953C34.1141 114.307 51.2077 121.009 70.3492 122.503C71.0099 124.509 66.5241 124.416 68.7032 127.59C83.0966 125.711 95.1979 132.56 108.419 135.965C148.126 146.192 189.432 143.139 229.855 145.026C316.197 149.056 402.862 146.515 489.38 147.485C515.981 147.783 542.581 148.126 569.182 148.432C574.115 148.489 578.747 148.926 583.175 150.69C589.649 153.268 597.214 153.819 603.489 151.258C612.391 147.626 621.06 148.177 630.334 149.662C649.079 152.664 668.611 153.447 687.192 151.816C699.626 150.724 711.792 148.637 725.772 149.407C719.044 151.296 712.005 149.244 705.878 152.788C710.51 156.072 716.249 155.511 721.534 155.505C793.921 155.429 866.028 152.372 937.874 146.557C943.59 146.095 949.347 145.733 955.1 145.606C972.41 145.224 983.03 137.886 993.876 130.258C998.201 127.216 993.086 126.529 992.596 124.977C1004.45 121.738 1019.15 125.492 1031.26 117.668C990.245 110.629 950.531 108.315 910.421 107.415C910.123 102.712 911.723 99.9898 919.101 100.794C939.557 103.023 958.285 96.606 978.099 95.6489C986.296 95.2529 988.552 90.1408 993.166 87.9421C979.642 71.7748 1006.19 76.2459 1013.67 70.7507C1005.97 66.3101 998.859 62.209 991.722 58.0918C992.573 56.9951 993.14 56.2253 993.759 55.4745C997.292 51.1917 1011.01 50.6095 1007.81 45.368C1002.46 36.6142 997.247 26.8614 982.153 22.3387C958.331 15.2009 932.409 13.9999 907.246 10.839C855.715 4.36563 803.764 0.380698 751.135 2.26868C740.486 2.6507 730.297 -0.073278 719.402 0.965226C697.84 3.02063 676.79 6.72908 654.353 5.63575C607.921 3.37332 561.237 2.93655 514.76 4.16277C442.938 6.05765 371.124 7.26198 299.261 7.61699C294.554 7.64023 288.257 7.26536 288.146 11.8303C288.039 16.2691 294.369 15.3135 298.302 15.3069C306.932 15.2923 313.694 20.1403 322.649 20.0604C274.31 21.2208 225.972 22.3989 177.631 23.5347C151.056 24.1591 124.482 24.9293 97.8985 25.1746C89.157 25.2553 82.5617 26.8085 77.5191 32.3214C106.012 35.7255 134.484 36.7365 163.129 37.8547C119.49 36.4995 79.3911 48.8598 35.862 51.2324Z" fill="#D41F48"/>
<path d="M254.152 18.7391C262.502 18.7066 269.587 18.6802 276.661 18.4812C277.744 18.4508 278.775 17.6231 280.519 16.8647C277.302 13.2062 271.708 14.9001 267.648 13.9446C239.499 7.31978 210.42 5.89802 180.954 7.63208C160.986 8.8072 141.063 6.97699 121.243 7.69991C107.2 8.21209 93.1381 4.37074 78.4706 11.8139C69.6766 16.2765 52.7617 13.7252 39.5071 14.4143C34.1033 14.6952 28.199 13.8743 23.032 16.5641C27.6337 20.3651 33.2736 20.007 38.3519 20.052C73.3578 20.3627 108.381 20.1847 143.368 20.8638C157.332 21.1349 170.012 17.3657 183.77 17.1991C206.872 16.9194 229.869 17.7206 254.152 18.7391Z" fill="#39A9A3"/>
<path d="M321.747 152.408C307.582 152.879 294.666 153.288 278.242 153.809C296.966 161.242 314.229 159.123 330.233 158.744C377.151 157.632 424.037 157.738 470.948 157.951C475.222 157.971 479.871 158.68 483.572 154.8C430.053 153.78 376.666 150.543 321.747 152.408Z" fill="#39A9A3"/>
<path d="M96.3199 145.975C91.5263 145.447 87.8019 143.874 80.1182 147.635C127.333 153.528 171.485 155.259 215.923 155.265C176.904 149.359 137.042 148.342 96.3199 145.975Z" fill="#39A9A3"/>
<path d="M265.431 159.695C268.503 159.564 270.753 159.738 272.698 157.487C262.387 154.73 252.806 153.157 240.402 156.292C249.001 161.03 257.159 158.822 265.431 159.695Z" fill="#39A9A3"/>
</svg>
