<svg width="799" height="160" viewBox="0 0 799 160" fill="none" xmlns="http://www.w3.org/2000/svg">
<path d="M27.5013 51.0362C24.3988 51.2584 21.8525 50.6167 18.7414 53.3662C28.3665 56.9306 39.7921 53.6024 47.0582 59.8602C32.7532 68.5609 16.4749 65.7825 0.0115291 64.2655C15.1377 72.0069 32.3134 70.1712 49.5898 72.9765C38.6627 78.3276 27.5565 73.914 17.4832 77.7666C40.2292 80.9481 63.3592 81.3768 86.8037 84.7563C79.7522 87.4339 72.8069 83.872 64.0739 86.7009C76.3152 91.2521 87.2422 91.0142 97.8825 92.8202C95.4494 96.7049 92.2749 99.2948 84.9905 99.3326C88.8895 101.137 91.0445 102.134 95.6992 104.287C66.6124 103.716 40.2513 107.193 14.0648 105.545C12.2564 108.96 14.788 109.25 17.0964 110.303C15.0637 111.236 12.3736 110.294 10.4423 113.757C26.1478 114.11 39.3841 120.813 54.2063 122.307C54.7179 124.313 51.2443 124.219 52.9317 127.394C64.0772 125.514 73.4478 132.363 83.6855 135.769C114.432 145.995 146.418 142.943 177.719 144.829C244.578 148.86 311.686 146.319 378.681 147.288C399.28 147.586 419.877 147.93 440.475 148.236C444.295 148.293 447.882 148.73 451.311 150.494C456.324 153.072 462.182 153.622 467.041 151.062C473.934 147.43 480.647 147.98 487.828 149.466C502.343 152.468 517.468 153.251 531.856 151.619C541.484 150.528 550.905 148.44 561.731 149.211C556.52 151.1 551.07 149.047 546.325 152.592C549.912 155.876 554.356 155.315 558.449 155.309C614.502 155.233 670.337 152.176 725.97 146.361C730.397 145.899 734.855 145.536 739.309 145.41C752.713 145.028 760.937 137.69 769.336 130.061C772.684 127.02 768.724 126.333 768.344 124.781C777.521 121.542 788.907 125.296 798.287 117.472C766.524 110.432 735.771 108.119 704.713 107.219C704.482 102.515 705.721 99.7935 711.434 100.597C727.274 102.827 741.776 96.4097 757.119 95.4526C763.466 95.0566 765.213 89.9445 768.786 87.7458C758.314 71.5785 778.871 76.0497 784.661 70.5544C778.7 66.1138 773.194 62.0127 767.667 57.8955C768.327 56.7988 768.766 56.029 769.245 55.2782C771.98 50.9954 782.602 50.4132 780.122 45.1718C775.979 36.418 771.946 26.6651 760.258 22.1424C741.811 15.0047 721.739 13.8036 702.254 10.6427C662.351 4.16934 622.123 0.184409 581.37 2.07239C573.124 2.45441 565.234 -0.269567 556.798 0.768937C540.101 2.82434 523.802 6.5328 506.427 5.43946C470.473 3.17703 434.324 2.74026 398.334 3.96648C342.719 5.86136 287.11 7.06569 231.463 7.4207C227.819 7.44394 222.942 7.06907 222.857 11.634C222.773 16.0728 227.675 15.1172 230.72 15.1106C237.403 15.096 242.639 19.944 249.574 19.8641C212.142 21.0245 174.712 22.2026 137.279 23.3384C116.702 23.9628 96.1241 24.733 75.5389 24.9784C68.77 25.0591 63.663 26.6122 59.7583 32.1252C81.8214 35.5292 103.869 36.5402 126.05 37.6584C92.2586 36.3032 61.2079 48.6635 27.5013 51.0362Z" fill="#D41F48"/>
<path d="M196.533 18.5428C203 18.5103 208.486 18.484 213.963 18.2849C214.802 18.2545 215.6 17.4268 216.95 16.6684C214.459 13.0099 210.128 14.7038 206.984 13.7483C185.187 7.12349 162.67 5.70173 139.853 7.43579C124.391 8.61091 108.963 6.7807 93.6154 7.50362C82.7419 8.0158 71.8529 4.17445 60.4951 11.6176C53.6855 16.0802 40.5875 13.529 30.3239 14.218C26.1395 14.4989 21.5675 13.678 17.5665 16.3678C21.1298 20.1689 25.4971 19.8107 29.4294 19.8557C56.5361 20.1664 83.6564 19.9884 110.748 20.6675C121.561 20.9386 131.38 17.1695 142.033 17.0028C159.922 16.7231 177.73 17.5243 196.533 18.5428Z" fill="#39A9A3"/>
<path d="M248.875 152.212C237.907 152.682 227.905 153.092 215.188 153.612C229.686 161.046 243.053 158.927 255.447 158.548C291.777 157.436 328.083 157.542 364.408 157.755C367.718 157.774 371.318 158.484 374.184 154.603C332.742 153.584 291.402 150.346 248.875 152.212Z" fill="#39A9A3"/>
<path d="M74.3166 145.779C70.6047 145.25 67.7207 143.678 61.7709 147.439C98.3317 153.332 132.52 155.062 166.931 155.069C136.717 149.162 105.849 148.146 74.3166 145.779Z" fill="#39A9A3"/>
<path d="M205.267 159.499C207.646 159.368 209.388 159.541 210.894 157.291C202.91 154.534 195.491 152.961 185.886 156.096C192.544 160.834 198.861 158.626 205.267 159.499Z" fill="#39A9A3"/>
</svg>
