<svg width="870" height="159" viewBox="0 0 870 159" fill="none" xmlns="http://www.w3.org/2000/svg">
<path d="M29.9517 50.5049C26.5713 50.7271 23.7969 50.0855 20.4072 52.8349C30.8944 56.3993 43.3433 53.0712 51.2602 59.3289C35.6739 68.0297 17.9378 65.2513 -0.000166459 63.7343C16.4807 71.4757 35.1947 69.64 54.0185 72.4452C42.1127 77.7964 30.0118 73.3828 19.0363 77.2354C43.8196 80.4169 69.0211 80.8455 94.5653 84.2251C86.8823 86.9026 79.315 83.3407 69.7998 86.1696C83.1375 90.7208 95.0432 90.483 106.636 92.289C103.985 96.1737 100.527 98.7635 92.5898 98.8013C96.838 100.605 99.186 101.602 104.258 103.756C72.5657 103.185 43.8436 106.661 15.3117 105.014C13.3414 108.429 16.0997 108.719 18.6149 109.771C16.4002 110.704 13.4691 109.763 11.3648 113.226C28.4769 113.579 42.8988 120.281 59.0484 121.775C59.6059 123.782 55.8212 123.688 57.6597 126.862C69.8034 124.983 80.0133 131.832 91.1679 135.237C124.669 145.464 159.519 142.411 193.623 144.298C266.47 148.329 339.589 145.788 412.584 146.757C435.028 147.055 457.47 147.399 479.913 147.705C484.075 147.761 487.983 148.199 491.719 149.962C497.182 152.541 503.564 153.091 508.858 150.531C516.369 146.898 523.682 147.449 531.507 148.934C547.322 151.936 563.801 152.72 579.478 151.088C589.968 149.996 600.233 147.909 612.028 148.679C606.351 150.569 600.413 148.516 595.243 152.061C599.151 155.345 603.994 154.783 608.453 154.778C669.526 154.701 730.362 151.644 790.978 145.83C795.801 145.367 800.658 145.005 805.512 144.878C820.116 144.496 829.077 137.159 838.227 129.53C841.876 126.489 837.561 125.802 837.147 124.25C847.145 121.011 859.552 124.765 869.771 116.94C835.164 109.901 801.657 107.588 767.816 106.688C767.565 101.984 768.915 99.2622 775.139 100.066C792.398 102.295 808.199 95.8785 824.916 94.9213C831.832 94.5253 833.735 89.4132 837.628 87.2145C826.218 71.0472 848.617 75.5184 854.925 70.0232C848.43 65.5825 842.431 61.4814 836.409 57.3642C837.128 56.2676 837.606 55.4978 838.128 54.7469C841.109 50.4641 852.681 49.882 849.979 44.6405C845.466 35.8867 841.071 26.1339 828.336 21.6111C808.238 14.4734 786.367 13.2724 765.138 10.1114C721.661 3.63809 677.83 -0.346841 633.427 1.54114C624.442 1.92316 615.846 -0.800817 606.654 0.237687C588.462 2.29309 570.702 6.00155 551.772 4.90821C512.597 2.64578 473.21 2.20901 433.997 3.43523C373.401 5.33011 312.812 6.53444 252.181 6.88945C248.21 6.91269 242.897 6.53782 242.804 11.1028C242.713 15.5416 248.054 14.586 251.372 14.5793C258.653 14.5648 264.358 19.4127 271.914 19.3329C231.13 20.4933 190.347 21.6713 149.562 22.8071C127.141 23.4315 104.721 24.2018 82.2917 24.4471C74.9166 24.5278 69.3521 26.081 65.0977 31.5939C89.1368 34.998 113.159 36.0089 137.327 37.1272C100.509 35.772 66.6771 48.1322 29.9517 50.5049Z" fill="#D41F48"/>
<path d="M214.122 18.0116C221.168 17.9791 227.146 17.9527 233.114 17.7537C234.027 17.7232 234.897 16.8956 236.368 16.1371C233.654 12.4786 228.935 14.1725 225.509 13.2171C201.76 6.59224 177.226 5.17048 152.366 6.90454C135.519 8.07966 118.709 6.24945 101.987 6.97237C90.1398 7.48455 78.2755 3.6432 65.9005 11.0863C58.481 15.549 44.2099 12.9977 33.0271 13.6868C28.4678 13.9677 23.4864 13.1467 19.127 15.8365C23.0095 19.6376 27.7679 19.2794 32.0524 19.3245C61.5868 19.6352 91.1362 19.4572 120.654 20.1363C132.436 20.4073 143.134 16.6382 154.742 16.4716C174.232 16.1918 193.635 16.993 214.122 18.0116Z" fill="#39A9A3"/>
<path d="M271.153 151.681C259.202 152.151 248.304 152.56 234.448 153.081C250.245 160.515 264.809 158.395 278.313 158.016C317.897 156.905 357.455 157.01 397.033 157.224C400.639 157.243 404.562 157.953 407.684 154.072C362.53 153.053 317.488 149.815 271.153 151.681Z" fill="#39A9A3"/>
<path d="M80.9602 145.248C76.9159 144.719 73.7736 143.146 67.2909 146.907C107.126 152.801 144.377 154.531 181.869 154.537C148.949 148.631 115.317 147.615 80.9602 145.248Z" fill="#39A9A3"/>
<path d="M223.639 158.968C226.231 158.837 228.128 159.01 229.77 156.76C221.07 154.003 212.987 152.43 202.522 155.564C209.776 160.303 216.659 158.095 223.639 158.968Z" fill="#39A9A3"/>
</svg>
