<svg width="834" height="159" viewBox="0 0 834 159" fill="none" xmlns="http://www.w3.org/2000/svg">
<path d="M28.7115 50.5049C25.471 50.7271 22.8116 50.0855 19.5622 52.8349C29.6151 56.3993 41.5486 53.0712 49.1376 59.3289C34.1968 68.0297 17.195 65.2513 -0.000164657 63.7343C15.7983 71.4757 33.7374 69.64 51.7817 72.4452C40.3689 77.7964 28.7691 73.3828 18.2481 77.2354C42.0051 80.4169 66.1631 80.8455 90.6497 84.2251C83.2848 86.9026 76.0308 83.3407 66.9096 86.1696C79.695 90.7208 91.1077 90.483 102.221 92.289C99.6797 96.1737 96.3641 98.7635 88.7559 98.8013C92.8282 100.605 95.079 101.602 99.9406 103.756C69.561 103.185 42.0282 106.661 14.6777 105.014C12.789 108.429 15.4331 108.719 17.8441 109.771C15.7211 110.704 12.9114 109.763 10.8943 113.226C27.2978 113.579 41.1224 120.281 56.6034 121.775C57.1378 123.782 53.5098 123.688 55.2722 126.862C66.913 124.983 76.7002 131.832 87.3929 135.237C119.507 145.464 152.913 142.411 185.606 144.298C255.437 148.329 325.528 145.788 395.501 146.757C417.014 147.055 438.527 147.399 460.041 147.705C464.031 147.761 467.777 148.199 471.358 149.962C476.595 152.541 482.713 153.091 487.788 150.531C494.988 146.898 501.998 147.449 509.499 148.934C524.659 151.936 540.456 152.72 555.484 151.088C565.539 149.996 575.379 147.909 586.686 148.679C581.244 150.569 575.551 148.516 570.596 152.061C574.342 155.345 578.984 154.783 583.258 154.778C641.802 154.701 700.12 151.644 758.226 145.83C762.849 145.367 767.505 145.005 772.158 144.878C786.157 144.496 794.747 137.159 803.519 129.53C807.016 126.489 802.88 125.802 802.483 124.25C812.068 121.011 823.96 124.765 833.756 116.94C800.582 109.901 768.462 107.588 736.023 106.688C735.782 101.984 737.076 99.2622 743.043 100.066C759.587 102.295 774.734 95.8785 790.759 94.9213C797.388 94.5253 799.213 89.4132 802.944 87.2145C792.007 71.0472 813.478 75.5184 819.525 70.0232C813.299 65.5825 807.549 61.4814 801.776 57.3642C802.465 56.2676 802.923 55.4978 803.424 54.7469C806.281 50.4641 817.374 49.882 814.784 44.6405C810.458 35.8867 806.245 26.1339 794.037 21.6111C774.771 14.4734 753.806 13.2724 733.455 10.1114C691.779 3.63809 649.763 -0.346841 607.199 1.54114C598.586 1.92316 590.345 -0.800817 581.534 0.237687C564.096 2.29309 547.071 6.00155 528.924 4.90821C491.372 2.64578 453.616 2.20901 416.026 3.43523C357.94 5.33011 299.86 6.53444 241.739 6.88945C237.932 6.91269 232.839 6.53782 232.75 11.1028C232.663 15.5416 237.783 14.586 240.963 14.5793C247.943 14.5648 253.412 19.4127 260.654 19.3329C221.559 20.4933 182.465 21.6713 143.369 22.8071C121.876 23.4315 100.384 24.2018 78.8843 24.4471C71.8145 24.5278 66.4805 26.081 62.4022 31.5939C85.4459 34.998 108.473 36.0089 131.64 37.1272C96.3471 35.772 63.9162 48.1322 28.7115 50.5049Z" fill="#D41F48"/>
<path d="M205.256 18.0116C212.01 17.9791 217.74 17.9527 223.461 17.7537C224.336 17.7232 225.17 16.8956 226.581 16.1371C223.979 12.4786 219.455 14.1725 216.171 13.2171C193.405 6.59224 169.888 5.17048 146.057 6.90454C129.907 8.07966 113.794 6.24945 97.7639 6.97237C86.4071 7.48455 75.034 3.6432 63.1715 11.0863C56.0592 15.549 42.379 12.9977 31.6592 13.6868C27.2888 13.9677 22.5136 13.1467 18.3347 15.8365C22.0564 19.6376 26.6178 19.2794 30.7249 19.3245C59.0364 19.6352 87.3622 19.4572 115.658 20.1363C126.952 20.4073 137.207 16.6382 148.334 16.4716C167.018 16.1918 185.617 16.993 205.256 18.0116Z" fill="#39A9A3"/>
<path d="M259.925 151.681C248.469 152.151 238.023 152.56 224.74 153.081C239.884 160.515 253.845 158.395 266.789 158.016C304.734 156.905 342.654 157.01 380.594 157.224C384.05 157.243 387.81 157.953 390.803 154.072C347.519 153.053 304.342 149.815 259.925 151.681Z" fill="#39A9A3"/>
<path d="M77.6078 145.248C73.731 144.719 70.7188 143.146 64.5045 146.907C102.69 152.801 138.399 154.531 174.338 154.537C142.782 148.631 110.542 147.615 77.6078 145.248Z" fill="#39A9A3"/>
<path d="M214.379 158.968C216.863 158.837 218.683 159.01 220.256 156.76C211.917 154.003 204.168 152.43 194.136 155.564C201.091 160.303 207.688 158.095 214.379 158.968Z" fill="#39A9A3"/>
</svg>
