<svg width="983" height="152" viewBox="0 0 983 152" fill="none" xmlns="http://www.w3.org/2000/svg">
<path d="M241.329 94.4352C249.289 94.4041 256.044 94.3789 262.787 94.1886C263.819 94.1595 264.802 93.3683 266.464 92.6433C263.398 89.1458 258.065 90.7652 254.195 89.8518C227.36 83.5186 199.639 82.1594 171.549 83.8171C152.513 84.9405 133.52 83.1909 114.625 83.882C101.239 84.3716 87.8329 80.6994 73.8502 87.8148C65.4669 92.081 49.3417 89.642 36.706 90.3008C31.5545 90.5693 25.9259 89.7845 21.0001 92.3559C25.387 95.9896 30.7636 95.6472 35.6047 95.6903C68.9762 95.9873 102.364 95.8171 135.718 96.4664C149.03 96.7255 161.117 93.1223 174.233 92.963C196.256 92.6956 218.18 93.4615 241.329 94.4352Z" fill="#39A9A3"/>
<path d="M33.843 48.2815C30.0234 48.494 26.8886 47.8806 23.0585 50.509C34.9081 53.9165 48.9743 50.7348 57.9198 56.7171C40.3086 65.0348 20.2683 62.3787 -9.57212e-05 60.9285C18.6219 68.3291 39.7672 66.5742 61.0364 69.256C47.5839 74.3716 33.911 70.1523 21.5095 73.8353C49.5125 76.8767 77.9881 77.2865 106.851 80.5173C98.1698 83.077 89.6194 79.6719 78.868 82.3762C93.9384 86.7271 107.391 86.4997 120.49 88.2262C117.495 91.9399 113.587 94.4157 104.619 94.4518C109.419 96.1764 112.072 97.1296 117.802 99.1884C81.9933 98.6424 49.5397 101.966 17.3011 100.391C15.0748 103.655 18.1914 103.933 21.0333 104.939C18.5309 105.831 15.219 104.931 12.8414 108.241C32.1766 108.579 48.4721 114.986 66.7199 116.415C67.3497 118.332 63.0733 118.243 65.1507 121.277C78.872 119.481 90.4084 126.029 103.012 129.284C140.865 139.06 180.243 136.142 218.778 137.946C301.089 141.799 383.708 139.37 466.186 140.296C491.545 140.581 516.903 140.91 542.261 141.202C546.964 141.256 551.379 141.675 555.601 143.361C561.773 145.826 568.985 146.352 574.967 143.904C583.453 140.431 591.717 140.958 600.558 142.378C618.428 145.248 637.048 145.997 654.762 144.437C666.615 143.393 678.213 141.398 691.541 142.134C685.126 143.941 678.416 141.978 672.575 145.367C676.991 148.506 682.462 147.969 687.5 147.964C756.508 147.891 825.247 144.969 893.738 139.41C899.188 138.968 904.676 138.622 910.16 138.5C926.662 138.135 936.787 131.121 947.126 123.828C951.249 120.92 946.373 120.264 945.906 118.78C957.203 115.684 971.221 119.272 982.768 111.792C943.665 105.063 905.804 102.852 867.568 101.991C867.284 97.4944 868.809 94.8924 875.842 95.661C895.343 97.792 913.197 91.6576 932.086 90.7426C939.9 90.3641 942.051 85.477 946.449 83.3751C933.557 67.9195 958.866 72.1939 965.993 66.9405C958.654 62.6954 951.877 58.7748 945.072 54.8389C945.884 53.7905 946.424 53.0546 947.015 52.3368C950.382 48.2426 963.458 47.686 960.405 42.6753C955.305 34.3069 950.34 24.9834 935.95 20.6597C913.241 13.8363 888.529 12.6881 864.541 9.6663C815.416 3.47793 765.891 -0.331572 715.719 1.47329C705.567 1.8385 695.854 -0.765563 685.468 0.227223C664.913 2.19214 644.846 5.73734 623.455 4.69214C579.192 2.52931 534.688 2.11177 490.38 3.28401C421.912 5.09547 353.452 6.24678 284.944 6.58615C280.457 6.60838 274.453 6.25001 274.348 10.614C274.245 14.8574 280.28 13.9439 284.029 13.9375C292.256 13.9236 298.703 18.5581 307.24 18.4818C261.157 19.5911 215.076 20.7173 168.992 21.8031C143.659 22.4 118.325 23.1364 92.9828 23.3709C84.6495 23.448 78.3622 24.9328 73.555 30.2031C100.717 33.4573 127.86 34.4237 155.168 35.4927C113.567 34.1972 75.3396 46.0133 33.843 48.2815Z" fill="#D41F48"/>
<path d="M241.94 17.2184C249.901 17.1873 256.655 17.1621 263.399 16.9718C264.431 16.9427 265.414 16.1515 267.076 15.4265C264.009 11.929 258.677 13.5484 254.807 12.635C227.972 6.30177 200.251 4.9426 172.161 6.60032C153.125 7.72371 134.132 5.97408 115.237 6.66517C101.85 7.1548 88.4447 3.48255 74.4621 10.598C66.0787 14.8642 49.9535 12.4252 37.3178 13.084C32.1663 13.3525 26.5377 12.5677 21.612 15.1391C25.9988 18.7728 31.3754 18.4304 36.2166 18.4735C69.588 18.7705 102.976 18.6004 136.329 19.2496C149.642 19.5087 161.729 15.9055 174.845 15.7462C196.868 15.4788 218.792 16.2447 241.94 17.2184Z" fill="#39A9A3"/>
<path d="M261.329 130.762C269.289 130.731 276.044 130.706 282.787 130.516C283.819 130.487 284.802 129.695 286.464 128.97C283.398 125.473 278.065 127.092 274.195 126.179C247.36 119.846 219.639 118.487 191.549 120.144C172.513 121.268 153.52 119.518 134.625 120.209C121.239 120.699 107.833 117.026 93.8502 124.142C85.4669 128.408 69.3417 125.969 56.706 126.628C51.5545 126.896 45.9259 126.112 41.0001 128.683C45.387 132.317 50.7636 131.974 55.6047 132.017C88.9762 132.314 122.364 132.144 155.718 132.794C169.03 133.053 181.117 129.449 194.233 129.29C216.256 129.023 238.18 129.789 261.329 130.762Z" fill="#39A9A3"/>
</svg>
