<svg width="350" height="87" viewBox="0 0 350 87" fill="none" xmlns="http://www.w3.org/2000/svg">
<g clip-path="url(#clip0_85_194)">
<path d="M317.079 64.449C317.298 64.3504 317.517 64.2517 317.736 64.1531C317.738 64.3346 317.74 64.5161 317.743 64.6975C316.759 64.6479 315.775 64.5773 314.791 64.5541C313.73 64.5291 312.668 64.5485 311.607 64.5485C311.58 64.7212 311.552 64.894 311.525 65.0667C312.143 65.2599 312.76 65.453 313.378 65.6462C313.366 65.748 313.354 65.8499 313.342 65.9517C311.214 65.9517 308.973 65.5681 306.988 66.0602C305.026 66.5468 303.04 66.6077 301.03 66.6963C300.992 66.9304 300.955 67.1646 300.918 67.3987C301.884 67.7804 302.85 68.1621 304.233 68.7084C299.305 68.7084 294.682 68.7084 290.059 68.7084C290.058 68.6981 290.057 68.6877 290.056 68.6774C291.087 68.7296 292.118 68.7818 293.149 68.834C293.125 69.0051 293.101 69.1762 293.077 69.3472C291.435 69.0597 289.793 68.7674 288.149 68.4888C287.843 68.437 287.487 68.3419 287.221 68.4327C283.142 69.8239 278.97 68.9298 274.832 68.915C272.676 68.9073 270.519 69.0527 268.361 69.1062C263.32 69.2314 258.279 69.3674 253.237 69.4506C250.198 69.5007 247.154 69.391 244.117 69.4915C242.755 69.5366 241.413 70.0528 240.049 70.1158C238.505 70.1871 236.932 70.0861 235.402 69.8757C234.35 69.731 230.424 69.7527 229.133 70.1073C228.723 70.2199 228.254 70.1506 227.811 70.1611C224.521 70.2387 221.23 70.42 217.942 70.3727C208.569 70.2377 199.199 69.9773 189.826 69.8402C187.416 69.805 185.002 70.1207 182.589 70.1301C180.656 70.1376 178.723 69.9186 176.788 69.8149C176.253 69.7862 175.714 69.8106 175.148 70.1416C176.648 70.3138 178.148 70.486 179.648 70.6582C179.598 70.7627 179.547 70.8672 179.497 70.9718C179.878 71.1265 180.253 71.3849 180.644 71.4085C181.085 71.4352 181.685 71.0371 181.966 71.1972C182.943 71.7547 183.89 71.4756 184.894 71.4346C186.489 71.3695 188.096 71.4869 189.696 71.5649C191.172 71.637 192.646 71.8564 194.118 71.8409C198.823 71.7914 203.527 71.564 208.231 71.5866C216.88 71.6282 225.529 71.8032 234.179 71.9125C236.027 71.9359 237.879 71.856 239.723 71.9444C240.498 71.9815 241.708 71.3242 241.969 72.832C241.995 72.9832 243.621 73.1787 244.29 72.9055C246.659 71.9377 248.978 72.7909 251.313 72.8231C252.45 72.8387 253.587 72.8258 254.724 72.8258C254.729 73.0115 254.735 73.1972 254.74 73.3828C253.348 73.4778 251.957 73.5837 250.564 73.6652C248.503 73.7859 246.443 73.9227 244.379 73.9896C242.643 74.0459 240.903 73.9829 239.167 74.0246C235.08 74.1228 230.995 74.2712 226.908 74.3607C224.808 74.4067 222.703 74.3093 220.604 74.3828C214.905 74.5824 209.21 74.8862 203.51 75.0543C200.155 75.1533 196.793 75.0271 193.437 75.0859C190.304 75.1408 187.175 75.3712 184.043 75.3987C182.173 75.4151 180.301 75.0905 178.431 75.0982C176.179 75.1074 173.928 75.4208 171.678 75.4013C165.694 75.3495 159.712 75.1823 153.729 75.0773C152.011 75.0471 150.292 75.1013 148.574 75.0673C143.426 74.9653 138.278 74.8434 133.13 74.7203C129.547 74.6346 125.963 74.4454 122.382 74.4716C119.977 74.4891 117.576 74.9238 115.171 74.9535C111.971 74.9929 108.767 74.7554 105.566 74.7597C103.19 74.7628 100.816 74.9807 98.4399 75.0681C94.7947 75.2023 91.149 75.3518 87.502 75.4107C83.8838 75.4691 80.2603 75.3347 76.6455 75.452C73.8208 75.5436 71.0077 75.9129 68.1852 76.1065C67.6159 76.1455 67.0051 75.8138 66.4531 75.8918C65.5467 76.0199 64.6727 76.3432 64.1726 76.479C63.2756 76.1884 62.6403 75.8151 61.9965 75.8023C58.707 75.7368 55.4151 75.7821 52.1248 75.7389C51.6699 75.7329 51.2192 75.4495 50.7138 74.9853C56.1929 74.4547 61.672 73.9241 67.151 73.3935C67.1483 73.2736 67.1455 73.1538 67.1427 73.0339C66.0693 72.9565 64.9959 72.8791 63.9225 72.8017C63.929 72.601 63.9356 72.4003 63.9422 72.1996C70.7517 72.1996 77.5611 72.1996 84.3706 72.1996C84.381 71.9962 84.3914 71.7928 84.4018 71.5894C82.9451 71.3369 81.4884 71.0844 80.0317 70.8319C80.0328 70.7135 80.034 70.595 80.0352 70.4766C81.6919 70.3218 83.3486 70.1671 85.0053 70.0123C85.0059 69.9429 85.0065 69.8736 85.007 69.8042C81.8851 69.8042 78.7632 69.8035 75.6413 69.8045C73.8623 69.8051 72.0768 69.7201 70.3062 69.8328C68.0598 69.9757 65.8273 70.296 63.5848 70.5027C63.0918 70.5481 62.2417 70.5864 62.1329 70.3752C61.1173 68.4048 60.3412 69.9155 59.7207 70.3888C58.9033 70.1604 58.2741 69.8286 57.6525 69.8403C55.857 69.8741 54.0653 70.0568 52.2707 70.1608C50.8634 70.2424 49.3555 71.5287 48.0827 69.6259C47.8045 69.21 46.2914 69.4712 45.3467 69.4645C42.1905 69.4421 38.8548 70.0257 35.9285 69.2642C33.0199 68.5073 30.4014 69.6673 27.6391 69.1881C26.4126 68.9754 25.0291 69.6919 23.7004 69.7837C21.7175 69.9207 19.6719 69.0637 17.6407 69.9881C17.8186 69.8751 17.9964 69.7621 18.1743 69.6491C18.157 69.5256 18.1397 69.4022 18.1224 69.2787C15.6681 69.6599 13.2138 70.041 10.7596 70.4222C10.7153 70.2573 10.671 70.0924 10.6267 69.9276C12.0042 69.6165 13.3657 69.207 14.7624 69.0152C17.5467 68.6328 20.3428 68.2679 23.1485 68.0914C25.2724 67.9577 27.4186 68.1353 29.5552 68.1596C30.8866 68.1748 32.2184 68.1624 33.5936 68.0073C30.7394 66.3722 28.1421 64.3264 24.6555 63.95C22.036 63.6673 19.4158 63.3828 16.7892 63.1709C16.2087 63.124 15.5935 63.4947 15.005 63.4686C14.1562 63.4309 13.3171 63.2063 12.4738 63.0615C12.4904 62.8857 12.507 62.7098 12.5236 62.534C13.3043 62.4542 14.0836 62.3594 14.8659 62.2985C15.7894 62.2267 15.9802 61.8655 15.5023 61.027C15.4253 60.8919 15.22 60.7454 15.2474 60.6443C15.7817 58.6773 14.2838 59.132 13.2091 59.2332C11.5806 59.3866 9.96792 59.7285 8.33868 59.8001C7.85682 59.8213 7.02063 59.2743 6.91182 58.8612C6.712 58.1024 6.69292 57.1546 7.02115 56.4539C8.03009 54.3002 10.1993 53.9546 12.5311 54.0106C12.5514 53.8617 12.5717 53.7128 12.5919 53.5639C12.2875 53.4552 11.9684 53.2304 11.6817 53.2614C11.019 53.3329 10.3545 53.4816 9.72235 53.6833C8.44815 54.0898 7.39501 54.0456 6.39878 53.007C5.99959 52.5908 5.10299 52.5803 3.98291 52.2541C4.91822 51.7453 5.67114 51.1727 6.53492 50.9094C7.48515 50.6197 8.53735 50.6145 9.54512 50.4853C9.51629 50.277 9.48746 50.0687 9.45863 49.8604C8.83566 49.9624 8.19999 50.0219 7.59251 50.1758C6.50309 50.4519 5.47474 50.8418 5.29313 49.19C5.13024 47.7084 4.77391 46.2449 4.48831 44.6941C5.5405 44.4884 6.48447 44.3039 7.48928 44.1075C6.29726 43.2319 6.29596 42.5539 7.72231 42.0855C9.24305 41.5862 10.7711 41.1059 12.6197 40.5135C11.9187 40.3401 11.2003 39.9523 10.5731 40.0521C9.36057 40.2452 8.16155 41.0533 7.34157 39.4133C7.24922 39.2286 6.26758 39.2991 5.75847 39.4382C4.41563 39.8053 4.91665 39.081 5.05833 38.531C5.11584 38.3077 5.19717 38.0697 5.16548 37.851C5.09467 37.3622 4.95967 36.8813 4.85082 36.3971C5.45984 36.4401 6.06886 36.4831 6.15328 36.4891C7.65097 35.2801 8.94184 34.238 10.2327 33.1959C7.86389 34.4476 7.08744 32.4624 5.47218 31.253C6.60048 31.0937 7.38598 30.8963 8.17408 30.8871C10.9654 30.8543 13.7417 30.8268 16.3482 29.6876C16.6052 29.5752 17.0581 29.9161 17.4036 29.8858C17.8511 29.8466 18.282 29.6459 18.966 29.6513C21.228 29.788 23.244 29.788 25.2601 29.788C25.2607 29.6989 25.2614 29.6097 25.262 29.5206C24.6378 29.4817 24.0135 29.4428 23.3893 29.4039C23.3895 29.3366 23.3897 29.2692 23.3899 29.2018C23.8004 29.1471 24.2109 29.0924 24.6214 29.0378C23.5124 28.7573 22.3882 28.712 21.2709 28.7733C20.5293 28.814 19.7975 29.0074 19.0613 29.1325C16.6529 29.1325 14.2446 29.1325 11.8482 29.1325C12.1546 26.8456 13.0485 25.3934 15.7497 25.8271C15.9031 25.8517 16.3443 25.3566 16.2947 25.2614C16.1514 24.9864 15.8359 24.6131 15.5697 24.6002C14.8219 24.564 14.0651 24.7334 13.3114 24.7369C12.7075 24.7398 12.1029 24.6187 11.3385 24.5351C13.0268 23.3607 16.6144 25.064 15.9802 21.1231C15.9604 20.801 15.9369 20.7344 15.9134 20.6679C16.2841 21.0798 16.6548 21.4917 17.1956 22.0926C17.4653 19.6804 17.7232 17.3739 17.9812 15.0674C18.081 15.0805 18.1809 15.0935 18.2807 15.1066C18.2807 17.2623 18.2807 19.4181 18.2807 21.7505C19.6887 21.7505 21.385 21.8452 23.0636 21.7267C25.1932 21.5763 27.3015 21.1586 29.4314 21.026C32.6238 20.8274 35.8276 20.7905 39.0253 20.6581C41.2743 20.565 43.5206 20.4186 45.7691 20.313C47.2456 20.2437 48.7354 20.2888 50.1965 20.1174C50.9552 20.0284 51.6419 19.4107 52.4001 19.3251C55.1559 19.0142 57.93 18.8429 60.694 18.5894C64.3153 18.2572 67.9276 17.8211 71.5554 17.5761C73.8855 17.4187 76.2377 17.5614 78.5779 17.5003C80.1912 17.4582 81.7996 17.2679 83.413 17.206C83.9926 17.1837 84.5804 17.3434 85.1483 17.8081C80.0115 18.0799 74.8747 18.3517 69.7379 18.6235C69.7424 18.8078 69.7468 18.992 69.7513 19.1763C85.474 18.4469 101.192 17.4634 116.932 17.736C116.936 17.9523 116.94 18.1687 116.943 18.3851C109.086 18.3851 101.228 18.3851 93.3709 18.3851C93.3709 18.6261 93.3709 18.867 93.3708 19.1079C100.35 19.1079 107.328 19.1079 114.307 19.1079C114.309 19.2522 114.312 19.3965 114.314 19.5409C111.643 19.6484 108.972 19.7559 106.301 19.8635C106.305 20.1417 106.309 20.4199 106.314 20.6981C109.642 20.6981 112.97 20.7004 116.298 20.6976C120.65 20.6938 124.991 20.7647 129.315 21.3598C130.386 21.5072 131.545 21.0229 132.649 21.0759C135.886 21.2314 139.114 21.5593 142.351 21.7157C143.455 21.769 144.58 21.403 145.691 21.4231C147.943 21.4639 150.191 21.6663 152.443 21.7498C156.137 21.8869 159.832 21.9957 163.528 22.0891C165.119 22.1293 166.717 22.1754 168.301 22.08C169.527 22.0063 170.738 21.7164 171.955 21.5227C171.951 21.3646 171.947 21.2065 171.943 21.0485C168.547 21.0485 165.15 21.0957 161.755 21.0353C158.286 20.9736 154.82 20.8 151.351 20.687C147.649 20.5665 143.947 20.4166 140.243 20.3591C136.62 20.3028 132.995 20.3469 129.371 20.3469C129.373 20.0821 129.375 19.8174 129.377 19.5527C145.821 19.8277 162.265 20.1026 178.71 20.3776C178.723 20.2004 178.736 20.0232 178.749 19.8459C176.754 19.7108 174.758 19.5757 172.82 19.2947C172.877 19.1488 172.863 19.1632 172.863 19.1632C185.957 19.5578 199.051 19.9524 212.251 20.3501C212.192 20.6969 212.147 20.9637 212.03 21.6486C212.919 21.315 213.626 20.9385 214.387 20.7839C217.326 20.1863 220.3 19.8807 223.15 21.0645C224.835 21.7645 227.249 21.7428 227.947 21.0002C228.726 21.2612 229.402 21.6598 230.096 21.6892C232.369 21.7852 234.65 21.7074 236.926 21.7739C238.476 21.8192 240.02 22.0564 241.571 22.0963C243.78 22.1531 245.993 22.108 248.204 22.1059C248.521 22.1056 248.838 22.1016 249.154 22.1016C252.523 22.1013 255.892 22.0815 259.26 22.1132C260.299 22.123 261.539 21.6948 262.161 22.9854C262.211 23.0889 262.499 23.1517 262.669 23.1403C265.023 22.9833 267.376 22.6901 269.73 22.6808C271.445 22.6739 273.162 23.0364 274.927 23.5177C273.198 23.7254 271.469 23.933 269.74 24.1407C269.727 24.239 269.714 24.3373 269.701 24.4356C270.971 24.5586 272.862 24.263 273.367 24.9009C274.161 25.9034 276.391 24.652 276.062 26.2305C277.03 26.1211 277.957 25.9361 278.886 25.9264C281.496 25.899 284.108 25.9239 286.717 25.9792C287.173 25.9889 287.622 26.2468 288.075 26.3901C288.007 26.6378 287.939 26.8855 287.87 27.1333C284.513 27.1333 281.155 27.1333 277.798 27.1333C277.818 27.2559 277.838 27.3785 277.857 27.5011C280.477 27.9079 283.083 28.4667 285.721 28.6713C287.688 28.8237 289.708 28.3503 291.681 28.4724C293.091 28.5595 294.548 29.0201 295.812 29.6207C296.351 29.8768 296.856 31.0236 296.68 31.578C296.093 33.4293 297.558 33.0468 298.414 32.986C299.926 32.8786 301.43 32.5802 302.913 32.2655C304.969 31.8291 305.886 32.4823 305.82 34.7589C304.464 33.5252 303.131 33.535 301.85 34.6222C305.876 36.7177 309.794 39.1388 314.759 39.3456C314.708 39.4925 314.658 39.6394 314.608 39.7863C313.634 39.7863 312.66 39.7863 311.685 39.7863C311.676 39.8748 311.666 39.9633 311.657 40.0517C314.258 40.7652 316.814 41.7209 319.47 42.1296C322.656 42.6199 325.929 42.621 329.158 42.8919C329.709 42.9381 330.563 43.1517 330.713 43.4966C332.051 46.5722 334.999 46.895 337.933 47.1713C341.435 47.501 344.949 47.7103 348.458 47.9717C348.502 48.1912 348.546 48.4106 348.589 48.6301C347.459 48.907 346.343 49.3271 345.194 49.4313C342.702 49.6571 340.16 49.5439 337.706 49.9295C336.543 50.1121 334.915 50.9188 334.575 51.7971C333.669 54.1388 331.626 54.7746 329.511 55.4854C329.566 55.9469 329.614 56.3463 329.674 56.8502C329.986 56.7595 330.346 56.5464 330.658 56.5943C330.988 56.6448 331.272 56.9444 331.576 57.1352C331.343 57.3834 331.109 57.6315 330.876 57.8797C330.04 57.0072 329.292 57.8833 328.498 57.9648C327.342 58.0834 326.133 58.3302 325.026 58.1385C323.714 57.9115 323.33 58.786 322.526 59.2667C321.007 60.1746 319.37 61.0995 317.643 61.4734C316.043 61.8199 314.877 62.385 313.879 63.8119C314.943 63.8561 315.875 63.8948 316.743 64.0797C316.661 64.3044 316.644 64.3829 316.627 64.4615C316.778 64.4573 316.929 64.4532 317.079 64.449ZM120.899 70.9712C120.214 71.1531 119.434 71.6258 118.861 71.466C116.552 70.8216 114.3 71.2018 112.029 71.5006C111.829 71.5268 111.658 71.7355 111.474 71.8594C111.669 71.8942 111.865 71.9595 112.061 71.9592C113.971 71.9563 115.882 71.9806 117.79 71.9168C118.857 71.8811 119.918 71.6941 121.288 71.642C123.065 71.7332 124.841 71.8473 126.619 71.8861C126.839 71.8909 127.068 71.4942 127.293 71.2836C127.023 71.2593 126.753 71.2153 126.483 71.2141C124.649 71.2056 122.816 71.2061 120.899 70.9712ZM270.871 25.0774C270.739 25.1163 270.606 25.1552 270.425 25.4974C270.672 25.6857 270.919 25.8739 271.442 26.2729C269.668 26.1964 268.601 27.9134 266.951 26.7077C266.47 26.3562 265.516 26.3241 264.856 26.4625C263.698 26.7056 262.599 27.1931 261.428 27.5947C263.366 28.3591 273.134 27.4166 273.637 26.6951C272.717 26.1975 271.813 25.7084 270.871 25.0774ZM172.21 24.8116C172.156 24.775 172.101 24.7384 172.215 24.5017C172.079 23.5303 171.444 23.3742 170.534 23.5942C168.683 24.0417 166.834 24.5009 164.967 24.8868C164.084 25.0695 163.128 25.2852 162.264 25.1548C159.838 24.789 158.415 24.885 155.808 25.9543C160.94 25.9543 165.981 25.9543 171.166 25.9543C171.488 26.1431 172.063 26.481 172.638 26.8189C172.719 26.7029 172.8 26.5869 172.881 26.4709C172.557 26.3203 172.234 26.1698 171.409 25.7855C173.838 25.7855 175.689 25.7855 177.54 25.7855C177.555 25.6624 177.571 25.5394 177.586 25.4163C175.845 25.2556 174.105 25.0949 172.21 24.8116ZM197.467 27.3583C197.087 26.7106 197.084 25.8558 195.68 26.2347C194.551 26.5395 193.15 26.4147 192.006 26.0829C191.314 25.8824 190.881 24.9231 190.332 24.3047C190.926 23.9639 191.521 23.6231 192.116 23.2823C192.209 23.488 192.301 23.6937 192.394 23.8994C191.925 23.9956 191.456 24.0917 190.987 24.1878C192.816 24.5813 194.734 24.5092 196.485 24.9733C198.317 25.4591 199.86 24.023 201.612 24.6668C201.732 24.7108 202.047 24.2692 202.185 24.3088C202.871 24.5047 203.064 24.3495 202.947 23.4054C203.787 23.5366 204.566 23.6582 205.345 23.7798C205.311 23.9112 205.277 24.0426 205.243 24.174C204.721 24.174 204.199 24.174 203.676 24.174C204.897 24.4612 206.017 26.0045 207.34 24.57C208.444 25.5389 210.909 25.0067 212.195 23.4113C213.672 24.3174 215.232 25.3884 217.006 23.872C217.065 23.8216 217.305 23.952 217.461 23.9981C216.717 25.6127 218.091 24.3096 218.39 24.5283C218.852 24.8671 219.477 25.0368 220.056 25.2131C220.424 25.3248 220.848 25.4019 221.22 25.3461C221.853 25.2515 222.457 24.9949 223.09 24.8974C223.375 24.8534 223.953 25.1281 223.971 25.0892C224.475 24.0069 224.788 24.6853 225.235 25.1398C225.578 25.4878 226.071 25.7097 226.302 25.8603C226.654 25.3488 226.907 24.6283 227.197 24.6151C229.191 24.5247 231.27 24.3318 232.51 25.8401C232.912 25.4153 233.249 24.7123 233.706 24.6392C235.327 24.3794 236.999 24.3976 238.633 24.1899C240.246 23.985 241.836 23.6336 243.436 23.3466C243.396 23.0477 243.356 22.7489 243.316 22.45C238.282 22.45 233.248 22.4951 228.215 22.4362C223.997 22.3868 219.781 22.2018 215.563 22.1036C211.913 22.0186 208.261 21.945 204.61 21.9304C203.919 21.9276 203.053 22.5491 202.566 22.327C200.64 21.449 200.684 21.3671 199.07 21.8683C199.026 21.8203 198.983 21.7722 198.811 21.4425C190.122 21.4425 181.433 21.4425 172.462 21.4425C172.888 21.6015 173.083 21.7328 173.282 21.7395C175.138 21.8021 176.995 21.8856 178.852 21.8807C181.546 21.8737 184.24 21.7945 186.935 21.7543C187.922 21.7396 188.913 21.7447 189.037 22.7808C188.607 23.0109 188.321 23.1637 188.036 23.3166C188.5 23.5207 188.964 23.7249 189.717 24.0564C186.572 24.5537 183.679 22.8187 181.204 23.8013C181.904 24.2816 182.654 24.7973 183.175 25.2596C183.098 25.2741 183.021 25.2887 182.605 25.2891C181.595 25.2891 180.586 25.2891 179.576 25.2891C179.564 25.4323 179.551 25.5756 179.539 25.7189C180.157 25.9499 180.774 26.1809 181.392 26.412C180.67 28.0346 182.036 27.464 182.665 27.3444C184.707 26.9563 186.718 27.5731 188.838 27.3635C191.179 27.132 193.888 27.625 196.443 27.6897C196.841 27.6998 197.25 27.3607 197.972 27.357C200.629 27.6449 203.286 27.9329 206.313 28.2609C204.659 27.2671 203.439 26.5349 202.72 26.1027C201.24 26.1027 200.167 26.1027 199.076 26.1027C199.195 26.3831 199.296 26.6224 199.404 26.8786C198.755 26.9999 198.212 27.1015 197.467 27.3583ZM119.627 23.8487C109.594 23.9885 99.5608 24.1284 89.5277 24.2683C89.4954 24.5191 89.463 24.77 89.4306 25.0208C90.0055 25.1882 90.5877 25.5179 91.154 25.4961C94.2179 25.3778 97.2759 25.0769 100.34 25.0241C103.39 24.9715 106.445 25.1646 109.498 25.2013C112.982 25.2431 116.353 24.0374 119.998 25.154C122.08 25.7916 124.655 25.0599 126.851 24.9523C126.841 24.9852 126.757 25.2394 126.611 25.6826C129.007 25.4516 131.225 25.2378 133.443 25.0239C133.437 24.8802 133.431 24.7365 133.425 24.5927C131.756 24.3526 130.093 23.9755 128.415 23.9031C125.615 23.7824 122.805 23.8566 119.627 23.8487ZM145.144 24.2033C142.487 24.3213 139.682 23.8687 137.519 26.0483C143.238 26.0483 148.957 26.0483 154.676 26.0483C154.704 25.7994 154.731 25.5506 154.758 25.3017C151.677 24.9356 148.596 24.5695 145.144 24.2033ZM136.005 72.9663C130.952 72.9663 125.898 72.9663 120.845 72.9663C120.845 73.1007 120.845 73.235 120.844 73.3693C128.331 73.5553 135.818 73.7413 143.305 73.9273C143.314 73.6571 143.323 73.3869 143.333 73.1167C141.017 73.0666 138.701 73.0164 136.005 72.9663ZM192.879 72.8021C192.153 73.0788 191.029 73.7749 190.765 73.5625C189.309 72.391 187.953 73.7789 186.598 73.4112C188.248 74.5634 192.437 74.4521 194.563 72.901C193.63 72.7572 193.156 72.6842 192.879 72.8021ZM17.4209 23.496C19.9215 23.378 22.4918 23.9563 24.9144 23.0331C22.3826 22.8029 19.8712 22.7982 17.3602 22.8266C17.288 22.8274 17.2205 23.179 17.4209 23.496ZM187.382 20.7013C189.669 20.7013 191.955 20.7013 194.242 20.7013C194.235 20.5751 194.228 20.4488 194.22 20.3226C190.808 20.3226 187.395 20.3226 183.982 20.3226C183.985 20.4488 183.989 20.5751 183.992 20.7013C184.999 20.7013 186.007 20.7013 187.382 20.7013ZM199.477 74.0244C200.28 74.0244 201.083 74.0244 201.886 74.0244C201.88 73.8618 201.874 73.6992 201.868 73.5366C200.768 73.5366 199.667 73.5366 198.495 73.5366C198.614 73.2177 198.715 72.9465 198.965 72.273C197.982 72.7347 197.348 73.0327 197.1 73.1491C196.22 73.1491 195.575 73.1491 194.93 73.1491C194.925 73.3724 194.921 73.5957 194.917 73.8189C196.32 73.8874 197.723 73.9559 199.477 74.0244ZM222.467 73.3188C224.141 73.3188 225.816 73.3188 227.49 73.3188C227.482 73.1372 227.474 72.9557 227.466 72.7741C225.458 72.7741 223.451 72.7741 221.443 72.7741C221.422 72.8789 221.402 72.9837 221.381 73.0885C221.624 73.165 221.867 73.2415 222.467 73.3188ZM270.142 25.1383C268.622 25.1383 267.101 25.1383 265.291 25.1383C265.65 24.7201 265.813 24.5307 266.044 24.2614C265.506 24.2943 265.042 24.3226 264.579 24.351C264.995 25.0445 265.544 25.547 266.121 25.5755C267.496 25.6434 268.885 25.4877 270.142 25.1383ZM24.197 24.857C21.8938 24.3051 19.5887 24.0736 17.278 24.9108C19.4817 24.9108 21.6855 24.9108 24.197 24.857Z" fill="#303030"/>
<path d="M142.743 82.5414C145.336 82.6319 147.93 82.7032 150.521 82.8202C152.073 82.8904 153.622 83.0241 155.171 83.1443C156.525 83.2493 157.874 83.4131 159.229 83.4853C163.915 83.7347 168.6 84.0027 173.288 84.1694C176.081 84.2687 178.882 84.1512 181.677 84.2032C186.089 84.2852 190.498 84.4446 194.91 84.5374C196.977 84.5809 199.047 84.4992 201.113 84.5587C203.234 84.6197 205.352 84.7837 207.52 85.2464C206.58 85.3629 205.637 85.5931 204.7 85.5736C202.322 85.524 199.949 85.3175 197.571 85.2548C192.06 85.1094 186.546 85.0658 181.037 84.877C176.974 84.7378 172.92 84.3597 168.857 84.2315C166.375 84.1532 163.88 84.4498 161.396 84.3891C158.853 84.3269 156.318 84.0045 153.776 83.8506C151.221 83.6959 148.66 83.6176 146.103 83.4897C141.861 83.2775 137.584 82.6482 133.389 82.9593C129.977 83.2123 126.758 82.5053 123.442 82.44C121.445 82.4007 119.451 82.2125 117.454 82.1993C116.498 82.193 115.544 82.4907 114.581 82.5595C111.404 82.7865 108.217 82.9049 105.048 83.1952C102.646 83.4153 100.273 83.9009 97.8718 84.1419C96.1609 84.3137 94.4199 84.2148 92.7019 84.3442C89.6746 84.5724 86.6587 84.936 83.6298 85.138C81.9113 85.2526 80.1763 85.1587 78.4487 85.1587C78.4498 84.9783 78.4509 84.7979 78.452 84.6175C88.1539 83.8392 97.8557 83.061 107.557 82.2828C107.544 82.1377 107.531 81.9926 107.517 81.8476C105.371 81.6794 103.226 81.5112 101.08 81.3431C101.067 81.184 101.055 81.0249 101.042 80.8658C102.352 80.809 103.679 80.5959 104.968 80.7225C110.437 81.2599 115.884 81.6906 121.399 81.0818C125.287 80.6526 129.22 80.5781 133.132 80.3314C134.484 80.2461 135.833 80.1188 137.183 80.0107C137.22 80.1651 137.256 80.3194 137.293 80.4738C137.009 80.7598 136.724 81.0458 136.595 81.1755C136.134 80.914 135.761 80.5173 135.439 80.5493C132.612 80.8301 129.794 81.1873 126.969 81.676C133.269 82.7074 139.619 81.7407 145.959 82.0837C144.952 82.1286 143.945 82.1734 142.953 82.3579C142.996 82.4188 143.026 82.3401 143.055 82.2614C142.951 82.3547 142.847 82.4481 142.743 82.5414Z" fill="#2381C9"/>
<path d="M50.5695 13.6813C52.0664 13.9029 53.3765 14.2934 54.6891 14.3009C56.143 14.3092 57.5989 13.9656 59.0545 13.7792C59.3528 13.741 59.6537 13.72 60.125 13.6745C59.4062 14.2805 58.8257 14.7698 58.4633 15.0753C57.2548 15.1479 56.1925 15.2709 55.131 15.2652C50.5988 15.2412 46.0666 15.1279 41.535 15.1513C39.0384 15.1643 36.5424 15.3724 34.0474 15.5128C30.5377 15.7104 27.0308 16.0024 23.5189 16.0604C22.9374 16.0701 22.2056 15.1649 21.8014 14.5404C21.6061 14.2385 21.9548 13.2188 22.1522 13.195C22.8365 13.1126 23.6438 13.1736 24.2564 13.4544C25.727 14.1285 27.0598 14.3808 28.7381 13.8363C29.8103 13.4885 31.1809 14.0025 32.4156 13.9864C38.0885 13.9124 43.7608 13.7875 49.4333 13.6821C49.75 13.6762 50.0669 13.6813 50.5695 13.6813Z" fill="#2381C9"/>
<path d="M173.999 76.4761C177.232 76.5903 180.298 76.7999 183.361 76.7843C185.335 76.7743 187.486 77.2974 189.18 76.9638C192.284 76.3524 195.321 76.778 198.369 76.5222C201.011 76.3006 203.691 76.4761 206.562 76.4761C206.394 76.6377 206.163 77.0509 205.933 77.0508C202.425 77.0491 198.913 76.8859 195.41 76.9912C193.358 77.0529 191.322 77.5369 189.274 77.7996C188.653 77.8792 188.016 77.8699 187.387 77.874C185.732 77.8848 184.074 77.8368 182.422 77.8961C181.066 77.9447 179.716 78.128 178.362 78.2268C175.073 78.4668 171.785 78.7465 168.492 78.9092C164.806 79.0913 161.113 79.1483 157.424 79.2865C155.21 79.3695 152.992 79.4492 150.787 79.6354C149.45 79.7483 148.112 80.3304 146.52 79.0751C155.671 78.5197 164.488 77.9847 173.808 77.4191C173.366 76.926 173.123 76.6542 172.963 76.4761C172.935 76.4761 173.383 76.4761 173.999 76.4761Z" fill="#2381C9"/>
<path d="M246.621 20.5158C245.6 21.0002 244.432 19.9344 243.661 21.0445C242.645 19.3974 240.993 20.6605 239.701 20.4729C236.816 20.054 233.807 20.4154 230.853 20.3209C229.023 20.2623 227.201 19.9506 225.376 19.7525C225.387 19.6 225.397 19.4474 225.408 19.2949C236.871 19.2949 248.335 19.2949 259.917 19.2949C259.004 20.519 250.296 21.1676 246.621 20.5158Z" fill="#2381C9"/>
<path d="M99.4595 17.278C98.6213 17.4168 97.9419 17.5274 97.2617 17.5314C94.0407 17.55 90.8193 17.5502 87.5984 17.5258C87.2049 17.5229 86.8132 17.3331 86.4641 17.0173C93.5549 16.726 100.65 16.1441 107.735 16.2257C114.748 16.3065 121.82 15.7397 128.8 16.7251C128.794 16.8837 128.789 17.0422 128.783 17.2008C119.061 17.2008 109.34 17.2008 99.4595 17.278Z" fill="#2381C9"/>
<path d="M211.184 78.5803C207.967 78.8124 204.938 79.14 201.899 79.2519C198.348 79.3826 194.789 79.3037 191.234 79.3612C190.067 79.3801 188.904 79.5584 187.737 79.6316C186.486 79.71 185.233 79.7504 183.982 79.8073C183.97 79.5677 183.957 79.328 183.945 79.0884C195.862 78.651 207.779 78.2137 219.696 77.7764C219.71 78.0016 219.723 78.2269 219.737 78.4521C216.947 78.4948 214.158 78.5375 211.184 78.5803Z" fill="#2381C9"/>
<path d="M30.8215 3.07527C30.9556 1.65714 31.3069 0.574346 33.0811 0.703877C34.1128 0.779197 35.0221 1.16234 34.9372 2.18345C34.8788 2.88561 34.4431 3.75384 33.8599 4.17981C33.0368 4.78094 31.9358 5.00191 31.2784 3.76539C31.1711 3.56365 30.9793 3.40015 30.8215 3.07527Z" fill="#2381C9"/>
<path d="M172.885 19.1423C170.132 19.1733 167.372 19.2504 164.613 19.2344C162.825 19.2239 161.039 19.0317 159.25 19.0027C156.645 18.9605 154.037 18.9918 151.431 18.9918C151.439 18.7101 151.446 18.4283 151.454 18.1465C158.498 18.4289 165.542 18.7113 172.725 19.0785C172.863 19.1633 172.877 19.1489 172.885 19.1423Z" fill="#2381C9"/>
<path d="M32.2457 19.9954C29.5013 19.9954 26.9385 19.9954 24.3757 19.9954C24.3733 19.8407 24.371 19.686 24.3687 19.5312C29.7512 19.5312 35.1338 19.5312 40.5164 19.5312C40.528 19.618 40.5396 19.7048 40.5512 19.7916C37.8432 19.8595 35.1353 19.9274 32.2457 19.9954Z" fill="#2381C9"/>
<path d="M158.558 76.8335C156.851 76.9648 155.314 77.102 153.567 77.2578C154.76 75.8877 160.929 75.7702 163.56 77.0951C161.949 77.0098 160.339 76.9245 158.558 76.8335Z" fill="#2381C9"/>
<path d="M4.63772 34.2179C4.7411 34.4277 4.78171 34.5133 4.82231 34.5989C4.62268 34.5664 4.29102 34.5875 4.24552 34.4923C4.00666 33.9926 3.84019 33.4634 3.66309 32.9838C2.73112 32.9838 1.94669 32.9838 1.16226 32.9838C1.13185 32.8304 1.10145 32.6771 1.07104 32.5237C1.6823 32.2072 2.28121 31.6626 2.90804 31.6338C3.63758 31.6002 4.5588 31.8592 5.06186 32.3095C5.30062 32.5232 4.76161 33.4758 4.63772 34.2179Z" fill="#2381C9"/>
<path d="M114.296 84.6252C113.656 84.765 113.164 84.8347 112.672 84.9044C112.64 84.6848 112.608 84.4653 112.576 84.2458C114.852 83.9728 117.128 83.6998 119.405 83.4268C119.44 83.6762 119.476 83.9257 119.511 84.1752C117.822 84.3018 116.132 84.4284 114.296 84.6252Z" fill="#2381C9"/>
<path d="M139.971 79.9565C142.057 79.6627 144.143 79.369 146.228 79.0752C146.267 79.3252 146.305 79.5752 146.344 79.8252C144.462 80.5272 142.418 80.2044 140.257 80.111C140.058 80.0535 140.014 80.005 139.971 79.9565Z" fill="#2381C9"/>
<path d="M269.529 20.6698C270.977 19.2759 272.323 20.4833 273.771 20.5054C273.755 20.7177 273.739 20.9299 273.723 21.1421C272.363 21.0174 271.003 20.8928 269.529 20.6698Z" fill="#2381C9"/>
<path d="M298.909 26.6855C299.425 26.9497 299.793 27.2287 300.161 27.5077C300.116 27.6516 300.071 27.7954 300.026 27.9392C298.213 27.64 296.401 27.3407 294.588 27.0414C294.598 26.9278 294.608 26.8141 294.619 26.7004C296 26.7004 297.381 26.7004 298.909 26.6855Z" fill="#2381C9"/>
<path d="M140.16 80.1792C139.179 81.2115 138.48 80.5681 137.34 79.4961C138.462 79.7171 139.073 79.8375 139.827 79.957C140.015 80.0048 140.058 80.0533 140.16 80.1792Z" fill="#2381C9"/>
<path d="M15.8082 19.2724C15.867 18.8853 15.812 18.5963 15.7571 18.3072C15.902 18.2869 16.0469 18.2665 16.1918 18.2461C16.3259 19.0094 16.46 19.7728 16.5941 20.5361C16.3821 20.5711 16.1701 20.6062 15.9581 20.6412C15.8702 20.2176 15.7823 19.794 15.8082 19.2724Z" fill="#2381C9"/>
<path d="M15.9661 20.9706C15.8844 20.9476 15.8206 20.8209 15.8351 20.6807C15.9368 20.7337 15.9604 20.8003 15.9661 20.9706Z" fill="#2381C9"/>
<path d="M18.8772 29.2407C19.0653 29.2308 19.1234 29.3726 19.1007 29.6005C18.929 29.5885 18.838 29.4905 18.8772 29.2407Z" fill="#2381C9"/>
<path d="M185.69 25.2128C185.562 25.282 185.5 25.2771 185.438 25.278C184.833 25.2875 184.228 25.2979 183.622 25.3081C183.676 25.0055 183.73 24.703 183.783 24.4004C184.428 24.541 185.073 24.6816 185.796 24.9055C185.835 25.0397 185.796 25.0905 185.69 25.2128Z" fill="#2381C9"/>
<path d="M199.128 21.9451C198.813 22.1568 198.441 22.2996 198.058 22.4076C198.035 22.4142 197.92 22.146 197.848 22.0056C198.115 21.9205 198.382 21.8354 198.794 21.7373C198.983 21.7723 199.026 21.8204 199.128 21.9451Z" fill="#2381C9"/>
<path d="M190.052 25.4648C190.159 25.6584 190.18 25.9038 190.201 26.1493C190.08 26.0488 189.959 25.9483 189.823 25.7412C189.862 25.5953 189.914 25.556 190.052 25.4648Z" fill="#2381C9"/>
<path d="M183.29 25.286C183.263 25.3582 183.12 25.4037 182.961 25.376C183.021 25.2883 183.098 25.2738 183.29 25.286Z" fill="#2381C9"/>
<path d="M169.176 24.5254C169.792 24.4593 170.24 24.3919 170.691 24.3721C170.714 24.371 170.82 24.9542 170.784 24.9649C170.347 25.0932 169.876 25.274 169.445 25.2214C168.983 25.1651 168.555 24.875 168.205 24.4731C168.473 24.4934 168.741 24.5136 169.176 24.5254Z" fill="#2381C9"/>
<path d="M172.287 24.8726C172.145 25.0188 171.926 25.1037 171.708 25.1886C171.764 25.0718 171.819 24.9551 171.961 24.77C172.101 24.7382 172.156 24.7748 172.287 24.8726Z" fill="#2381C9"/>
</g>
<g filter="url(#filter0_d_85_194)">
<path d="M72.101 32.174C73.421 32.174 74.543 32.361 75.467 32.735C76.391 33.109 77.293 33.637 78.173 34.319C78.415 34.517 78.624 34.616 78.8 34.616C79.24 34.616 79.526 33.956 79.658 32.636H80.417C80.329 34.132 80.285 36.794 80.285 40.622H79.526C79.328 38.994 79.064 37.751 78.734 36.893C78.404 36.035 77.843 35.287 77.051 34.649C76.501 34.121 75.863 33.725 75.137 33.461C74.411 33.175 73.652 33.032 72.86 33.032C70.638 33.032 68.988 34.121 67.91 36.299C66.832 38.455 66.293 41.15 66.293 44.384C66.293 47.596 66.854 50.28 67.976 52.436C69.098 54.592 70.77 55.67 72.992 55.67C73.74 55.67 74.477 55.538 75.203 55.274C75.951 54.988 76.578 54.581 77.084 54.053C77.898 53.437 78.459 52.667 78.767 51.743C79.097 50.819 79.35 49.466 79.526 47.684H80.285C80.285 51.666 80.329 54.438 80.417 56H79.658C79.592 55.296 79.493 54.801 79.361 54.515C79.251 54.207 79.086 54.053 78.866 54.053C78.69 54.053 78.459 54.141 78.173 54.317C77.183 55.021 76.237 55.56 75.335 55.934C74.433 56.286 73.344 56.462 72.068 56.462C69.736 56.462 67.69 55.989 65.93 55.043C64.192 54.097 62.839 52.733 61.871 50.951C60.903 49.147 60.419 47.002 60.419 44.516C60.419 42.096 60.914 39.951 61.904 38.081C62.894 36.211 64.269 34.759 66.029 33.725C67.811 32.691 69.835 32.174 72.101 32.174ZM94.8076 35.474C97.0296 35.474 98.9766 35.881 100.649 36.695C102.321 37.487 103.619 38.664 104.543 40.226C105.467 41.766 105.929 43.614 105.929 45.77C105.929 47.882 105.456 49.752 104.51 51.38C103.564 52.986 102.244 54.24 100.55 55.142C98.8556 56.022 96.9306 56.462 94.7746 56.462C92.5526 56.462 90.6056 56.066 88.9336 55.274C87.2616 54.46 85.9636 53.283 85.0396 51.743C84.1156 50.181 83.6536 48.322 83.6536 46.166C83.6536 44.054 84.1266 42.195 85.0726 40.589C86.0186 38.961 87.3386 37.707 89.0326 36.827C90.7266 35.925 92.6516 35.474 94.8076 35.474ZM94.6756 36.068C93.5316 36.068 92.5196 36.497 91.6396 37.355C90.7816 38.191 90.1106 39.368 89.6266 40.886C89.1646 42.382 88.9336 44.098 88.9336 46.034C88.9336 47.992 89.1976 49.719 89.7256 51.215C90.2536 52.711 90.9686 53.866 91.8706 54.68C92.7946 55.472 93.8066 55.868 94.9066 55.868C96.0506 55.868 97.0516 55.45 97.9096 54.614C98.7896 53.756 99.4606 52.579 99.9226 51.083C100.407 49.565 100.649 47.838 100.649 45.902C100.649 43.944 100.385 42.217 99.8566 40.721C99.3286 39.225 98.6026 38.081 97.6786 37.289C96.7766 36.475 95.7756 36.068 94.6756 36.068ZM128.831 36.596C128.105 36.706 127.566 36.871 127.214 37.091C126.884 37.311 126.653 37.663 126.521 38.147C126.411 38.631 126.356 39.368 126.356 40.358V56.066L125.465 56.033L124.607 56.066L111.407 39.665V51.578C111.407 52.546 111.495 53.283 111.671 53.789C111.847 54.273 112.166 54.625 112.628 54.845C113.09 55.065 113.816 55.23 114.806 55.34V56C113.816 55.934 112.562 55.901 111.044 55.901C109.834 55.901 108.877 55.934 108.173 56V55.34C108.899 55.23 109.427 55.065 109.757 54.845C110.109 54.625 110.34 54.273 110.45 53.789C110.582 53.305 110.648 52.568 110.648 51.578V39.434C110.648 38.598 110.582 37.993 110.45 37.619C110.34 37.245 110.109 36.992 109.757 36.86C109.427 36.728 108.899 36.64 108.173 36.596V35.936C108.877 36.002 109.834 36.035 111.044 36.035C112.606 36.035 113.948 36.002 115.07 35.936L125.597 49.004V40.358C125.597 39.39 125.509 38.664 125.333 38.18C125.157 37.674 124.827 37.311 124.343 37.091C123.881 36.871 123.166 36.706 122.198 36.596V35.936C123.166 36.002 124.42 36.035 125.96 36.035C127.192 36.035 128.149 36.002 128.831 35.936V36.596ZM150.295 35.936C150.141 37.608 150.064 39.104 150.064 40.424C150.064 41.656 150.097 42.624 150.163 43.328H149.404C149.096 41.656 148.722 40.347 148.282 39.401C147.864 38.455 147.314 37.773 146.632 37.355C145.972 36.915 145.114 36.695 144.058 36.695H143.035V52.172C143.035 53.096 143.123 53.767 143.299 54.185C143.475 54.603 143.783 54.889 144.223 55.043C144.663 55.197 145.378 55.296 146.368 55.34V56C145.18 55.934 143.2 55.901 140.428 55.901C137.634 55.901 135.709 55.934 134.653 56V55.34C135.643 55.296 136.358 55.197 136.798 55.043C137.238 54.889 137.546 54.603 137.722 54.185C137.898 53.767 137.986 53.096 137.986 52.172V36.695H136.963C135.907 36.695 135.038 36.915 134.356 37.355C133.696 37.773 133.146 38.455 132.706 39.401C132.288 40.347 131.925 41.656 131.617 43.328H130.858C130.924 42.624 130.957 41.656 130.957 40.424C130.957 39.104 130.88 37.608 130.726 35.936C132.64 36.002 135.874 36.035 140.428 36.035C145.07 36.035 148.359 36.002 150.295 35.936ZM168.014 53.228C168.652 54.592 169.345 55.296 170.093 55.34V56C169.037 55.934 167.596 55.901 165.77 55.901C163.416 55.901 161.678 55.934 160.556 56V55.34C161.282 55.296 161.821 55.186 162.173 55.01C162.525 54.812 162.701 54.493 162.701 54.053C162.701 53.657 162.558 53.162 162.272 52.568L160.622 48.806H153.692L153.296 49.697C152.68 51.149 152.372 52.282 152.372 53.096C152.372 53.844 152.614 54.394 153.098 54.746C153.582 55.098 154.297 55.296 155.243 55.34V56C153.989 55.934 152.724 55.901 151.448 55.901C150.26 55.901 149.369 55.934 148.775 56V55.34C149.303 55.23 149.787 54.9 150.227 54.35C150.689 53.778 151.173 52.931 151.679 51.809L158.642 35.87C158.818 35.892 159.071 35.903 159.401 35.903C159.753 35.903 160.006 35.892 160.16 35.87L168.014 53.228ZM160.325 48.146L157.157 40.919L153.989 48.146H160.325ZM181.226 35.474C182.502 35.474 183.536 35.661 184.328 36.035C185.12 36.387 185.934 36.915 186.77 37.619C187.012 37.817 187.221 37.916 187.397 37.916C187.837 37.916 188.123 37.256 188.255 35.936H189.014C188.926 37.256 188.882 39.566 188.882 42.866H188.123C187.903 41.678 187.683 40.82 187.463 40.292C187.243 39.742 186.913 39.192 186.473 38.642C185.857 37.916 185.153 37.355 184.361 36.959C183.591 36.541 182.788 36.332 181.952 36.332C180.742 36.332 179.686 36.728 178.784 37.52C177.882 38.29 177.178 39.401 176.672 40.853C176.188 42.305 175.946 44.032 175.946 46.034C175.946 48.058 176.21 49.796 176.738 51.248C177.288 52.678 178.036 53.767 178.982 54.515C179.928 55.241 180.995 55.604 182.183 55.604C183.041 55.604 183.877 55.406 184.691 55.01C185.527 54.592 186.242 54.02 186.836 53.294C187.276 52.744 187.595 52.15 187.793 51.512C187.991 50.874 188.178 49.95 188.354 48.74H189.113C189.113 52.194 189.157 54.614 189.245 56H188.486C188.42 55.318 188.321 54.823 188.189 54.515C188.057 54.185 187.881 54.02 187.661 54.02C187.485 54.02 187.265 54.119 187.001 54.317C186.187 54.999 185.34 55.527 184.46 55.901C183.58 56.275 182.524 56.462 181.292 56.462C179.202 56.462 177.354 56.055 175.748 55.241C174.142 54.427 172.888 53.25 171.986 51.71C171.106 50.17 170.666 48.322 170.666 46.166C170.666 44.076 171.128 42.217 172.052 40.589C172.976 38.961 174.23 37.707 175.814 36.827C177.42 35.925 179.224 35.474 181.226 35.474ZM211.429 35.936C211.275 37.608 211.198 39.104 211.198 40.424C211.198 41.656 211.231 42.624 211.297 43.328H210.538C210.23 41.656 209.856 40.347 209.416 39.401C208.998 38.455 208.448 37.773 207.766 37.355C207.106 36.915 206.248 36.695 205.192 36.695H204.169V52.172C204.169 53.096 204.257 53.767 204.433 54.185C204.609 54.603 204.917 54.889 205.357 55.043C205.797 55.197 206.512 55.296 207.502 55.34V56C206.314 55.934 204.334 55.901 201.562 55.901C198.768 55.901 196.843 55.934 195.787 56V55.34C196.777 55.296 197.492 55.197 197.932 55.043C198.372 54.889 198.68 54.603 198.856 54.185C199.032 53.767 199.12 53.096 199.12 52.172V36.695H198.097C197.041 36.695 196.172 36.915 195.49 37.355C194.83 37.773 194.28 38.455 193.84 39.401C193.422 40.347 193.059 41.656 192.751 43.328H191.992C192.058 42.624 192.091 41.656 192.091 40.424C192.091 39.104 192.014 37.608 191.86 35.936C193.774 36.002 197.008 36.035 201.562 36.035C206.204 36.035 209.493 36.002 211.429 35.936ZM229.147 53.228C229.785 54.592 230.478 55.296 231.226 55.34V56C230.17 55.934 228.729 55.901 226.903 55.901C224.549 55.901 222.811 55.934 221.689 56V55.34C222.415 55.296 222.954 55.186 223.306 55.01C223.658 54.812 223.834 54.493 223.834 54.053C223.834 53.657 223.691 53.162 223.405 52.568L221.755 48.806H214.825L214.429 49.697C213.813 51.149 213.505 52.282 213.505 53.096C213.505 53.844 213.747 54.394 214.231 54.746C214.715 55.098 215.43 55.296 216.376 55.34V56C215.122 55.934 213.857 55.901 212.581 55.901C211.393 55.901 210.502 55.934 209.908 56V55.34C210.436 55.23 210.92 54.9 211.36 54.35C211.822 53.778 212.306 52.931 212.812 51.809L219.775 35.87C219.951 35.892 220.204 35.903 220.534 35.903C220.886 35.903 221.139 35.892 221.293 35.87L229.147 53.228ZM221.458 48.146L218.29 40.919L215.122 48.146H221.458ZM259.044 36.596C258.252 36.64 257.669 36.728 257.295 36.86C256.943 36.992 256.701 37.245 256.569 37.619C256.437 37.993 256.371 38.598 256.371 39.434V52.502C256.371 53.338 256.437 53.943 256.569 54.317C256.701 54.691 256.943 54.944 257.295 55.076C257.669 55.208 258.252 55.296 259.044 55.34V56C257.856 55.934 256.195 55.901 254.061 55.901C251.509 55.901 249.639 55.934 248.451 56V55.34C249.243 55.296 249.815 55.208 250.167 55.076C250.541 54.944 250.794 54.691 250.926 54.317C251.058 53.943 251.124 53.338 251.124 52.502V38.015L243.567 56.165H243.039L235.383 38.048V51.578C235.383 52.546 235.471 53.283 235.647 53.789C235.823 54.273 236.142 54.625 236.604 54.845C237.088 55.065 237.814 55.23 238.782 55.34V56C237.836 55.934 236.582 55.901 235.02 55.901C233.81 55.901 232.853 55.934 232.149 56V55.34C232.875 55.23 233.403 55.065 233.733 54.845C234.085 54.625 234.316 54.273 234.426 53.789C234.558 53.305 234.624 52.568 234.624 51.578V39.434C234.624 38.598 234.558 37.993 234.426 37.619C234.294 37.245 234.041 36.992 233.667 36.86C233.315 36.728 232.743 36.64 231.951 36.596V35.936C233.095 36.002 234.844 36.035 237.198 36.035C238.342 36.035 239.321 36.002 240.135 35.936L245.613 49.103L251.124 36.035H254.061C256.195 36.035 257.856 36.002 259.044 35.936V36.596ZM278.41 51.71C278.41 52.964 278.487 54.394 278.641 56C277.211 55.934 274.802 55.901 271.414 55.901C266.882 55.901 263.472 55.934 261.184 56V55.34C261.932 55.296 262.471 55.208 262.801 55.076C263.131 54.944 263.351 54.691 263.461 54.317C263.593 53.943 263.659 53.338 263.659 52.502V39.434C263.659 38.598 263.593 37.993 263.461 37.619C263.351 37.245 263.12 36.992 262.768 36.86C262.438 36.728 261.91 36.64 261.184 36.596V35.936C263.472 36.002 266.882 36.035 271.414 36.035C274.494 36.035 276.683 36.002 277.981 35.936C277.827 37.41 277.75 38.73 277.75 39.896C277.75 40.754 277.783 41.436 277.849 41.942H277.09C276.76 40.05 276.188 38.708 275.374 37.916C274.56 37.102 273.438 36.695 272.008 36.695H270.787C270.215 36.695 269.786 36.75 269.5 36.86C269.214 36.948 269.005 37.146 268.873 37.454C268.763 37.74 268.708 38.202 268.708 38.84V45.572H270.259C271.271 45.572 272.03 45.22 272.536 44.516C273.064 43.79 273.416 42.954 273.592 42.008H274.351C274.285 42.756 274.252 43.614 274.252 44.582V45.902C274.252 46.892 274.318 48.19 274.45 49.796H273.691C273.537 48.762 273.185 47.915 272.635 47.255C272.107 46.573 271.315 46.232 270.259 46.232H268.708V53.096C268.708 53.734 268.763 54.207 268.873 54.515C269.005 54.801 269.214 54.999 269.5 55.109C269.786 55.197 270.215 55.241 270.787 55.241H272.206C273.768 55.241 274.989 54.79 275.869 53.888C276.771 52.986 277.398 51.468 277.75 49.334H278.509C278.443 49.95 278.41 50.742 278.41 51.71Z" fill="#FAFAFA"/>
</g>
<defs>
<filter id="filter0_d_85_194" x="56.4189" y="32.1738" width="226.222" height="32.2881" filterUnits="userSpaceOnUse" color-interpolation-filters="sRGB">
<feFlood flood-opacity="0" result="BackgroundImageFix"/>
<feColorMatrix in="SourceAlpha" type="matrix" values="0 0 0 0 0 0 0 0 0 0 0 0 0 0 0 0 0 0 127 0" result="hardAlpha"/>
<feOffset dy="4"/>
<feGaussianBlur stdDeviation="2"/>
<feComposite in2="hardAlpha" operator="out"/>
<feColorMatrix type="matrix" values="0 0 0 0 0 0 0 0 0 0 0 0 0 0 0 0 0 0 0.25 0"/>
<feBlend mode="normal" in2="BackgroundImageFix" result="effect1_dropShadow_85_194"/>
<feBlend mode="normal" in="SourceGraphic" in2="effect1_dropShadow_85_194" result="shape"/>
</filter>
<clipPath id="clip0_85_194">
<rect width="350" height="87" fill="white"/>
</clipPath>
</defs>
</svg>
