<svg width="247" height="48" viewBox="0 0 247 48" fill="none" xmlns="http://www.w3.org/2000/svg">
<path d="M232.75 27L227 21.25L228.75 19.5L236.25 27L228.75 34.5L227 32.75L232.75 27Z" fill="black"/>
<path d="M18.48 24.324C18.48 25.596 18.268 26.776 17.844 27.864C17.428 28.944 16.836 29.88 16.068 30.672C15.3 31.464 14.376 32.084 13.296 32.532C12.216 32.972 11.016 33.192 9.696 33.192C8.384 33.192 7.188 32.972 6.108 32.532C5.028 32.084 4.1 31.464 3.324 30.672C2.556 29.88 1.96 28.944 1.536 27.864C1.112 26.776 0.9 25.596 0.9 24.324C0.9 23.052 1.112 21.876 1.536 20.796C1.96 19.708 2.556 18.768 3.324 17.976C4.1 17.184 5.028 16.568 6.108 16.128C7.188 15.68 8.384 15.456 9.696 15.456C10.576 15.456 11.404 15.56 12.18 15.768C12.956 15.968 13.668 16.256 14.316 16.632C14.964 17 15.544 17.452 16.056 17.988C16.576 18.516 17.016 19.108 17.376 19.764C17.736 20.42 18.008 21.132 18.192 21.9C18.384 22.668 18.48 23.476 18.48 24.324ZM15.18 24.324C15.18 23.372 15.052 22.52 14.796 21.768C14.54 21.008 14.176 20.364 13.704 19.836C13.232 19.308 12.656 18.904 11.976 18.624C11.304 18.344 10.544 18.204 9.696 18.204C8.848 18.204 8.084 18.344 7.404 18.624C6.732 18.904 6.156 19.308 5.676 19.836C5.204 20.364 4.84 21.008 4.584 21.768C4.328 22.52 4.2 23.372 4.2 24.324C4.2 25.276 4.328 26.132 4.584 26.892C4.84 27.644 5.204 28.284 5.676 28.812C6.156 29.332 6.732 29.732 7.404 30.012C8.084 30.292 8.848 30.432 9.696 30.432C10.544 30.432 11.304 30.292 11.976 30.012C12.656 29.732 13.232 29.332 13.704 28.812C14.176 28.284 14.54 27.644 14.796 26.892C15.052 26.132 15.18 25.276 15.18 24.324ZM34.1948 23.088C34.1148 23.216 34.0308 23.308 33.9428 23.364C33.8548 23.412 33.7428 23.436 33.6068 23.436C33.4628 23.436 33.3068 23.396 33.1388 23.316C32.9788 23.236 32.7908 23.148 32.5748 23.052C32.3588 22.948 32.1108 22.856 31.8307 22.776C31.5588 22.696 31.2348 22.656 30.8588 22.656C30.2748 22.656 29.8148 22.78 29.4788 23.028C29.1508 23.276 28.9868 23.6 28.9868 24C28.9868 24.264 29.0708 24.488 29.2388 24.672C29.4148 24.848 29.6428 25.004 29.9228 25.14C30.2108 25.276 30.5348 25.4 30.8948 25.512C31.2548 25.616 31.6188 25.732 31.9868 25.86C32.3628 25.988 32.7308 26.136 33.0908 26.304C33.4508 26.464 33.7708 26.672 34.0508 26.928C34.3388 27.176 34.5668 27.476 34.7348 27.828C34.9108 28.18 34.9988 28.604 34.9988 29.1C34.9988 29.692 34.8908 30.24 34.6748 30.744C34.4668 31.24 34.1548 31.672 33.7388 32.04C33.3228 32.4 32.8068 32.684 32.1908 32.892C31.5828 33.092 30.8788 33.192 30.0788 33.192C29.6548 33.192 29.2388 33.152 28.8308 33.072C28.4308 33 28.0428 32.896 27.6668 32.76C27.2988 32.624 26.9548 32.464 26.6348 32.28C26.3228 32.096 26.0468 31.896 25.8068 31.68L26.4908 30.552C26.5788 30.416 26.6828 30.312 26.8027 30.24C26.9227 30.168 27.0748 30.132 27.2588 30.132C27.4428 30.132 27.6148 30.184 27.7748 30.288C27.9428 30.392 28.1348 30.504 28.3508 30.624C28.5668 30.744 28.8188 30.856 29.1068 30.96C29.4028 31.064 29.7748 31.116 30.2228 31.116C30.5748 31.116 30.8748 31.076 31.1228 30.996C31.3788 30.908 31.5868 30.796 31.7468 30.66C31.9148 30.524 32.0347 30.368 32.1068 30.192C32.1868 30.008 32.2268 29.82 32.2268 29.628C32.2268 29.34 32.1388 29.104 31.9628 28.92C31.7948 28.736 31.5668 28.576 31.2787 28.44C30.9988 28.304 30.6748 28.184 30.3068 28.08C29.9468 27.968 29.5748 27.848 29.1908 27.72C28.8148 27.592 28.4428 27.444 28.0748 27.276C27.7148 27.1 27.3908 26.88 27.1028 26.616C26.8228 26.352 26.5948 26.028 26.4188 25.644C26.2508 25.26 26.1668 24.796 26.1668 24.252C26.1668 23.748 26.2668 23.268 26.4668 22.812C26.6668 22.356 26.9588 21.96 27.3428 21.624C27.7348 21.28 28.2188 21.008 28.7948 20.808C29.3788 20.6 30.0508 20.496 30.8108 20.496C31.6588 20.496 32.4308 20.636 33.1268 20.916C33.8228 21.196 34.4028 21.564 34.8668 22.02L34.1948 23.088ZM40.3016 20.688V33H37.3256V20.688H40.3016ZM40.7096 17.1C40.7096 17.356 40.6576 17.596 40.5536 17.82C40.4496 18.044 40.3096 18.24 40.1336 18.408C39.9656 18.576 39.7656 18.712 39.5336 18.816C39.3016 18.912 39.0536 18.96 38.7896 18.96C38.5336 18.96 38.2896 18.912 38.0576 18.816C37.8336 18.712 37.6376 18.576 37.4696 18.408C37.3016 18.24 37.1656 18.044 37.0616 17.82C36.9656 17.596 36.9176 17.356 36.9176 17.1C36.9176 16.836 36.9656 16.588 37.0616 16.356C37.1656 16.124 37.3016 15.924 37.4696 15.756C37.6376 15.588 37.8336 15.456 38.0576 15.36C38.2896 15.256 38.5336 15.204 38.7896 15.204C39.0536 15.204 39.3016 15.256 39.5336 15.36C39.7656 15.456 39.9656 15.588 40.1336 15.756C40.3096 15.924 40.4496 16.124 40.5536 16.356C40.6576 16.588 40.7096 16.836 40.7096 17.1ZM47.8234 26.544C48.1914 26.544 48.5114 26.496 48.7834 26.4C49.0554 26.296 49.2794 26.156 49.4554 25.98C49.6394 25.804 49.7754 25.592 49.8634 25.344C49.9594 25.096 50.0074 24.824 50.0074 24.528C50.0074 23.92 49.8234 23.44 49.4554 23.088C49.0954 22.728 48.5514 22.548 47.8234 22.548C47.0954 22.548 46.5474 22.728 46.1794 23.088C45.8194 23.44 45.6394 23.92 45.6394 24.528C45.6394 24.816 45.6834 25.084 45.7714 25.332C45.8674 25.58 46.0034 25.796 46.1794 25.98C46.3634 26.156 46.5914 26.296 46.8634 26.4C47.1434 26.496 47.4634 26.544 47.8234 26.544ZM51.1714 33.552C51.1714 33.312 51.0994 33.116 50.9554 32.964C50.8114 32.812 50.6154 32.696 50.3674 32.616C50.1194 32.528 49.8274 32.464 49.4914 32.424C49.1634 32.384 48.8114 32.356 48.4354 32.34C48.0674 32.316 47.6834 32.296 47.2834 32.28C46.8914 32.264 46.5074 32.232 46.1314 32.184C45.8034 32.368 45.5354 32.584 45.3274 32.832C45.1274 33.08 45.0274 33.368 45.0274 33.696C45.0274 33.912 45.0794 34.112 45.1834 34.296C45.2954 34.488 45.4674 34.652 45.6994 34.788C45.9394 34.924 46.2474 35.028 46.6234 35.1C46.9994 35.18 47.4594 35.22 48.0034 35.22C48.5554 35.22 49.0314 35.176 49.4314 35.088C49.8314 35.008 50.1594 34.892 50.4154 34.74C50.6794 34.596 50.8714 34.42 50.9914 34.212C51.1114 34.012 51.1714 33.792 51.1714 33.552ZM54.1234 21.108V22.212C54.1234 22.564 53.9114 22.78 53.4874 22.86L52.3834 23.064C52.5514 23.488 52.6354 23.952 52.6354 24.456C52.6354 25.064 52.5114 25.616 52.2634 26.112C52.0234 26.6 51.6874 27.016 51.2554 27.36C50.8234 27.704 50.3114 27.972 49.7194 28.164C49.1354 28.348 48.5034 28.44 47.8234 28.44C47.5834 28.44 47.3514 28.428 47.1274 28.404C46.9034 28.38 46.6834 28.348 46.4674 28.308C46.0834 28.54 45.8914 28.8 45.8914 29.088C45.8914 29.336 46.0034 29.52 46.2274 29.64C46.4594 29.752 46.7634 29.832 47.1394 29.88C47.5154 29.928 47.9434 29.96 48.4234 29.976C48.9034 29.984 49.3954 30.008 49.8994 30.048C50.4034 30.088 50.8954 30.16 51.3754 30.264C51.8554 30.36 52.2834 30.516 52.6594 30.732C53.0354 30.948 53.3354 31.244 53.5594 31.62C53.7914 31.988 53.9074 32.464 53.9074 33.048C53.9074 33.592 53.7714 34.12 53.4994 34.632C53.2354 35.144 52.8474 35.6 52.3354 36C51.8314 36.4 51.2074 36.72 50.4634 36.96C49.7274 37.208 48.8874 37.332 47.9434 37.332C47.0154 37.332 46.2074 37.24 45.5194 37.056C44.8314 36.88 44.2594 36.64 43.8034 36.336C43.3474 36.04 43.0074 35.696 42.7834 35.304C42.5594 34.912 42.4474 34.504 42.4474 34.08C42.4474 33.504 42.6194 33.024 42.9634 32.64C43.3154 32.248 43.7954 31.936 44.4034 31.704C44.0754 31.536 43.8154 31.312 43.6234 31.032C43.4314 30.752 43.3354 30.384 43.3354 29.928C43.3354 29.744 43.3674 29.556 43.4314 29.364C43.5034 29.164 43.6034 28.968 43.7314 28.776C43.8674 28.584 44.0354 28.404 44.2354 28.236C44.4354 28.06 44.6714 27.904 44.9434 27.768C44.3194 27.432 43.8274 26.984 43.4674 26.424C43.1154 25.864 42.9394 25.208 42.9394 24.456C42.9394 23.848 43.0594 23.3 43.2994 22.812C43.5474 22.316 43.8874 21.896 44.3194 21.552C44.7594 21.2 45.2754 20.932 45.8674 20.748C46.4674 20.564 47.1194 20.472 47.8234 20.472C48.3514 20.472 48.8474 20.528 49.3114 20.64C49.7754 20.744 50.1994 20.9 50.5834 21.108H54.1234ZM66.6111 20.688V33H64.7991C64.4071 33 64.1591 32.82 64.0551 32.46L63.8511 31.476C63.3471 31.988 62.7911 32.404 62.1831 32.724C61.5751 33.036 60.8591 33.192 60.0351 33.192C59.3631 33.192 58.7671 33.08 58.2471 32.856C57.7351 32.624 57.3031 32.3 56.9511 31.884C56.5991 31.468 56.3311 30.976 56.1471 30.408C55.9711 29.832 55.8831 29.2 55.8831 28.512V20.688H58.8471V28.512C58.8471 29.264 59.0191 29.848 59.3631 30.264C59.7151 30.672 60.2391 30.876 60.9351 30.876C61.4471 30.876 61.9271 30.764 62.3751 30.54C62.8231 30.308 63.2471 29.992 63.6471 29.592V20.688H66.6111ZM77.4819 25.428C77.4819 25.044 77.4259 24.684 77.3139 24.348C77.2099 24.004 77.0499 23.704 76.8339 23.448C76.6179 23.192 76.3419 22.992 76.0059 22.848C75.6779 22.696 75.2939 22.62 74.8539 22.62C73.9979 22.62 73.3219 22.864 72.8259 23.352C72.3379 23.84 72.0259 24.532 71.8899 25.428H77.4819ZM71.8299 27.216C71.8779 27.848 71.9899 28.396 72.1659 28.86C72.3419 29.316 72.5739 29.696 72.8619 30C73.1499 30.296 73.4899 30.52 73.8819 30.672C74.2819 30.816 74.7219 30.888 75.2019 30.888C75.6819 30.888 76.0939 30.832 76.4379 30.72C76.7899 30.608 77.0939 30.484 77.3499 30.348C77.6139 30.212 77.8419 30.088 78.0339 29.976C78.2339 29.864 78.4259 29.808 78.6099 29.808C78.8579 29.808 79.0419 29.9 79.1619 30.084L80.0139 31.164C79.6859 31.548 79.3179 31.872 78.9099 32.136C78.5019 32.392 78.0739 32.6 77.6259 32.76C77.1859 32.912 76.7339 33.02 76.2699 33.084C75.8139 33.148 75.3699 33.18 74.9379 33.18C74.0819 33.18 73.2859 33.04 72.5499 32.76C71.8139 32.472 71.1739 32.052 70.6299 31.5C70.0859 30.94 69.6579 30.252 69.3459 29.436C69.0339 28.612 68.8779 27.66 68.8779 26.58C68.8779 25.74 69.0139 24.952 69.2859 24.216C69.5579 23.472 69.9459 22.828 70.4499 22.284C70.9619 21.732 71.5819 21.296 72.3099 20.976C73.0459 20.656 73.8739 20.496 74.7939 20.496C75.5699 20.496 76.2859 20.62 76.9419 20.868C77.5979 21.116 78.1619 21.48 78.6339 21.96C79.1059 22.432 79.4739 23.016 79.7379 23.712C80.0099 24.4 80.1459 25.188 80.1459 26.076C80.1459 26.524 80.0979 26.828 80.0019 26.988C79.9059 27.14 79.7219 27.216 79.4499 27.216H71.8299ZM96.1382 25.428C96.1382 25.044 96.0822 24.684 95.9702 24.348C95.8662 24.004 95.7062 23.704 95.4902 23.448C95.2742 23.192 94.9982 22.992 94.6622 22.848C94.3342 22.696 93.9502 22.62 93.5102 22.62C92.6542 22.62 91.9782 22.864 91.4822 23.352C90.9942 23.84 90.6822 24.532 90.5462 25.428H96.1382ZM90.4862 27.216C90.5342 27.848 90.6462 28.396 90.8222 28.86C90.9982 29.316 91.2302 29.696 91.5182 30C91.8062 30.296 92.1462 30.52 92.5382 30.672C92.9382 30.816 93.3782 30.888 93.8582 30.888C94.3382 30.888 94.7502 30.832 95.0942 30.72C95.4462 30.608 95.7502 30.484 96.0062 30.348C96.2702 30.212 96.4982 30.088 96.6902 29.976C96.8902 29.864 97.0822 29.808 97.2662 29.808C97.5142 29.808 97.6982 29.9 97.8182 30.084L98.6702 31.164C98.3422 31.548 97.9742 31.872 97.5662 32.136C97.1582 32.392 96.7302 32.6 96.2822 32.76C95.8422 32.912 95.3902 33.02 94.9262 33.084C94.4702 33.148 94.0262 33.18 93.5942 33.18C92.7382 33.18 91.9422 33.04 91.2062 32.76C90.4702 32.472 89.8302 32.052 89.2862 31.5C88.7422 30.94 88.3142 30.252 88.0022 29.436C87.6902 28.612 87.5342 27.66 87.5342 26.58C87.5342 25.74 87.6702 24.952 87.9422 24.216C88.2142 23.472 88.6022 22.828 89.1062 22.284C89.6182 21.732 90.2382 21.296 90.9662 20.976C91.7022 20.656 92.5302 20.496 93.4502 20.496C94.2262 20.496 94.9422 20.62 95.5982 20.868C96.2542 21.116 96.8182 21.48 97.2902 21.96C97.7622 22.432 98.1302 23.016 98.3942 23.712C98.6662 24.4 98.8022 25.188 98.8022 26.076C98.8022 26.524 98.7542 26.828 98.6582 26.988C98.5622 27.14 98.3782 27.216 98.1062 27.216H90.4862ZM111.831 33H108.975C108.759 33 108.583 32.944 108.447 32.832C108.319 32.72 108.211 32.592 108.123 32.448L105.519 28.164C105.479 28.3 105.431 28.428 105.375 28.548C105.327 28.668 105.271 28.78 105.207 28.884L102.903 32.448C102.815 32.584 102.707 32.712 102.579 32.832C102.451 32.944 102.291 33 102.099 33H99.447L103.671 26.652L99.615 20.688H102.471C102.687 20.688 102.847 20.72 102.951 20.784C103.055 20.84 103.147 20.936 103.227 21.072L105.807 25.176C105.895 24.904 106.019 24.636 106.179 24.372L108.255 21.132C108.431 20.836 108.659 20.688 108.939 20.688H111.663L107.619 26.52L111.831 33ZM116.342 29.808C116.678 30.216 117.042 30.504 117.434 30.672C117.834 30.84 118.266 30.924 118.73 30.924C119.178 30.924 119.582 30.84 119.942 30.672C120.302 30.504 120.606 30.248 120.854 29.904C121.11 29.56 121.306 29.128 121.442 28.608C121.578 28.08 121.646 27.46 121.646 26.748C121.646 26.028 121.586 25.42 121.466 24.924C121.354 24.42 121.19 24.012 120.974 23.7C120.758 23.388 120.494 23.16 120.182 23.016C119.878 22.872 119.53 22.8 119.138 22.8C118.522 22.8 117.998 22.932 117.566 23.196C117.134 23.452 116.726 23.816 116.342 24.288V29.808ZM116.186 22.368C116.69 21.8 117.262 21.34 117.902 20.988C118.542 20.636 119.294 20.46 120.158 20.46C120.83 20.46 121.442 20.6 121.994 20.88C122.554 21.16 123.034 21.568 123.434 22.104C123.842 22.632 124.154 23.288 124.37 24.072C124.594 24.848 124.706 25.74 124.706 26.748C124.706 27.668 124.582 28.52 124.334 29.304C124.086 30.088 123.73 30.768 123.266 31.344C122.81 31.92 122.254 32.372 121.598 32.7C120.95 33.02 120.222 33.18 119.414 33.18C118.726 33.18 118.138 33.076 117.65 32.868C117.162 32.652 116.726 32.356 116.342 31.98V37.02H113.378V20.688H115.19C115.574 20.688 115.826 20.868 115.946 21.228L116.186 22.368ZM130.019 15.168V33H127.055V15.168H130.019ZM138.42 20.496C139.332 20.496 140.16 20.644 140.904 20.94C141.656 21.236 142.296 21.656 142.824 22.2C143.36 22.744 143.772 23.408 144.06 24.192C144.348 24.976 144.492 25.852 144.492 26.82C144.492 27.796 144.348 28.676 144.06 29.46C143.772 30.244 143.36 30.912 142.824 31.464C142.296 32.016 141.656 32.44 140.904 32.736C140.16 33.032 139.332 33.18 138.42 33.18C137.5 33.18 136.664 33.032 135.912 32.736C135.16 32.44 134.516 32.016 133.98 31.464C133.452 30.912 133.04 30.244 132.744 29.46C132.456 28.676 132.312 27.796 132.312 26.82C132.312 25.852 132.456 24.976 132.744 24.192C133.04 23.408 133.452 22.744 133.98 22.2C134.516 21.656 135.16 21.236 135.912 20.94C136.664 20.644 137.5 20.496 138.42 20.496ZM138.42 30.9C139.444 30.9 140.2 30.556 140.688 29.868C141.184 29.18 141.432 28.172 141.432 26.844C141.432 25.516 141.184 24.504 140.688 23.808C140.2 23.112 139.444 22.764 138.42 22.764C137.38 22.764 136.608 23.116 136.104 23.82C135.608 24.516 135.36 25.524 135.36 26.844C135.36 28.164 135.608 29.172 136.104 29.868C136.608 30.556 137.38 30.9 138.42 30.9ZM149.549 22.824C149.933 22.088 150.389 21.512 150.917 21.096C151.445 20.672 152.069 20.46 152.789 20.46C153.357 20.46 153.813 20.584 154.157 20.832L153.965 23.052C153.925 23.196 153.865 23.3 153.785 23.364C153.713 23.42 153.613 23.448 153.485 23.448C153.365 23.448 153.185 23.428 152.945 23.388C152.713 23.348 152.485 23.328 152.261 23.328C151.933 23.328 151.641 23.376 151.385 23.472C151.129 23.568 150.897 23.708 150.689 23.892C150.489 24.068 150.309 24.284 150.149 24.54C149.997 24.796 149.853 25.088 149.717 25.416V33H146.753V20.688H148.493C148.797 20.688 149.009 20.744 149.129 20.856C149.249 20.96 149.329 21.152 149.369 21.432L149.549 22.824ZM162.046 27.744C161.19 27.784 160.47 27.86 159.886 27.972C159.302 28.076 158.834 28.212 158.482 28.38C158.13 28.548 157.878 28.744 157.726 28.968C157.574 29.192 157.498 29.436 157.498 29.7C157.498 30.22 157.65 30.592 157.954 30.816C158.266 31.04 158.67 31.152 159.166 31.152C159.774 31.152 160.298 31.044 160.738 30.828C161.186 30.604 161.622 30.268 162.046 29.82V27.744ZM155.254 22.404C156.67 21.108 158.374 20.46 160.366 20.46C161.086 20.46 161.73 20.58 162.298 20.82C162.866 21.052 163.346 21.38 163.738 21.804C164.13 22.22 164.426 22.72 164.626 23.304C164.834 23.888 164.938 24.528 164.938 25.224V33H163.594C163.314 33 163.098 32.96 162.946 32.88C162.794 32.792 162.674 32.62 162.586 32.364L162.322 31.476C162.01 31.756 161.706 32.004 161.41 32.22C161.114 32.428 160.806 32.604 160.486 32.748C160.166 32.892 159.822 33 159.454 33.072C159.094 33.152 158.694 33.192 158.254 33.192C157.734 33.192 157.254 33.124 156.814 32.988C156.374 32.844 155.994 32.632 155.674 32.352C155.354 32.072 155.106 31.724 154.93 31.308C154.754 30.892 154.666 30.408 154.666 29.856C154.666 29.544 154.718 29.236 154.822 28.932C154.926 28.62 155.094 28.324 155.326 28.044C155.566 27.764 155.874 27.5 156.25 27.252C156.626 27.004 157.086 26.788 157.63 26.604C158.182 26.42 158.822 26.272 159.55 26.16C160.278 26.04 161.11 25.968 162.046 25.944V25.224C162.046 24.4 161.87 23.792 161.518 23.4C161.166 23 160.658 22.8 159.994 22.8C159.514 22.8 159.114 22.856 158.794 22.968C158.482 23.08 158.206 23.208 157.966 23.352C157.726 23.488 157.506 23.612 157.306 23.724C157.114 23.836 156.898 23.892 156.658 23.892C156.45 23.892 156.274 23.84 156.13 23.736C155.986 23.624 155.87 23.496 155.782 23.352L155.254 22.404ZM170.502 22.2C170.75 21.952 171.01 21.724 171.282 21.516C171.562 21.3 171.854 21.12 172.158 20.976C172.47 20.824 172.802 20.708 173.154 20.628C173.506 20.54 173.89 20.496 174.306 20.496C174.978 20.496 175.574 20.612 176.094 20.844C176.614 21.068 177.046 21.388 177.39 21.804C177.742 22.212 178.006 22.704 178.182 23.28C178.366 23.848 178.458 24.476 178.458 25.164V33H175.494V25.164C175.494 24.412 175.322 23.832 174.978 23.424C174.634 23.008 174.11 22.8 173.406 22.8C172.894 22.8 172.414 22.916 171.966 23.148C171.518 23.38 171.094 23.696 170.694 24.096V33H167.73V20.688H169.542C169.926 20.688 170.178 20.868 170.298 21.228L170.502 22.2ZM189.005 23.832C188.669 23.424 188.301 23.136 187.901 22.968C187.509 22.8 187.085 22.716 186.629 22.716C186.181 22.716 185.777 22.8 185.417 22.968C185.057 23.136 184.749 23.392 184.493 23.736C184.237 24.072 184.041 24.504 183.905 25.032C183.769 25.552 183.701 26.168 183.701 26.88C183.701 27.6 183.757 28.212 183.869 28.716C183.989 29.212 184.157 29.62 184.373 29.94C184.589 30.252 184.853 30.48 185.165 30.624C185.477 30.76 185.825 30.828 186.209 30.828C186.825 30.828 187.349 30.7 187.781 30.444C188.213 30.188 188.621 29.824 189.005 29.352V23.832ZM191.969 15.168V33H190.157C189.765 33 189.517 32.82 189.413 32.46L189.161 31.272C188.665 31.84 188.093 32.3 187.445 32.652C186.805 33.004 186.057 33.18 185.201 33.18C184.529 33.18 183.913 33.04 183.353 32.76C182.793 32.48 182.309 32.076 181.901 31.548C181.501 31.012 181.189 30.352 180.965 29.568C180.749 28.784 180.641 27.888 180.641 26.88C180.641 25.968 180.765 25.12 181.013 24.336C181.261 23.552 181.617 22.872 182.081 22.296C182.545 21.72 183.101 21.272 183.749 20.952C184.397 20.624 185.125 20.46 185.933 20.46C186.621 20.46 187.209 20.568 187.697 20.784C188.185 21 188.621 21.292 189.005 21.66V15.168H191.969ZM200.342 20.496C201.254 20.496 202.082 20.644 202.826 20.94C203.578 21.236 204.218 21.656 204.746 22.2C205.282 22.744 205.694 23.408 205.982 24.192C206.27 24.976 206.414 25.852 206.414 26.82C206.414 27.796 206.27 28.676 205.982 29.46C205.694 30.244 205.282 30.912 204.746 31.464C204.218 32.016 203.578 32.44 202.826 32.736C202.082 33.032 201.254 33.18 200.342 33.18C199.422 33.18 198.586 33.032 197.834 32.736C197.082 32.44 196.438 32.016 195.902 31.464C195.374 30.912 194.962 30.244 194.666 29.46C194.378 28.676 194.234 27.796 194.234 26.82C194.234 25.852 194.378 24.976 194.666 24.192C194.962 23.408 195.374 22.744 195.902 22.2C196.438 21.656 197.082 21.236 197.834 20.94C198.586 20.644 199.422 20.496 200.342 20.496ZM200.342 30.9C201.366 30.9 202.122 30.556 202.61 29.868C203.106 29.18 203.354 28.172 203.354 26.844C203.354 25.516 203.106 24.504 202.61 23.808C202.122 23.112 201.366 22.764 200.342 22.764C199.302 22.764 198.53 23.116 198.026 23.82C197.53 24.516 197.282 25.524 197.282 26.844C197.282 28.164 197.53 29.172 198.026 29.868C198.53 30.556 199.302 30.9 200.342 30.9Z" fill="black"/>
</svg>
