<svg width="395" height="71" viewBox="0 0 395 71" fill="none" xmlns="http://www.w3.org/2000/svg">
<path d="M381.398 22.5093C382.933 22.6084 384.193 22.3224 385.732 23.5478C380.969 25.1364 375.316 23.6531 371.721 26.4421C378.799 30.3199 386.854 29.0816 395 28.4055C387.515 31.8557 379.017 31.0376 370.468 32.2878C375.875 34.6728 381.37 32.7057 386.355 34.4227C375.1 35.8407 363.655 36.0317 352.054 37.5379C355.543 38.7313 358.98 37.1438 363.301 38.4046C357.244 40.433 351.837 40.327 346.572 41.1319C347.776 42.8633 349.347 44.0175 352.951 44.0344C351.022 44.8384 349.955 45.2828 347.652 46.2426C362.045 45.9881 375.089 47.5375 388.046 46.8033C388.941 48.3252 387.688 48.4544 386.546 48.9235C387.552 49.3394 388.883 48.9199 389.839 50.463C382.067 50.6206 375.518 53.6078 368.184 54.2736C367.93 55.1678 369.649 55.1261 368.814 56.5407C363.299 55.7032 358.663 58.7557 353.597 60.2734C338.383 64.8313 322.556 63.4708 307.067 64.3117C273.984 66.108 240.778 64.9756 207.628 65.4076C197.435 65.5403 187.243 65.6935 177.051 65.8299C175.161 65.8551 173.386 66.0501 171.689 66.8361C169.209 67.9853 166.31 68.2306 163.906 67.0894C160.495 65.4705 157.173 65.716 153.62 66.378C146.438 67.716 138.954 68.0651 131.834 67.3379C127.07 66.8513 122.409 65.921 117.052 66.2644C119.63 67.1065 122.327 66.1915 124.675 67.7714C122.9 69.2351 120.701 68.9848 118.676 68.9823C90.94 68.9483 63.3117 67.5858 35.7833 64.9943C33.593 64.7882 31.3871 64.6268 29.1829 64.5702C22.5504 64.4 18.481 61.1298 14.3253 57.7298C12.6684 56.3742 14.6281 56.0682 14.816 55.3764C10.2752 53.9329 4.64104 55.606 0 52.1187C15.7165 48.9814 30.9337 47.9504 46.3019 47.5492C46.4161 45.4529 45.8031 44.2398 42.9763 44.5981C35.1385 45.5916 27.9625 42.7317 20.3705 42.3051C17.2297 42.1286 16.3654 39.8502 14.5976 38.8703C19.7793 31.6648 9.60695 33.6575 6.74222 31.2083C9.6919 29.2292 12.4161 27.4014 15.1509 25.5664C14.8246 25.0777 14.6075 24.7346 14.3702 24.3999C13.0168 22.4912 7.76111 22.2317 8.98835 19.8956C11.038 15.9942 13.0337 11.6475 18.8173 9.63178C27.9448 6.4506 37.8771 5.91531 47.5185 4.50652C67.2632 1.62145 87.1687 -0.154582 107.334 0.686863C111.414 0.857124 115.318 -0.356913 119.493 0.105934C127.754 1.022 135.82 2.6748 144.417 2.18752C162.208 1.17919 180.095 0.984527 197.903 1.53104C225.423 2.37556 252.939 2.91231 280.474 3.07053C282.277 3.08089 284.69 2.91382 284.732 4.94835C284.774 6.92667 282.348 6.50077 280.841 6.4978C277.535 6.49131 274.944 8.65198 271.512 8.61639C290.034 9.13357 308.555 9.65861 327.078 10.1648C337.26 10.4431 347.442 10.7864 357.628 10.8957C360.977 10.9317 363.504 11.6239 365.436 14.081C354.519 15.5981 343.61 16.0487 332.634 16.5471C349.355 15.9431 364.719 21.4519 381.398 22.5093Z" fill="#303030"/>
<path d="M284.103 8.0043C280.903 7.98774 278.188 7.9743 275.478 7.87289C275.063 7.85738 274.668 7.43567 274 7.04923C275.233 5.18511 277.376 6.0482 278.931 5.56138C289.717 2.18583 300.859 1.4614 312.149 2.34495C319.8 2.94371 327.434 2.01117 335.028 2.37951C340.409 2.64048 345.797 0.683205 351.417 4.4757C354.786 6.74953 361.267 5.44959 366.346 5.80069C368.416 5.94383 370.679 5.52553 372.658 6.89605C370.895 8.83281 368.734 8.65031 366.788 8.67327C353.376 8.83158 339.956 8.74087 326.551 9.0869C321.2 9.22501 316.342 7.30453 311.07 7.21964C302.218 7.07709 293.407 7.48533 284.103 8.0043Z" fill="#39A9A3"/>
<path d="M271.858 67.2857C277.285 67.5253 282.234 67.734 288.527 67.9992C281.353 71.7869 274.739 70.7071 268.606 70.5139C250.63 69.9476 232.665 70.0013 214.69 70.11C213.053 70.1199 211.271 70.4815 209.853 68.5042C230.36 67.9847 250.815 66.3351 271.858 67.2857Z" fill="#39A9A3"/>
<path d="M358.233 64.0087C360.069 63.7394 361.496 62.938 364.44 64.8544C346.35 67.8571 329.432 68.7388 312.406 68.7421C327.356 65.7326 342.63 65.2148 358.233 64.0087Z" fill="#39A9A3"/>
<path d="M293.436 71.0001C292.259 70.9333 291.397 71.0217 290.652 69.875C294.602 68.4702 298.273 67.6688 303.026 69.266C299.732 71.6803 296.606 70.5551 293.436 71.0001Z" fill="#39A9A3"/>
<g filter="url(#filter0_d_449_161)">
<path d="M84.68 20.48C83.7733 20.5333 83.12 20.64 82.72 20.8C82.32 20.96 82.04 21.2667 81.88 21.72C81.7467 22.1733 81.68 22.9067 81.68 23.92V43.76C81.68 44.7733 81.7467 45.5067 81.88 45.96C82.04 46.4133 82.32 46.72 82.72 46.88C83.12 47.04 83.7733 47.1467 84.68 47.2V48C83.3733 47.92 81.3467 47.88 78.6 47.88C75.9067 47.88 73.8133 47.92 72.32 48V47.2C73.2 47.1467 73.84 47.04 74.24 46.88C74.6667 46.72 74.9467 46.4133 75.08 45.96C75.24 45.5067 75.32 44.7733 75.32 43.76V34.16H64.72V43.76C64.72 44.7733 64.7867 45.5067 64.92 45.96C65.08 46.4133 65.36 46.72 65.76 46.88C66.16 47.04 66.8133 47.1467 67.72 47.2V48C66.28 47.92 64.2667 47.88 61.68 47.88C58.8267 47.88 56.72 47.92 55.36 48V47.2C56.24 47.1467 56.88 47.04 57.28 46.88C57.7067 46.72 57.9867 46.4133 58.12 45.96C58.28 45.5067 58.36 44.7733 58.36 43.76V23.92C58.36 22.9067 58.28 22.1733 58.12 21.72C57.9867 21.2667 57.7067 20.96 57.28 20.8C56.88 20.64 56.24 20.5333 55.36 20.48V19.68C56.72 19.76 58.8267 19.8 61.68 19.8C64.2667 19.8 66.28 19.76 67.72 19.68V20.48C66.8133 20.5333 66.16 20.64 65.76 20.8C65.36 20.96 65.08 21.2667 64.92 21.72C64.7867 22.1733 64.72 22.9067 64.72 23.92V33.36H75.32V23.92C75.32 22.9067 75.24 22.1733 75.08 21.72C74.9467 21.2667 74.6667 20.96 74.24 20.8C73.84 20.64 73.2 20.5333 72.32 20.48V19.68C73.8133 19.76 75.9067 19.8 78.6 19.8C81.3467 19.8 83.3733 19.76 84.68 19.68V20.48ZM110.432 44.64C110.779 45.52 111.179 46.16 111.632 46.56C112.086 46.96 112.526 47.1733 112.952 47.2V48C111.352 47.92 109.326 47.88 106.872 47.88C104.152 47.88 102.126 47.92 100.792 48V47.2C101.806 47.1467 102.526 47.0267 102.952 46.84C103.379 46.6267 103.592 46.2667 103.592 45.76C103.592 45.28 103.432 44.64 103.112 43.84L100.712 37.28H91.9922L90.9522 40.04C90.2055 41.96 89.8322 43.44 89.8322 44.48C89.8322 45.4667 90.1255 46.16 90.7122 46.56C91.3255 46.9333 92.2189 47.1467 93.3922 47.2V48C91.5789 47.92 89.9255 47.88 88.4322 47.88C87.2055 47.88 86.1922 47.92 85.3922 48V47.2C86.6989 46.96 87.8455 45.56 88.8322 43L97.9522 19.6C98.2455 19.6267 98.7122 19.64 99.3522 19.64C99.9922 19.64 100.446 19.6267 100.712 19.6L110.432 44.64ZM100.432 36.48L96.4722 25.68L92.3122 36.48H100.432ZM127.491 33.12C130.957 33.3867 133.504 34.1867 135.131 35.52C136.757 36.8533 137.571 38.4267 137.571 40.24C137.571 42.72 136.597 44.64 134.651 46C132.704 47.3333 129.997 48 126.531 48C125.757 48 125.104 47.9867 124.571 47.96C122.811 47.9067 121.091 47.88 119.411 47.88C116.664 47.88 114.611 47.92 113.251 48V47.2C114.131 47.1467 114.771 47.04 115.171 46.88C115.597 46.72 115.877 46.4133 116.011 45.96C116.171 45.5067 116.251 44.7733 116.251 43.76V23.92C116.251 22.9067 116.171 22.1733 116.011 21.72C115.877 21.2667 115.597 20.96 115.171 20.8C114.771 20.64 114.131 20.5333 113.251 20.48V19.68C114.611 19.76 116.637 19.8 119.331 19.8L123.771 19.76C124.304 19.7333 124.917 19.72 125.611 19.72C128.811 19.72 131.251 20.2933 132.931 21.44C134.637 22.5867 135.491 24.1067 135.491 26C135.491 27.5467 134.811 28.9867 133.451 30.32C132.117 31.6533 130.131 32.56 127.491 33.04V33.12ZM125.091 20.48C124.371 20.48 123.837 20.5733 123.491 20.76C123.171 20.9467 122.944 21.28 122.811 21.76C122.677 22.24 122.611 22.96 122.611 23.92V32.96H124.331C126.064 32.96 127.277 32.3733 127.971 31.2C128.664 30 129.011 28.4133 129.011 26.44C129.011 24.44 128.691 22.9467 128.051 21.96C127.437 20.9733 126.451 20.48 125.091 20.48ZM125.371 47.08C129.077 47.08 130.931 44.7467 130.931 40.08C130.931 37.9733 130.397 36.3733 129.331 35.28C128.264 34.1867 126.584 33.64 124.291 33.64H122.611V43.76C122.611 44.72 122.677 45.4267 122.811 45.88C122.944 46.3333 123.197 46.6533 123.571 46.84C123.971 47 124.571 47.08 125.371 47.08ZM152.368 20.48C151.462 20.5333 150.808 20.64 150.408 20.8C150.008 20.96 149.728 21.2667 149.568 21.72C149.435 22.1733 149.368 22.9067 149.368 23.92V43.76C149.368 44.7733 149.435 45.5067 149.568 45.96C149.728 46.4133 150.008 46.72 150.408 46.88C150.808 47.04 151.462 47.1467 152.368 47.2V48C150.928 47.92 148.915 47.88 146.328 47.88C143.475 47.88 141.368 47.92 140.008 48V47.2C140.888 47.1467 141.528 47.04 141.928 46.88C142.355 46.72 142.635 46.4133 142.768 45.96C142.928 45.5067 143.008 44.7733 143.008 43.76V23.92C143.008 22.9067 142.928 22.1733 142.768 21.72C142.635 21.2667 142.355 20.96 141.928 20.8C141.528 20.64 140.888 20.5333 140.008 20.48V19.68C141.368 19.76 143.475 19.8 146.328 19.8C148.915 19.8 150.928 19.76 152.368 19.68V20.48ZM167.648 20.48C166.688 20.5333 165.981 20.64 165.528 20.8C165.101 20.96 164.808 21.2667 164.648 21.72C164.488 22.1733 164.408 22.9067 164.408 23.92V44.24C164.408 45.0933 164.474 45.72 164.608 46.12C164.741 46.4933 164.968 46.7467 165.288 46.88C165.634 47.0133 166.181 47.08 166.928 47.08H168.888C170.701 47.08 172.261 46.2667 173.568 44.64C174.901 43.0133 175.768 40.8533 176.168 38.16H177.088C177.008 39.0667 176.968 40.24 176.968 41.68C176.968 44.24 177.061 46.3467 177.248 48C175.434 47.92 172.381 47.88 168.088 47.88C162.274 47.88 157.928 47.92 155.048 48V47.2C155.928 47.1467 156.568 47.04 156.968 46.88C157.394 46.72 157.674 46.4133 157.808 45.96C157.968 45.5067 158.048 44.7733 158.048 43.76V23.92C158.048 22.9067 157.968 22.1733 157.808 21.72C157.674 21.2667 157.394 20.96 156.968 20.8C156.568 20.64 155.928 20.5333 155.048 20.48V19.68C156.408 19.76 158.514 19.8 161.368 19.8C164.088 19.8 166.181 19.76 167.648 19.68V20.48ZM191.861 20.48C190.954 20.5333 190.301 20.64 189.901 20.8C189.501 20.96 189.221 21.2667 189.061 21.72C188.927 22.1733 188.861 22.9067 188.861 23.92V43.76C188.861 44.7733 188.927 45.5067 189.061 45.96C189.221 46.4133 189.501 46.72 189.901 46.88C190.301 47.04 190.954 47.1467 191.861 47.2V48C190.421 47.92 188.407 47.88 185.821 47.88C182.967 47.88 180.861 47.92 179.501 48V47.2C180.381 47.1467 181.021 47.04 181.421 46.88C181.847 46.72 182.127 46.4133 182.261 45.96C182.421 45.5067 182.501 44.7733 182.501 43.76V23.92C182.501 22.9067 182.421 22.1733 182.261 21.72C182.127 21.2667 181.847 20.96 181.421 20.8C181.021 20.64 180.381 20.5333 179.501 20.48V19.68C180.861 19.76 182.967 19.8 185.821 19.8C188.407 19.8 190.421 19.76 191.861 19.68V20.48ZM206.9 19.68C212.1 19.68 215.993 20.8667 218.58 23.24C221.166 25.5867 222.46 29.0133 222.46 33.52C222.46 36.4267 221.82 38.9733 220.54 41.16C219.286 43.32 217.46 45 215.06 46.2C212.686 47.4 209.846 48 206.54 48L204.06 47.96C202.513 47.9067 201.393 47.88 200.7 47.88C197.953 47.88 195.9 47.92 194.54 48V47.2C195.42 47.1467 196.06 47.04 196.46 46.88C196.886 46.72 197.166 46.4133 197.3 45.96C197.46 45.5067 197.54 44.7733 197.54 43.76V23.92C197.54 22.9067 197.46 22.1733 197.3 21.72C197.166 21.2667 196.886 20.96 196.46 20.8C196.06 20.64 195.42 20.5333 194.54 20.48V19.68C195.66 19.76 197.273 19.8 199.38 19.8H200.62L202.22 19.76C204.406 19.7067 205.966 19.68 206.9 19.68ZM206.86 20.4C206.033 20.4 205.406 20.4933 204.98 20.68C204.58 20.8667 204.3 21.2 204.14 21.68C203.98 22.16 203.9 22.88 203.9 23.84V43.84C203.9 44.8 203.98 45.52 204.14 46C204.3 46.48 204.58 46.8133 204.98 47C205.406 47.1867 206.046 47.28 206.9 47.28C210.126 47.28 212.42 46.16 213.78 43.92C215.14 41.6533 215.82 38.24 215.82 33.68C215.82 29.12 215.113 25.7733 213.7 23.64C212.313 21.48 210.033 20.4 206.86 20.4ZM247.503 44.64C247.849 45.52 248.249 46.16 248.703 46.56C249.156 46.96 249.596 47.1733 250.023 47.2V48C248.423 47.92 246.396 47.88 243.943 47.88C241.223 47.88 239.196 47.92 237.863 48V47.2C238.876 47.1467 239.596 47.0267 240.023 46.84C240.449 46.6267 240.663 46.2667 240.663 45.76C240.663 45.28 240.503 44.64 240.183 43.84L237.783 37.28H229.063L228.023 40.04C227.276 41.96 226.903 43.44 226.903 44.48C226.903 45.4667 227.196 46.16 227.783 46.56C228.396 46.9333 229.289 47.1467 230.463 47.2V48C228.649 47.92 226.996 47.88 225.503 47.88C224.276 47.88 223.263 47.92 222.462 48V47.2C223.769 46.96 224.916 45.56 225.903 43L235.023 19.6C235.316 19.6267 235.783 19.64 236.423 19.64C237.063 19.64 237.516 19.6267 237.783 19.6L247.503 44.64ZM237.503 36.48L233.543 25.68L229.383 36.48H237.503ZM262.681 19.68C267.881 19.68 271.774 20.8667 274.361 23.24C276.948 25.5867 278.241 29.0133 278.241 33.52C278.241 36.4267 277.601 38.9733 276.321 41.16C275.068 43.32 273.241 45 270.841 46.2C268.468 47.4 265.628 48 262.321 48L259.841 47.96C258.294 47.9067 257.174 47.88 256.481 47.88C253.734 47.88 251.681 47.92 250.321 48V47.2C251.201 47.1467 251.841 47.04 252.241 46.88C252.668 46.72 252.948 46.4133 253.081 45.96C253.241 45.5067 253.321 44.7733 253.321 43.76V23.92C253.321 22.9067 253.241 22.1733 253.081 21.72C252.948 21.2667 252.668 20.96 252.241 20.8C251.841 20.64 251.201 20.5333 250.321 20.48V19.68C251.441 19.76 253.054 19.8 255.161 19.8H256.401L258.001 19.76C260.188 19.7067 261.748 19.68 262.681 19.68ZM262.641 20.4C261.814 20.4 261.188 20.4933 260.761 20.68C260.361 20.8667 260.081 21.2 259.921 21.68C259.761 22.16 259.681 22.88 259.681 23.84V43.84C259.681 44.8 259.761 45.52 259.921 46C260.081 46.48 260.361 46.8133 260.761 47C261.188 47.1867 261.828 47.28 262.681 47.28C265.908 47.28 268.201 46.16 269.561 43.92C270.921 41.6533 271.601 38.24 271.601 33.68C271.601 29.12 270.894 25.7733 269.481 23.64C268.094 21.48 265.814 20.4 262.641 20.4ZM302.944 41.92C302.944 44.3733 303.037 46.4 303.224 48C301.411 47.92 298.357 47.88 294.064 47.88C288.251 47.88 283.904 47.92 281.024 48V47.2C281.904 47.1467 282.544 47.04 282.944 46.88C283.371 46.72 283.651 46.4133 283.784 45.96C283.944 45.5067 284.024 44.7733 284.024 43.76V23.92C284.024 22.9067 283.944 22.1733 283.784 21.72C283.651 21.2667 283.371 20.96 282.944 20.8C282.544 20.64 281.904 20.5333 281.024 20.48V19.68C283.904 19.76 288.251 19.8 294.064 19.8C297.984 19.8 300.771 19.76 302.424 19.68C302.237 21.8933 302.144 23.8667 302.144 25.6C302.144 26.7733 302.184 27.68 302.264 28.32H301.344C300.944 25.4667 300.224 23.4667 299.184 22.32C298.144 21.1733 296.677 20.6 294.784 20.6H293.144C292.317 20.6 291.717 20.6667 291.344 20.8C290.971 20.9333 290.717 21.2 290.584 21.6C290.451 21.9733 290.384 22.5867 290.384 23.44V33.36H291.664C293.077 33.36 294.144 32.84 294.864 31.8C295.611 30.76 296.131 29.52 296.424 28.08H297.344C297.264 29.2 297.224 30.4533 297.224 31.84V33.76C297.224 35.12 297.304 37.0133 297.464 39.44H296.544C295.984 35.92 294.357 34.16 291.664 34.16H290.384V44.24C290.384 45.0933 290.451 45.72 290.584 46.12C290.717 46.4933 290.971 46.7467 291.344 46.88C291.717 47.0133 292.317 47.08 293.144 47.08H295.104C296.997 47.08 298.517 46.44 299.664 45.16C300.837 43.8533 301.664 41.6533 302.144 38.56H303.064C302.984 39.44 302.944 40.56 302.944 41.92ZM316.376 19.16C317.762 19.16 318.869 19.2933 319.696 19.56C320.522 19.8267 321.362 20.2133 322.216 20.72C322.509 20.88 322.762 21.0133 322.976 21.12C323.216 21.2267 323.416 21.28 323.576 21.28C323.816 21.28 324.002 21.1467 324.136 20.88C324.269 20.5867 324.376 20.1333 324.456 19.52H325.376C325.242 21.3067 325.176 24.3467 325.176 28.64H324.256C324.149 27.2 323.816 25.8267 323.256 24.52C322.722 23.2133 321.949 22.16 320.936 21.36C319.949 20.5333 318.789 20.12 317.456 20.12C316.149 20.12 315.082 20.4933 314.256 21.24C313.456 21.96 313.056 22.9467 313.056 24.2C313.056 25.1333 313.256 25.9467 313.656 26.64C314.056 27.3333 314.616 27.9733 315.336 28.56C316.056 29.12 317.162 29.8933 318.656 30.88L319.936 31.76C321.509 32.8 322.749 33.7067 323.656 34.48C324.562 35.2533 325.296 36.16 325.856 37.2C326.442 38.2133 326.736 39.4 326.736 40.76C326.736 42.4667 326.296 43.9067 325.416 45.08C324.536 46.2267 323.336 47.0933 321.816 47.68C320.322 48.2667 318.656 48.56 316.816 48.56C315.322 48.56 314.082 48.4267 313.096 48.16C312.109 47.8933 311.202 47.5333 310.376 47.08C309.789 46.7067 309.336 46.52 309.016 46.52C308.776 46.52 308.589 46.6667 308.456 46.96C308.322 47.2267 308.216 47.6667 308.136 48.28H307.216C307.322 46.6 307.376 43 307.376 37.48H308.296C308.482 40.4667 309.149 42.8933 310.296 44.76C311.442 46.6 313.202 47.52 315.576 47.52C317.016 47.52 318.202 47.1333 319.136 46.36C320.069 45.5867 320.536 44.48 320.536 43.04C320.536 41.5467 320.056 40.2667 319.096 39.2C318.136 38.1333 316.616 36.9333 314.536 35.6C312.936 34.56 311.656 33.6533 310.696 32.88C309.736 32.1067 308.949 31.2 308.336 30.16C307.722 29.0933 307.416 27.8667 307.416 26.48C307.416 24.88 307.816 23.5333 308.616 22.44C309.442 21.32 310.536 20.4933 311.896 19.96C313.256 19.4267 314.749 19.16 316.376 19.16Z" fill="#FAFAFA"/>
</g>
<defs>
<filter id="filter0_d_449_161" x="51.36" y="19.1602" width="279.376" height="37.3999" filterUnits="userSpaceOnUse" color-interpolation-filters="sRGB">
<feFlood flood-opacity="0" result="BackgroundImageFix"/>
<feColorMatrix in="SourceAlpha" type="matrix" values="0 0 0 0 0 0 0 0 0 0 0 0 0 0 0 0 0 0 127 0" result="hardAlpha"/>
<feOffset dy="4"/>
<feGaussianBlur stdDeviation="2"/>
<feComposite in2="hardAlpha" operator="out"/>
<feColorMatrix type="matrix" values="0 0 0 0 0 0 0 0 0 0 0 0 0 0 0 0 0 0 0.25 0"/>
<feBlend mode="normal" in2="BackgroundImageFix" result="effect1_dropShadow_449_161"/>
<feBlend mode="normal" in="SourceGraphic" in2="effect1_dropShadow_449_161" result="shape"/>
</filter>
</defs>
</svg>
