<svg width="1110" height="206" viewBox="0 0 1110 206" fill="none" xmlns="http://www.w3.org/2000/svg">
<g clip-path="url(#clip0_444_31)">
<path d="M1004.22 139.581C1004.91 139.358 1005.6 139.135 1006.29 138.913C1006.3 139.3 1006.31 139.688 1006.33 140.076C1003.22 140.024 1000.11 139.928 996.996 139.932C993.644 139.937 990.289 140.037 986.935 140.096C986.856 140.467 986.777 140.837 986.698 141.208C988.656 141.587 990.614 141.966 992.572 142.345C992.538 142.563 992.505 142.781 992.471 143C985.746 143.117 978.653 142.42 972.4 143.582C966.218 144.73 959.945 144.97 953.598 145.27C953.488 145.773 953.379 146.275 953.27 146.778C956.336 147.541 959.403 148.303 963.792 149.395C948.223 149.667 933.616 149.921 919.009 150.176C919.006 150.154 919.003 150.132 919 150.11C922.259 150.165 925.518 150.22 928.777 150.275C928.708 150.642 928.639 151.008 928.571 151.375C923.37 150.851 918.172 150.317 912.967 149.812C911.999 149.719 910.87 149.535 910.033 149.744C897.198 152.942 883.984 151.261 870.909 151.458C864.094 151.56 857.285 151.99 850.47 152.223C834.547 152.769 818.626 153.338 802.699 153.794C793.098 154.068 783.476 154.002 773.886 154.384C769.583 154.555 765.362 155.733 761.054 155.943C756.181 156.18 751.207 156.051 746.364 155.686C743.034 155.435 730.63 155.698 726.566 156.527C725.275 156.79 723.789 156.668 722.391 156.715C712 157.062 701.606 157.631 691.217 157.711C661.599 157.94 631.983 157.9 602.366 158.124C594.75 158.181 587.134 158.989 579.511 159.142C573.404 159.265 567.286 158.903 561.171 158.789C559.478 158.757 557.776 158.839 556.001 159.577C560.746 159.863 565.492 160.148 570.237 160.433C570.082 160.66 569.927 160.886 569.772 161.112C570.983 161.422 572.175 161.953 573.411 161.982C574.807 162.015 576.688 161.131 577.58 161.458C580.687 162.596 583.67 161.947 586.84 161.804C591.879 161.577 596.96 161.739 602.018 161.818C606.683 161.89 611.348 162.278 616.001 162.163C630.864 161.798 645.718 161.053 660.58 160.842C687.91 160.453 715.243 160.351 742.575 160.107C748.415 160.055 754.265 159.782 760.093 159.87C762.542 159.906 766.342 158.434 767.221 161.643C767.31 161.965 772.457 162.293 774.559 161.672C782.009 159.473 789.366 161.169 796.746 161.109C800.338 161.08 803.929 160.989 807.521 160.927C807.545 161.323 807.57 161.72 807.595 162.116C803.2 162.396 798.809 162.699 794.411 162.95C787.904 163.322 781.398 163.728 774.881 163.985C769.399 164.201 763.899 164.162 758.413 164.347C745.505 164.782 732.603 165.325 719.693 165.742C713.06 165.956 706.406 165.864 699.779 166.136C681.78 166.877 663.797 167.841 645.794 168.515C635.198 168.911 624.572 168.827 613.968 169.138C604.073 169.428 594.194 170.093 584.299 170.324C578.393 170.462 572.466 169.872 566.557 169.991C559.444 170.135 552.341 170.93 545.233 171.012C526.325 171.231 507.417 171.204 488.509 171.309C483.082 171.339 477.652 171.55 472.224 171.572C455.954 171.638 439.683 171.661 423.413 171.682C412.09 171.697 400.761 171.49 389.446 171.743C381.848 171.913 374.28 172.975 366.68 173.171C356.571 173.432 346.441 173.101 336.326 173.286C328.821 173.424 321.328 174.021 313.823 174.339C302.311 174.827 290.798 175.347 279.278 175.674C267.848 175.999 256.395 175.911 244.978 176.361C236.057 176.713 227.182 177.657 218.272 178.227C216.475 178.342 214.533 177.666 212.791 177.863C209.932 178.187 207.183 178.927 205.608 179.244C202.763 178.673 200.742 177.91 198.707 177.918C188.312 177.959 177.912 178.238 167.515 178.327C166.078 178.339 164.643 177.758 163.029 176.794C180.32 175.357 197.612 173.921 214.903 172.485C214.89 172.228 214.877 171.972 214.864 171.716C211.469 171.61 208.075 171.504 204.68 171.398C204.694 170.968 204.707 170.539 204.72 170.109C226.235 169.734 247.75 169.358 269.264 168.983C269.289 168.547 269.315 168.112 269.34 167.677C264.728 167.217 260.116 166.758 255.504 166.299C255.504 166.045 255.503 165.792 255.502 165.539C260.731 165.117 265.959 164.694 271.188 164.272C271.187 164.124 271.186 163.976 271.186 163.827C261.322 164 251.458 164.17 241.594 164.344C235.974 164.444 230.329 164.361 224.739 164.699C217.647 165.129 210.605 165.936 203.528 166.502C201.972 166.626 199.287 166.755 198.936 166.309C195.653 162.153 193.258 165.426 191.315 166.471C188.724 166.028 186.723 165.354 184.76 165.413C179.088 165.584 173.434 166.074 167.768 166.395C163.325 166.647 158.608 169.48 154.516 165.482C153.622 164.609 148.851 165.251 145.865 165.288C135.893 165.415 125.375 166.846 116.101 165.38C106.883 163.922 98.6529 166.546 89.9077 165.674C86.0247 165.287 81.6801 166.895 77.4853 167.165C71.2256 167.567 64.7305 165.848 58.3473 167.936C58.9051 167.684 59.4629 167.433 60.0208 167.181C59.9614 166.919 59.9021 166.656 59.8428 166.393C52.1027 167.343 44.3626 168.293 36.6224 169.243C36.4764 168.893 36.3303 168.543 36.1843 168.193C40.5248 167.452 44.8113 166.502 49.2171 166.015C57.9999 165.044 66.8205 164.109 75.6786 163.577C82.3841 163.175 89.1718 163.436 95.9231 163.37C100.13 163.329 104.338 163.229 108.677 162.822C99.5979 159.484 91.3155 155.254 80.2853 154.642C71.9986 154.182 63.7094 153.718 55.4025 153.41C53.5668 153.342 51.637 154.168 49.7766 154.145C47.0933 154.111 44.4338 153.677 41.7641 153.414C41.81 153.038 41.8559 152.661 41.9018 152.284C44.3653 152.07 46.8239 151.825 49.2935 151.651C52.2084 151.447 52.798 150.664 51.2567 148.898C51.0085 148.614 50.3541 148.312 50.4371 148.094C52.0517 143.86 47.3363 144.915 43.9443 145.19C38.8049 145.608 33.7223 146.428 28.5773 146.671C27.0557 146.743 24.3933 145.62 24.0341 144.742C23.3744 143.131 23.2788 141.106 24.2897 139.591C27.3971 134.931 34.2378 134.073 41.6073 134.064C41.6658 133.744 41.7244 133.425 41.7829 133.106C40.8171 132.89 39.8003 132.427 38.8957 132.509C36.8045 132.699 34.7105 133.053 32.7208 133.519C28.7101 134.458 25.3811 134.422 22.1947 132.257C20.9179 131.389 18.0847 131.416 14.5336 130.781C17.4698 129.641 19.8273 128.376 22.5466 127.765C25.538 127.094 28.8623 127.025 32.0415 126.693C31.9427 126.249 31.8438 125.805 31.7449 125.362C29.7805 125.614 27.7743 125.776 25.8607 126.139C22.4289 126.789 19.1944 127.679 18.559 124.158C17.989 121 16.8086 117.892 15.8484 114.592C19.1651 114.095 22.1407 113.648 25.3081 113.173C21.5092 111.367 21.4798 109.918 25.9689 108.838C30.7551 107.687 35.5652 106.576 41.3836 105.208C39.1625 104.876 36.878 104.086 34.9003 104.334C31.0764 104.814 27.3182 106.607 24.6663 103.147C24.3676 102.757 21.2687 102.962 19.6654 103.287C15.4363 104.146 16.9923 102.57 17.4194 101.387C17.5928 100.906 17.8408 100.393 17.7326 99.9272C17.4906 98.8862 17.0461 97.8656 16.6841 96.8367C18.61 96.8951 20.5358 96.9534 20.8027 96.9615C25.4896 94.2945 29.5293 91.9958 33.5689 89.6971C26.1313 92.5033 23.604 88.3024 18.4554 85.8064C22.0143 85.4036 24.4888 84.9384 26.9785 84.8752C35.7965 84.6513 44.5672 84.4393 52.7599 81.8603C53.5677 81.606 55.0115 82.3097 56.1018 82.2259C57.5144 82.1174 58.8684 81.6645 61.0298 81.6385C68.1816 81.8058 74.5513 81.6946 80.921 81.5835C80.9197 81.3929 80.9184 81.2023 80.9172 81.0118C78.9434 80.9631 76.9696 80.9144 74.9958 80.8656C74.9939 80.7216 74.992 80.5776 74.9902 80.4336C76.2851 80.2941 77.5801 80.1545 78.875 80.015C75.3607 79.4767 71.8071 79.4417 68.2792 79.6345C65.9375 79.7625 63.6327 80.2162 61.3114 80.5241C53.7021 80.6569 46.0928 80.7898 38.5216 80.9219C39.4041 76.0165 42.1742 72.863 50.725 73.641C51.2105 73.6852 52.586 72.6026 52.4258 72.4019C51.9627 71.8218 50.9521 71.0413 50.1105 71.0284C47.7464 70.9922 45.3617 71.3961 42.9804 71.4453C41.0724 71.4847 39.1576 71.2592 36.7394 71.1227C42.0299 68.5191 53.4286 71.9623 51.2777 63.573C51.2033 62.8857 51.1264 62.7447 51.0496 62.6037C52.2363 63.4638 53.4229 64.3239 55.1538 65.5785C55.9161 60.4073 56.645 55.4627 57.3739 50.518C57.6899 50.5405 58.0059 50.5629 58.3218 50.5854C58.4023 55.1935 58.4827 59.8015 58.5697 64.7874C63.0182 64.7098 68.3813 64.8187 73.6804 64.4727C80.4033 64.0338 87.049 63.0246 93.7736 62.6238C103.852 62.0232 113.974 61.7676 124.072 61.3083C131.174 60.9852 138.266 60.5484 145.366 60.1987C150.029 59.969 154.737 59.9833 159.347 59.5363C161.741 59.3041 163.888 57.9459 166.28 57.7213C174.976 56.9046 183.734 56.3855 192.457 55.6911C203.887 54.7813 215.283 53.6499 226.736 52.926C234.093 52.4611 241.53 52.6363 248.921 52.3768C254.017 52.1978 259.091 51.7022 264.187 51.4809C266.017 51.4014 267.88 51.7104 269.692 52.6724C253.472 53.5367 237.253 54.401 221.033 55.2653C221.054 55.659 221.075 56.0526 221.096 56.4462C270.745 54.0199 320.37 51.0506 370.112 50.7653C370.131 51.2276 370.15 51.69 370.17 52.1524C345.344 52.5857 320.519 53.019 295.693 53.4524C295.702 53.9674 295.711 54.4824 295.72 54.9973C317.769 54.6125 339.818 54.2276 361.868 53.8427C361.881 54.1511 361.894 54.4595 361.907 54.7678C353.472 55.145 345.037 55.5222 336.602 55.8994C336.625 56.4939 336.648 57.0884 336.672 57.6829C347.187 57.4994 357.702 57.3207 368.217 57.1311C381.967 56.8831 395.687 56.7951 409.369 57.8287C412.759 58.0848 416.402 56.9856 419.894 57.0381C430.127 57.1918 440.337 57.7147 450.57 57.8705C454.061 57.9237 457.6 57.0792 461.111 57.0609C468.229 57.0239 475.34 57.3325 482.459 57.387C494.135 57.4762 505.814 57.505 517.494 57.5008C522.521 57.499 527.571 57.5095 532.575 57.2183C536.445 56.993 540.259 56.3066 544.098 55.8253C544.08 55.4876 544.061 55.15 544.042 54.8123C533.312 54.9996 522.582 55.2879 511.854 55.3461C500.891 55.4055 489.931 55.2254 478.969 55.1753C467.267 55.1218 455.565 55.0056 443.861 55.0869C432.411 55.1665 420.96 55.4605 409.51 55.6604C409.506 55.0944 409.502 54.5284 409.498 53.9625C461.464 53.6433 513.431 53.3242 565.397 53.0051C565.432 52.6255 565.467 52.246 565.503 51.8664C559.192 51.6876 552.881 51.5088 546.746 51.0151C546.922 50.7001 546.879 50.7316 546.879 50.7316C588.265 50.8529 629.651 50.9743 671.371 51.0966C671.198 51.841 671.064 52.4138 670.721 53.8843C673.517 53.1221 675.738 52.2784 678.134 51.9061C687.398 50.4664 696.782 49.6492 705.832 52.0226C711.183 53.426 718.81 53.2463 720.986 51.6205C723.456 52.1355 725.607 52.9503 727.802 52.9747C734.988 53.0547 742.192 52.7625 749.384 52.7793C754.284 52.7906 759.171 53.2124 764.071 53.2122C771.054 53.2119 778.043 52.9933 785.029 52.867C786.03 52.8489 787.031 52.8228 788.032 52.8053C798.675 52.6188 809.318 52.3908 819.961 52.2729C823.244 52.2365 827.147 51.2527 829.16 53.9773C829.322 54.1956 830.234 54.314 830.771 54.2804C838.204 53.8149 845.626 53.0584 853.064 52.9086C858.482 52.7994 863.92 53.4796 869.513 54.4111C864.058 54.9504 858.603 55.4896 853.148 56.0288C853.111 56.2396 853.074 56.4504 853.037 56.6612C857.054 56.8542 863.017 56.1181 864.638 57.4538C867.184 59.553 874.181 56.7551 873.203 60.1473C876.254 59.8601 879.177 59.4135 882.114 59.3414C890.359 59.139 898.611 59.0481 906.858 59.0225C908.298 59.018 909.728 59.5446 911.162 59.826C910.956 60.3593 910.75 60.8926 910.544 61.4258C899.936 61.611 889.328 61.7962 878.72 61.9813C878.787 62.2423 878.854 62.5033 878.922 62.7643C887.214 63.4893 895.469 64.5403 903.812 64.832C910.03 65.0494 916.395 63.9262 922.633 64.0782C927.092 64.1868 931.711 65.0908 935.729 66.305C937.441 66.8227 939.079 69.2462 938.545 70.441C936.76 74.4308 941.373 73.5323 944.075 73.3552C948.847 73.0423 953.589 72.3215 958.264 71.5669C964.743 70.5208 967.663 71.8664 967.541 76.7366C963.212 74.1741 958.999 74.2686 954.992 76.6632C967.791 80.9205 980.26 85.8799 995.953 86.0481C995.8 86.3649 995.648 86.6817 995.495 86.9984C992.416 87.0522 989.338 87.1059 986.259 87.1597C986.233 87.3493 986.207 87.539 986.181 87.7286C994.424 89.1103 1002.54 91.0121 1010.94 91.7393C1021.03 92.6117 1031.37 92.4337 1041.58 92.8346C1043.32 92.903 1046.03 93.3125 1046.52 94.0414C1050.86 100.542 1060.18 101.07 1069.47 101.498C1080.54 102.01 1091.65 102.263 1102.75 102.629C1102.9 103.096 1103.04 103.562 1103.19 104.029C1099.63 104.683 1096.12 105.643 1092.49 105.929C1084.63 106.549 1076.59 106.447 1068.85 107.407C1065.18 107.861 1060.07 109.675 1059.03 111.572C1056.25 116.627 1049.82 118.099 1043.17 119.735C1043.36 120.719 1043.52 121.57 1043.73 122.643C1044.72 122.432 1045.84 121.957 1046.83 122.042C1047.87 122.132 1048.78 122.757 1049.75 123.148C1049.02 123.691 1048.3 124.235 1047.57 124.778C1044.9 122.959 1042.56 124.873 1040.06 125.091C1036.41 125.408 1032.6 126.002 1029.09 125.654C1024.94 125.241 1023.76 127.131 1021.24 128.203C1016.47 130.228 1011.33 132.295 1005.89 133.19C1000.85 134.018 997.189 135.291 994.087 138.396C997.451 138.432 1000.4 138.463 1003.15 138.81C1002.9 139.295 1002.85 139.464 1002.79 139.633C1003.27 139.616 1003.75 139.599 1004.22 139.581ZM384.63 164.342C382.473 164.769 380.025 165.823 378.21 165.513C370.891 164.262 363.789 165.199 356.625 165.963C355.996 166.03 355.462 166.486 354.884 166.761C355.504 166.825 356.126 166.953 356.744 166.942C362.778 166.83 368.818 166.777 374.843 166.535C378.213 166.4 381.559 165.942 385.883 165.755C391.501 165.852 397.118 165.998 402.738 165.983C403.431 165.981 404.142 165.12 404.844 164.658C403.99 164.621 403.135 164.541 402.281 164.554C396.488 164.637 390.695 164.739 384.63 164.342ZM856.756 57.9688C856.34 58.0593 855.924 58.1497 855.363 58.8912C856.15 59.28 856.937 59.6687 858.606 60.4927C852.998 60.4271 849.69 64.1562 844.434 61.6699C842.901 60.9449 839.884 60.929 837.806 61.2611C834.154 61.8448 830.702 62.9474 827.016 63.8706C833.167 65.3977 863.994 62.8443 865.556 61.2743C862.631 60.2612 859.756 59.2656 856.756 57.9688ZM545.028 62.8416C544.853 62.7664 544.679 62.6913 545.031 62.1789C544.565 60.1101 542.553 59.8113 539.685 60.3318C533.853 61.3904 528.028 62.474 522.145 63.4019C519.36 63.8411 516.349 64.3549 513.614 64.1239C505.935 63.4757 501.443 63.7594 493.247 66.1888C509.462 65.9058 525.387 65.6278 541.771 65.3418C542.793 65.7277 544.623 66.4183 546.453 67.1089C546.704 66.8565 546.956 66.604 547.207 66.3516C546.18 66.0476 545.153 65.7437 542.532 64.9676C550.205 64.8337 556.054 64.7316 561.903 64.6295C561.947 64.3656 561.991 64.1017 562.035 63.8379C556.529 63.5903 551.023 63.3428 545.028 62.8416ZM624.922 66.8927C623.697 65.529 623.654 63.7019 619.233 64.5894C615.678 65.3031 611.247 65.1136 607.619 64.4675C605.426 64.077 604.022 62.0503 602.263 60.7587C604.13 59.9974 605.996 59.2361 607.863 58.4748C608.163 58.9094 608.463 59.3441 608.763 59.7787C607.284 60.0101 605.806 60.2415 604.328 60.4728C610.124 61.213 616.18 60.9531 621.728 61.8486C627.535 62.786 632.359 59.6311 637.917 60.9107C638.297 60.9981 639.276 60.0368 639.715 60.1137C641.89 60.4946 642.493 60.1522 642.087 58.1407C644.747 58.3748 647.212 58.5918 649.678 58.8088C649.575 59.0915 649.473 59.3742 649.371 59.6569C647.721 59.6857 646.071 59.7145 644.421 59.7433C648.29 60.2899 651.885 63.5272 656.011 60.3879C659.537 62.398 667.304 61.1244 671.306 57.6433C676.008 59.4986 680.976 61.702 686.524 58.3628C686.709 58.2518 687.474 58.5172 687.969 58.6071C685.678 62.0996 689.97 59.2382 690.921 59.6894C692.395 60.388 694.376 60.7163 696.213 61.0612C697.377 61.2798 698.72 61.4211 699.895 61.2814C701.891 61.0442 703.79 60.4625 705.785 60.2192C706.686 60.1094 708.521 60.6645 708.576 60.5805C710.127 58.2392 711.141 59.672 712.572 60.619C713.668 61.344 715.235 61.791 715.97 62.1002C717.062 60.9875 717.834 59.4333 718.752 59.3891C725.048 59.0859 731.609 58.5589 735.583 61.7146C736.838 60.7844 737.878 59.263 739.316 59.0817C744.43 58.437 749.712 58.3836 754.869 57.8494C759.955 57.3225 764.967 56.4838 770.012 55.7819C769.874 55.1453 769.736 54.5087 769.598 53.8722C753.694 54.1498 737.79 54.5236 721.886 54.6753C708.557 54.8024 695.23 54.6394 681.9 54.6621C670.363 54.6818 658.823 54.7259 647.286 54.896C645.104 54.9281 642.391 56.3043 640.844 55.8564C634.727 54.0859 634.862 53.9083 629.78 55.0688C629.641 54.9685 629.502 54.8681 628.948 54.1728C601.495 54.652 574.042 55.1312 545.698 55.6259C547.05 55.9424 547.669 56.2123 548.3 56.2157C554.166 56.2472 560.036 56.3231 565.901 56.2103C574.415 56.0467 582.924 55.7288 591.436 55.4943C594.555 55.4084 597.684 55.3647 598.115 57.5727C596.765 58.0882 595.869 58.4307 594.972 58.7732C596.445 59.184 597.919 59.5948 600.311 60.2618C590.394 61.4984 581.188 57.9492 573.406 60.186C575.634 61.1742 578.025 62.2352 579.689 63.1946C579.445 63.2299 579.201 63.2652 577.887 63.2891C574.698 63.3447 571.508 63.4004 568.318 63.4561C568.284 63.763 568.25 64.07 568.216 64.3769C570.176 64.8367 572.136 65.2965 574.096 65.7562C571.875 69.2646 576.171 67.9695 578.154 67.6793C584.591 66.7371 590.969 67.9444 597.659 67.3795C605.046 66.7557 613.624 67.66 621.699 67.6574C622.958 67.657 624.236 66.9096 626.518 66.8619C634.924 67.3309 643.329 67.7998 652.904 68.3341C647.64 66.3011 643.761 64.8032 641.47 63.9189C636.794 64.0005 633.406 64.0597 629.958 64.1198C630.344 64.7128 630.672 65.2187 631.024 65.7604C628.978 66.0554 627.264 66.3025 624.922 66.8927ZM378.853 63.6833C347.159 64.5355 315.464 65.3878 283.77 66.2401C283.677 66.7781 283.584 67.3161 283.491 67.8541C285.314 68.1803 287.166 68.8529 288.954 68.775C298.63 68.3531 308.28 67.5413 317.958 67.2595C327.595 66.9789 337.253 67.2232 346.902 67.1332C357.909 67.0305 368.516 64.2673 380.075 66.453C386.675 67.7013 394.784 65.995 401.72 65.644C401.687 65.7148 401.432 66.2628 400.987 67.2183C408.551 66.5922 415.55 66.0129 422.549 65.4336C422.525 65.1266 422.501 64.8197 422.477 64.5127C417.193 64.0915 411.926 63.3771 406.622 63.315C397.77 63.2113 388.895 63.525 378.853 63.6833ZM459.489 63.034C451.099 63.4327 442.219 62.6199 435.466 67.3983C453.535 67.0829 471.605 66.7675 489.674 66.4521C489.751 65.9187 489.829 65.3852 489.906 64.8518C480.158 64.2391 470.409 63.6264 459.489 63.034ZM432.432 167.774C416.466 168.053 400.501 168.332 384.535 168.61C384.539 168.897 384.543 169.185 384.547 169.472C408.209 169.456 431.87 169.441 455.532 169.426C455.551 168.848 455.57 168.27 455.59 167.692C448.271 167.712 440.952 167.733 432.432 167.774ZM612.122 164.287C609.837 164.918 606.313 166.468 605.471 166.029C600.826 163.605 596.595 166.646 592.298 165.935C597.556 168.307 610.786 167.838 617.444 164.405C614.491 164.149 612.993 164.019 612.122 164.287ZM55.9183 68.566C63.8144 68.1758 71.9571 69.2702 79.5768 67.1633C71.569 66.8109 63.6339 66.9393 55.7014 67.1384C55.4734 67.1442 55.2732 67.8994 55.9183 68.566ZM592.809 53.2188C600.034 53.0927 607.259 52.9666 614.484 52.8404C614.456 52.571 614.428 52.3015 614.401 52.032C603.618 52.2202 592.836 52.4085 582.053 52.5967C582.068 52.8664 582.083 53.136 582.098 53.4057C585.281 53.3502 588.465 53.2946 592.809 53.2188ZM633.014 166.535C635.551 166.491 638.089 166.447 640.626 166.403C640.6 166.055 640.575 165.708 640.549 165.361C637.073 165.422 633.596 165.482 629.894 165.547C630.256 164.859 630.564 164.273 631.33 162.82C628.241 163.861 626.248 164.533 625.47 164.795C622.691 164.844 620.652 164.88 618.614 164.915C618.608 165.393 618.602 165.87 618.597 166.348C623.032 166.417 627.468 166.486 633.014 166.535ZM705.624 163.759C710.914 163.667 716.204 163.575 721.494 163.482C721.462 163.095 721.43 162.707 721.397 162.319C715.054 162.43 708.711 162.541 702.369 162.651C702.307 162.877 702.245 163.102 702.184 163.327C702.954 163.477 703.725 163.627 705.624 163.759ZM854.456 58.1391C849.653 58.2229 844.85 58.3068 839.13 58.4066C840.249 57.4929 840.755 57.0791 841.476 56.4907C839.776 56.5907 838.313 56.6768 836.85 56.7629C838.19 58.2224 839.944 59.2663 841.767 59.2954C846.117 59.3648 850.499 58.9553 854.456 58.1391ZM77.3782 71.1016C70.0805 70.0488 62.7889 69.6811 55.5194 71.5981C62.4823 71.4765 69.4451 71.355 77.3782 71.1016Z" fill="#D41F48"/>
<path d="M454.08 187.871C462.274 187.921 470.472 187.931 478.663 188.038C483.569 188.102 488.469 188.303 493.367 188.474C497.648 188.624 501.918 188.9 506.203 188.979C521.015 189.254 535.827 189.569 550.648 189.666C559.475 189.725 568.319 189.319 577.153 189.276C591.095 189.208 605.034 189.305 618.975 189.261C625.508 189.24 632.046 188.951 638.576 188.964C645.28 188.977 651.975 189.211 658.843 190.081C655.877 190.381 652.906 190.926 649.946 190.936C642.432 190.961 634.926 190.65 627.411 190.647C609.994 190.64 592.568 190.851 575.155 190.752C562.314 190.678 549.493 190.093 536.651 190.043C528.806 190.013 520.933 190.785 513.083 190.792C505.045 190.799 497.024 190.25 488.986 190.061C480.907 189.871 472.813 189.845 464.729 189.713C451.318 189.493 437.783 188.384 424.54 189.28C413.77 190.009 403.572 188.675 393.094 188.719C386.782 188.745 380.474 188.452 374.165 188.534C371.143 188.574 368.14 189.262 365.101 189.463C355.073 190.123 345.007 190.552 335.004 191.347C327.423 191.95 319.944 193.119 312.367 193.767C306.968 194.228 301.463 194.113 296.04 194.484C286.484 195.139 276.969 196.083 267.406 196.681C261.981 197.021 256.496 196.916 251.037 197.011C251.034 196.626 251.031 196.24 251.028 195.854C281.652 193.656 312.276 191.457 342.9 189.258C342.852 188.949 342.804 188.64 342.756 188.33C335.971 188.089 329.185 187.848 322.399 187.607C322.353 187.268 322.307 186.928 322.261 186.589C326.397 186.395 330.583 185.867 334.659 186.066C351.961 186.913 369.185 187.533 386.588 185.928C398.855 184.796 411.28 184.42 423.631 183.677C427.899 183.42 432.155 183.073 436.416 182.768C436.538 183.096 436.66 183.424 436.782 183.752C435.894 184.379 435.006 185.006 434.603 185.29C433.136 184.757 431.945 183.929 430.928 184.015C422.007 184.771 413.117 185.69 404.207 186.891C424.151 188.748 444.178 186.332 464.224 186.715C461.044 186.867 457.864 187.018 454.734 187.467C454.874 187.595 454.964 187.425 455.054 187.255C454.73 187.46 454.405 187.666 454.08 187.871Z" fill="#39A9A3"/>
<path d="M160.286 45.7596C165.023 46.1507 169.177 46.9131 173.325 46.8567C177.919 46.7942 182.506 45.9796 187.098 45.5008C188.039 45.4027 188.989 45.3413 190.476 45.2181C188.228 46.5529 186.412 47.631 185.278 48.304C181.463 48.5258 178.111 48.8473 174.757 48.8938C160.437 49.0923 146.113 49.1001 131.796 49.4001C123.908 49.5654 116.03 50.148 108.152 50.5858C97.0706 51.2017 86.0011 52.0192 74.9073 52.337C73.0705 52.3896 70.7246 50.495 69.4244 49.1824C68.7959 48.5478 69.8597 46.3489 70.4824 46.2872C72.6414 46.0733 75.1943 46.1592 77.1403 46.7257C81.812 48.0855 86.0323 48.5513 91.3146 47.2949C94.6895 46.4922 99.039 47.5155 102.939 47.4129C120.86 46.9419 138.777 46.3621 156.696 45.8239C157.696 45.7938 158.698 45.7873 160.286 45.7596Z" fill="#39A9A3"/>
<path d="M552.606 173.182C562.826 173.248 572.519 173.527 582.199 173.324C588.432 173.194 595.25 174.194 600.589 173.387C610.374 171.909 619.986 172.651 629.606 171.937C637.944 171.317 646.42 171.544 655.49 171.386C654.964 171.741 654.251 172.637 653.523 172.649C642.44 172.839 631.338 172.684 620.275 173.102C613.793 173.347 607.379 174.494 600.919 175.168C598.959 175.373 596.947 175.388 594.957 175.432C589.728 175.546 584.49 175.535 579.271 175.753C574.988 175.931 570.731 176.398 566.455 176.684C556.072 177.378 545.697 178.157 535.296 178.687C523.657 179.279 511.991 179.605 500.341 180.104C493.349 180.403 486.347 180.696 479.386 181.215C475.166 181.53 470.961 182.849 465.884 180.253C494.776 178.561 522.612 176.931 552.038 175.208C550.624 174.179 549.845 173.611 549.334 173.239C549.245 173.241 550.659 173.216 552.606 173.182Z" fill="#39A9A3"/>
<path d="M779.971 49.5553C776.763 50.647 773.032 48.4331 770.637 50.8488C767.366 47.3839 762.192 50.175 758.104 49.8453C748.972 49.1088 739.479 50.0475 730.144 50.0083C724.357 49.984 718.591 49.4181 712.816 49.0953C712.845 48.7687 712.873 48.442 712.902 48.1154C749.12 47.4832 785.338 46.851 821.934 46.2122C819.095 48.8792 791.605 50.746 779.971 49.5553Z" fill="#39A9A3"/>
<path d="M314.889 50.7515C312.246 51.0942 310.104 51.3683 307.955 51.4142C297.779 51.6318 287.601 51.8096 277.423 51.9353C276.18 51.9507 274.935 51.5666 273.82 50.9107C296.213 49.8971 318.607 48.2619 340.997 48.0456C363.157 47.8316 385.48 46.23 407.571 47.9515C407.559 48.2907 407.547 48.6299 407.535 48.9691C376.819 49.5053 346.103 50.0414 314.889 50.7515Z" fill="#39A9A3"/>
<path d="M670.172 175.629C660.016 176.303 650.457 177.17 640.86 177.577C629.647 178.052 618.398 178.08 607.17 178.399C603.483 178.504 599.814 178.949 596.128 179.17C592.181 179.406 588.224 179.562 584.271 179.752C584.224 179.241 584.176 178.729 584.129 178.218C621.765 176.626 659.4 175.033 697.036 173.441C697.087 173.922 697.138 174.403 697.189 174.884C688.377 175.129 679.565 175.374 670.172 175.629Z" fill="#39A9A3"/>
<path d="M97.4957 24.1753C97.8665 21.1365 98.936 18.8026 104.547 18.9816C107.809 19.0857 110.696 19.8546 110.466 22.042C110.308 23.5462 108.963 25.4261 107.137 26.3688C104.559 27.6992 101.088 28.2323 98.9649 25.6253C98.6185 25.2 98.0064 24.8611 97.4957 24.1753Z" fill="#39A9A3"/>
<path d="M546.946 50.6855C538.251 50.9035 529.533 51.2206 520.814 51.3385C515.165 51.4148 509.515 51.1023 503.864 51.139C495.629 51.1924 487.393 51.4033 479.157 51.547C479.171 50.9443 479.185 50.3415 479.199 49.7387C501.466 49.954 523.732 50.1692 546.439 50.558C546.879 50.7316 546.922 50.7001 546.946 50.6855Z" fill="#39A9A3"/>
<path d="M102.627 60.2666C93.9557 60.418 85.8585 60.5594 77.7614 60.7007C77.7482 60.3701 77.735 60.0396 77.7218 59.709C94.7282 59.4121 111.735 59.1153 128.741 58.8184C128.781 59.0033 128.821 59.1882 128.861 59.3731C120.307 59.6676 111.754 59.9621 102.627 60.2666Z" fill="#39A9A3"/>
<path d="M503.835 174.798C498.444 175.173 493.594 175.551 488.08 175.98C491.797 172.986 511.285 172.394 519.646 175.081C514.556 174.988 509.465 174.894 503.835 174.798Z" fill="#39A9A3"/>
<path d="M15.9298 92.1911C16.2643 92.6339 16.3958 92.8146 16.5273 92.9953C15.8953 92.9368 14.8482 93.0002 14.7009 92.7992C13.9276 91.7442 13.3819 90.6222 12.8044 89.6067C9.85985 89.6581 7.38142 89.7014 4.90299 89.7446C4.80121 89.4185 4.69943 89.0923 4.59764 88.7662C6.51711 88.0559 8.38907 86.8588 10.3685 86.7626C12.6722 86.6506 15.5925 87.1535 17.1987 88.0882C17.9611 88.5319 16.2936 90.5979 15.9298 92.1911Z" fill="#39A9A3"/>
<path d="M364.276 193.895C362.262 194.229 360.709 194.405 359.156 194.581C359.047 194.113 358.939 193.646 358.83 193.179C366.011 192.469 373.192 191.76 380.373 191.051C380.495 191.582 380.616 192.114 380.738 192.645C375.404 193.009 370.071 193.373 364.276 193.895Z" fill="#39A9A3"/>
<path d="M445.224 182.499C451.804 181.756 458.383 181.013 464.962 180.27C465.093 180.802 465.224 181.334 465.354 181.866C459.435 183.471 452.965 182.894 446.133 182.813C445.503 182.701 445.364 182.6 445.224 182.499Z" fill="#39A9A3"/>
<path d="M852.352 48.6226C856.875 45.5631 861.173 48.0698 865.751 48.0372C865.707 48.4918 865.664 48.9464 865.62 49.4009C861.319 49.2094 857.019 49.0179 852.352 48.6226Z" fill="#39A9A3"/>
<path d="M945.405 59.8615C947.044 60.3978 948.216 60.9739 949.389 61.55C949.253 61.8599 949.116 62.1699 948.98 62.4798C943.242 61.9401 937.503 61.4003 931.765 60.8606C931.793 60.6171 931.821 60.3735 931.849 60.1299C936.213 60.0537 940.576 59.9776 945.405 59.8615Z" fill="#39A9A3"/>
<path d="M445.831 182.965C442.767 185.225 440.537 183.889 436.895 181.66C440.448 182.07 442.383 182.294 444.771 182.508C445.364 182.6 445.503 182.701 445.831 182.965Z" fill="#39A9A3"/>
<path d="M50.6652 59.6278C50.8364 58.7972 50.6521 58.1823 50.4677 57.5674C50.9248 57.5159 51.3819 57.4643 51.839 57.4128C52.2912 59.0371 52.7434 60.6614 53.1956 62.2857C52.527 62.3723 51.8584 62.4589 51.1898 62.5455C50.8964 61.6448 50.603 60.7442 50.6652 59.6278Z" fill="#39A9A3"/>
<path d="M51.2269 63.2495C50.9685 63.2048 50.7625 62.9374 50.8028 62.6369C51.1258 62.7447 51.2025 62.8857 51.2269 63.2495Z" fill="#39A9A3"/>
<path d="M60.7341 80.7662C61.3282 80.7346 61.5171 81.0346 61.4539 81.5228C60.9108 81.5067 60.6199 81.3022 60.7341 80.7662Z" fill="#39A9A3"/>
<path d="M587.632 62.9565C587.231 63.1115 587.035 63.1044 586.84 63.1099C584.927 63.1635 583.015 63.2192 581.103 63.2743C581.261 62.6246 581.419 61.9748 581.577 61.3251C583.62 61.5901 585.662 61.855 587.956 62.2938C588.084 62.5785 587.961 62.6894 587.632 62.9565Z" fill="#39A9A3"/>
<path d="M629.968 55.2296C628.979 55.6995 627.811 56.0252 626.605 56.2773C626.531 56.2927 626.159 55.7256 625.926 55.4295C626.766 55.2329 627.607 55.0363 628.905 54.8038C629.502 54.8682 629.641 54.9685 629.968 55.2296Z" fill="#39A9A3"/>
<path d="M601.424 63.2554C601.767 63.6633 601.843 64.1868 601.92 64.7102C601.533 64.5021 601.146 64.294 600.71 63.8588C600.826 63.5448 600.992 63.4579 601.424 63.2554Z" fill="#39A9A3"/>
<path d="M580.052 63.2454C579.968 63.4014 579.52 63.5066 579.014 63.4562C579.201 63.2653 579.445 63.23 580.052 63.2454Z" fill="#39A9A3"/>
<path d="M535.431 62.3975C537.373 62.2223 538.786 62.0534 540.209 61.9862C540.284 61.9827 540.64 63.2235 540.526 63.2483C539.152 63.5467 537.668 63.9592 536.304 63.8705C534.845 63.7756 533.482 63.179 532.359 62.3393C533.207 62.3678 534.056 62.3963 535.431 62.3975Z" fill="#39A9A3"/>
<path d="M545.272 62.9685C544.829 63.2888 544.142 63.4824 543.454 63.6759C543.626 63.4232 543.798 63.1705 544.237 62.767C544.679 62.6914 544.853 62.7665 545.272 62.9685Z" fill="#39A9A3"/>
</g>
<path d="M80.2162 143.76C82.1762 143.573 83.7862 142.99 85.0462 142.01C86.3528 141.077 87.3328 139.49 87.9862 137.25C88.6862 135.057 89.0362 132.047 89.0362 128.22V89.86C89.0362 88.0867 88.8962 86.8033 88.6162 86.01C88.3828 85.2167 87.8928 84.68 87.1462 84.4C86.4462 84.12 85.3262 83.9333 83.7862 83.84V82.44C86.1195 82.58 89.6428 82.65 94.3562 82.65C99.1628 82.65 102.85 82.58 105.416 82.44V83.84C103.83 83.9333 102.686 84.12 101.986 84.4C101.286 84.68 100.796 85.2167 100.516 86.01C100.283 86.8033 100.166 88.0867 100.166 89.86V115.48V119.75C100.166 126.33 99.7695 130.997 98.9762 133.75C97.9962 137.157 95.8962 139.91 92.6762 142.01C89.5028 144.11 85.3495 145.16 80.2162 145.16V143.76ZM131.136 81.46C136.082 81.46 140.399 82.4633 144.086 84.47C147.819 86.4767 150.712 89.3933 152.766 93.22C154.819 97 155.846 101.527 155.846 106.8C155.846 111.933 154.796 116.483 152.696 120.45C150.596 124.417 147.656 127.497 143.876 129.69C140.142 131.883 135.872 132.98 131.066 132.98C126.119 132.98 121.779 131.977 118.046 129.97C114.359 127.963 111.489 125.07 109.436 121.29C107.382 117.463 106.356 112.913 106.356 107.64C106.356 102.507 107.406 97.9567 109.506 93.99C111.606 90.0233 114.522 86.9433 118.256 84.75C122.036 82.5567 126.329 81.46 131.136 81.46ZM130.856 82.72C128.289 82.72 126.026 83.77 124.066 85.87C122.106 87.9233 120.589 90.8167 119.516 94.55C118.489 98.2833 117.976 102.553 117.976 107.36C117.976 112.213 118.559 116.483 119.726 120.17C120.939 123.857 122.549 126.703 124.556 128.71C126.609 130.717 128.872 131.72 131.346 131.72C133.912 131.72 136.176 130.693 138.136 128.64C140.096 126.54 141.589 123.623 142.616 119.89C143.689 116.157 144.226 111.887 144.226 107.08C144.226 102.227 143.619 97.9567 142.406 94.27C141.239 90.5833 139.629 87.7367 137.576 85.73C135.569 83.7233 133.329 82.72 130.856 82.72ZM175.234 81.53C177.66 81.53 179.597 81.7633 181.044 82.23C182.49 82.6967 183.96 83.3733 185.454 84.26C185.967 84.54 186.41 84.7733 186.784 84.96C187.204 85.1467 187.554 85.24 187.834 85.24C188.254 85.24 188.58 85.0067 188.814 84.54C189.047 84.0267 189.234 83.2333 189.374 82.16H190.984C190.75 85.2867 190.634 90.6067 190.634 98.12H189.024C188.837 95.6 188.254 93.1967 187.274 90.91C186.34 88.6233 184.987 86.78 183.214 85.38C181.487 83.9333 179.457 83.21 177.124 83.21C174.837 83.21 172.97 83.8633 171.524 85.17C170.124 86.43 169.424 88.1567 169.424 90.35C169.424 91.9833 169.774 93.4067 170.474 94.62C171.174 95.8333 172.154 96.9533 173.414 97.98C174.674 98.96 176.61 100.313 179.224 102.04L181.464 103.58C184.217 105.4 186.387 106.987 187.974 108.34C189.56 109.693 190.844 111.28 191.824 113.1C192.85 114.873 193.364 116.95 193.364 119.33C193.364 122.317 192.594 124.837 191.054 126.89C189.514 128.897 187.414 130.413 184.754 131.44C182.14 132.467 179.224 132.98 176.004 132.98C173.39 132.98 171.22 132.747 169.494 132.28C167.767 131.813 166.18 131.183 164.734 130.39C163.707 129.737 162.914 129.41 162.354 129.41C161.934 129.41 161.607 129.667 161.374 130.18C161.14 130.647 160.954 131.417 160.814 132.49H159.204C159.39 129.55 159.484 123.25 159.484 113.59H161.094C161.42 118.817 162.587 123.063 164.594 126.33C166.6 129.55 169.68 131.16 173.834 131.16C176.354 131.16 178.43 130.483 180.064 129.13C181.697 127.777 182.514 125.84 182.514 123.32C182.514 120.707 181.674 118.467 179.994 116.6C178.314 114.733 175.654 112.633 172.014 110.3C169.214 108.48 166.974 106.893 165.294 105.54C163.614 104.187 162.237 102.6 161.164 100.78C160.09 98.9133 159.554 96.7667 159.554 94.34C159.554 91.54 160.254 89.1833 161.654 87.27C163.1 85.31 165.014 83.8633 167.394 82.93C169.774 81.9967 172.387 81.53 175.234 81.53ZM233.472 121.36C233.472 125.653 233.636 129.2 233.962 132C230.789 131.86 225.446 131.79 217.932 131.79C207.759 131.79 200.152 131.86 195.112 132V130.6C196.652 130.507 197.772 130.32 198.472 130.04C199.219 129.76 199.709 129.223 199.942 128.43C200.222 127.637 200.362 126.353 200.362 124.58V89.86C200.362 88.0867 200.222 86.8033 199.942 86.01C199.709 85.2167 199.219 84.68 198.472 84.4C197.772 84.12 196.652 83.9333 195.112 83.84V82.44C200.152 82.58 207.759 82.65 217.932 82.65C224.792 82.65 229.669 82.58 232.562 82.44C232.236 86.3133 232.072 89.7667 232.072 92.8C232.072 94.8533 232.142 96.44 232.282 97.56H230.672C229.972 92.5667 228.712 89.0667 226.892 87.06C225.072 85.0533 222.506 84.05 219.192 84.05H216.322C214.876 84.05 213.826 84.1667 213.172 84.4C212.519 84.6333 212.076 85.1 211.842 85.8C211.609 86.4533 211.492 87.5267 211.492 89.02V106.38H213.732C216.206 106.38 218.072 105.47 219.332 103.65C220.639 101.83 221.549 99.66 222.062 97.14H223.672C223.532 99.1 223.462 101.293 223.462 103.72V107.08C223.462 109.46 223.602 112.773 223.882 117.02H222.272C221.292 110.86 218.446 107.78 213.732 107.78H211.492V125.42C211.492 126.913 211.609 128.01 211.842 128.71C212.076 129.363 212.519 129.807 213.172 130.04C213.826 130.273 214.876 130.39 216.322 130.39H219.752C223.066 130.39 225.726 129.27 227.732 127.03C229.786 124.743 231.232 120.893 232.072 115.48H233.682C233.542 117.02 233.472 118.98 233.472 121.36ZM220.942 66.62C221.596 66.2467 222.319 66.06 223.112 66.06C223.859 66.06 224.536 66.2467 225.142 66.62C225.796 66.9933 226.286 67.5067 226.612 68.16C226.892 68.6267 227.032 69.1633 227.032 69.77C227.032 70.47 226.822 71.1467 226.402 71.8C225.982 72.4067 225.399 72.92 224.652 73.34C223.952 73.7133 223.136 74.0633 222.202 74.39C221.269 74.67 220.266 74.9267 219.192 75.16C218.866 75.2533 217.816 75.5333 216.042 76C214.316 76.4667 212.332 77.12 210.092 77.96L209.602 77.12C211.889 75.2067 214.199 72.99 216.532 70.47C217.559 69.3967 218.376 68.6033 218.982 68.09C219.589 67.53 220.242 67.04 220.942 66.62ZM296.276 128.92C295.016 130.367 293.662 131.393 292.216 132C290.769 132.653 289.019 132.98 286.966 132.98C284.259 132.98 282.112 132.42 280.526 131.3C278.986 130.133 277.982 128.173 277.516 125.42L276.256 118.42C275.649 115.013 274.902 112.517 274.016 110.93C273.176 109.297 271.752 108.48 269.746 108.48H265.196V124.58C265.196 126.353 265.312 127.637 265.546 128.43C265.826 129.223 266.316 129.76 267.016 130.04C267.716 130.32 268.859 130.507 270.446 130.6V132C267.926 131.86 264.402 131.79 259.876 131.79C254.882 131.79 251.196 131.86 248.816 132V130.6C250.356 130.507 251.476 130.32 252.176 130.04C252.922 129.76 253.412 129.223 253.646 128.43C253.926 127.637 254.066 126.353 254.066 124.58V89.86C254.066 88.0867 253.926 86.8033 253.646 86.01C253.412 85.2167 252.922 84.68 252.176 84.4C251.476 84.12 250.356 83.9333 248.816 83.84V82.44C251.196 82.58 254.742 82.65 259.456 82.65L267.226 82.58C268.159 82.5333 269.232 82.51 270.446 82.51C276.886 82.51 281.716 83.56 284.936 85.66C288.202 87.76 289.836 90.77 289.836 94.69C289.836 98.0033 288.622 100.92 286.196 103.44C283.769 105.96 279.756 107.547 274.156 108.2C278.356 108.573 281.482 109.483 283.536 110.93C285.589 112.377 286.919 114.547 287.526 117.44L289.136 124.65C289.509 126.517 289.929 127.823 290.396 128.57C290.909 129.317 291.609 129.69 292.496 129.69C293.056 129.643 293.522 129.503 293.896 129.27C294.316 129.037 294.782 128.64 295.296 128.08L296.276 128.92ZM269.536 83.84C268.276 83.84 267.342 84.0033 266.736 84.33C266.176 84.6567 265.779 85.24 265.546 86.08C265.312 86.92 265.196 88.18 265.196 89.86V107.08H268.206C272.032 107.08 274.646 106.077 276.046 104.07C277.492 102.017 278.216 99.1467 278.216 95.46C278.216 91.6333 277.539 88.74 276.186 86.78C274.832 84.82 272.616 83.84 269.536 83.84ZM319.192 81.46C324.139 81.46 328.456 82.4633 332.142 84.47C335.876 86.4767 338.769 89.3933 340.822 93.22C342.876 97 343.902 101.527 343.902 106.8C343.902 111.933 342.852 116.483 340.752 120.45C338.652 124.417 335.712 127.497 331.932 129.69C328.199 131.883 323.929 132.98 319.122 132.98C314.176 132.98 309.836 131.977 306.102 129.97C302.416 127.963 299.546 125.07 297.492 121.29C295.439 117.463 294.412 112.913 294.412 107.64C294.412 102.507 295.462 97.9567 297.562 93.99C299.662 90.0233 302.579 86.9433 306.312 84.75C310.092 82.5567 314.386 81.46 319.192 81.46ZM318.912 82.72C316.346 82.72 314.082 83.77 312.122 85.87C310.162 87.9233 308.646 90.8167 307.572 94.55C306.546 98.2833 306.032 102.553 306.032 107.36C306.032 112.213 306.616 116.483 307.782 120.17C308.996 123.857 310.606 126.703 312.612 128.71C314.666 130.717 316.929 131.72 319.402 131.72C321.969 131.72 324.232 130.693 326.192 128.64C328.152 126.54 329.646 123.623 330.672 119.89C331.746 116.157 332.282 111.887 332.282 107.08C332.282 102.227 331.676 97.9567 330.462 94.27C329.296 90.5833 327.686 87.7367 325.632 85.73C323.626 83.7233 321.386 82.72 318.912 82.72ZM366.873 82.44C375.973 82.44 382.787 84.5167 387.313 88.67C391.84 92.7767 394.103 98.7733 394.103 106.66C394.103 111.747 392.983 116.203 390.743 120.03C388.55 123.81 385.353 126.75 381.153 128.85C377 130.95 372.03 132 366.243 132L361.903 131.93C359.197 131.837 357.237 131.79 356.023 131.79C351.217 131.79 347.623 131.86 345.243 132V130.6C346.783 130.507 347.903 130.32 348.603 130.04C349.35 129.76 349.84 129.223 350.073 128.43C350.353 127.637 350.493 126.353 350.493 124.58V89.86C350.493 88.0867 350.353 86.8033 350.073 86.01C349.84 85.2167 349.35 84.68 348.603 84.4C347.903 84.12 346.783 83.9333 345.243 83.84V82.44C347.203 82.58 350.027 82.65 353.713 82.65H355.883L358.683 82.58C362.51 82.4867 365.24 82.44 366.873 82.44ZM366.803 83.7C365.357 83.7 364.26 83.8633 363.513 84.19C362.813 84.5167 362.323 85.1 362.043 85.94C361.763 86.78 361.623 88.04 361.623 89.72V124.72C361.623 126.4 361.763 127.66 362.043 128.5C362.323 129.34 362.813 129.923 363.513 130.25C364.26 130.577 365.38 130.74 366.873 130.74C372.52 130.74 376.533 128.78 378.913 124.86C381.293 120.893 382.483 114.92 382.483 106.94C382.483 98.96 381.247 93.1033 378.773 89.37C376.347 85.59 372.357 83.7 366.803 83.7ZM442.934 128.92C441.674 130.367 440.32 131.393 438.874 132C437.427 132.653 435.677 132.98 433.624 132.98C430.917 132.98 428.77 132.42 427.184 131.3C425.644 130.133 424.64 128.173 424.174 125.42L422.914 118.42C422.307 115.013 421.56 112.517 420.674 110.93C419.834 109.297 418.41 108.48 416.404 108.48H411.854V124.58C411.854 126.353 411.97 127.637 412.204 128.43C412.484 129.223 412.974 129.76 413.674 130.04C414.374 130.32 415.517 130.507 417.104 130.6V132C414.584 131.86 411.06 131.79 406.534 131.79C401.54 131.79 397.854 131.86 395.474 132V130.6C397.014 130.507 398.134 130.32 398.834 130.04C399.58 129.76 400.07 129.223 400.304 128.43C400.584 127.637 400.724 126.353 400.724 124.58V89.86C400.724 88.0867 400.584 86.8033 400.304 86.01C400.07 85.2167 399.58 84.68 398.834 84.4C398.134 84.12 397.014 83.9333 395.474 83.84V82.44C397.854 82.58 401.4 82.65 406.114 82.65L413.884 82.58C414.817 82.5333 415.89 82.51 417.104 82.51C423.544 82.51 428.374 83.56 431.594 85.66C434.86 87.76 436.494 90.77 436.494 94.69C436.494 98.0033 435.28 100.92 432.854 103.44C430.427 105.96 426.414 107.547 420.814 108.2C425.014 108.573 428.14 109.483 430.194 110.93C432.247 112.377 433.577 114.547 434.184 117.44L435.794 124.65C436.167 126.517 436.587 127.823 437.054 128.57C437.567 129.317 438.267 129.69 439.154 129.69C439.714 129.643 440.18 129.503 440.554 129.27C440.974 129.037 441.44 128.64 441.954 128.08L442.934 128.92ZM416.194 83.84C414.934 83.84 414 84.0033 413.394 84.33C412.834 84.6567 412.437 85.24 412.204 86.08C411.97 86.92 411.854 88.18 411.854 89.86V107.08H414.864C418.69 107.08 421.304 106.077 422.704 104.07C424.15 102.017 424.874 99.1467 424.874 95.46C424.874 91.6333 424.197 88.74 422.844 86.78C421.49 84.82 419.274 83.84 416.194 83.84ZM462.071 83.84C460.484 83.9333 459.341 84.12 458.641 84.4C457.941 84.68 457.451 85.2167 457.171 86.01C456.937 86.8033 456.821 88.0867 456.821 89.86V124.58C456.821 126.353 456.937 127.637 457.171 128.43C457.451 129.223 457.941 129.76 458.641 130.04C459.341 130.32 460.484 130.507 462.071 130.6V132C459.551 131.86 456.027 131.79 451.501 131.79C446.507 131.79 442.821 131.86 440.441 132V130.6C441.981 130.507 443.101 130.32 443.801 130.04C444.547 129.76 445.037 129.223 445.271 128.43C445.551 127.637 445.691 126.353 445.691 124.58V89.86C445.691 88.0867 445.551 86.8033 445.271 86.01C445.037 85.2167 444.547 84.68 443.801 84.4C443.101 84.12 441.981 83.9333 440.441 83.84V82.44C442.821 82.58 446.507 82.65 451.501 82.65C456.027 82.65 459.551 82.58 462.071 82.44V83.84ZM457.731 66.62C458.384 66.2467 459.107 66.06 459.901 66.06C460.647 66.06 461.324 66.2467 461.931 66.62C462.584 66.9933 463.074 67.5067 463.401 68.16C463.681 68.6267 463.821 69.1633 463.821 69.77C463.821 70.47 463.611 71.1467 463.191 71.8C462.771 72.4067 462.187 72.92 461.441 73.34C460.741 73.7133 459.924 74.0633 458.991 74.39C458.057 74.67 457.054 74.9267 455.981 75.16C455.654 75.2533 454.604 75.5333 452.831 76C451.104 76.4667 449.121 77.12 446.881 77.96L446.391 77.12C448.677 75.2067 450.987 72.99 453.321 70.47C454.347 69.3967 455.164 68.6033 455.771 68.09C456.377 67.53 457.031 67.04 457.731 66.62ZM488.682 81.46C491.575 81.46 494.002 81.8567 495.962 82.65C497.969 83.4433 499.929 84.5633 501.842 86.01C502.402 86.43 502.869 86.64 503.242 86.64C503.709 86.64 504.082 86.3133 504.362 85.66C504.642 84.96 504.852 83.8867 504.992 82.44H506.602C506.415 85.6133 506.322 91.26 506.322 99.38H504.712C504.339 96.2067 503.779 93.64 503.032 91.68C502.332 89.72 501.142 88.0633 499.462 86.71C498.342 85.6367 496.965 84.7967 495.332 84.19C493.699 83.5833 492.019 83.28 490.292 83.28C487.025 83.28 484.295 84.4 482.102 86.64C479.955 88.8333 478.369 91.75 477.342 95.39C476.315 99.03 475.802 103.02 475.802 107.36C475.802 123.507 480.282 131.58 489.242 131.58C491.295 131.58 492.952 131.113 494.212 130.18C494.819 129.76 495.239 129.27 495.472 128.71C495.752 128.15 495.892 127.427 495.892 126.54V119.68C495.892 117.487 495.705 115.9 495.332 114.92C494.959 113.893 494.282 113.193 493.302 112.82C492.369 112.447 490.875 112.213 488.822 112.12V110.72C491.715 110.86 495.705 110.93 500.792 110.93C504.945 110.93 508.072 110.86 510.172 110.72V112.12C509.239 112.213 508.562 112.4 508.142 112.68C507.722 112.96 507.419 113.497 507.232 114.29C507.092 115.083 507.022 116.367 507.022 118.14V132H505.622C505.575 131.02 505.365 130.11 504.992 129.27C504.665 128.43 504.199 128.01 503.592 128.01C502.799 128.01 501.539 128.5 499.812 129.48C495.752 131.813 491.925 132.98 488.332 132.98C480.259 132.98 474.075 130.787 469.782 126.4C465.489 121.967 463.342 115.76 463.342 107.78C463.342 102.553 464.415 97.9567 466.562 93.99C468.755 90.0233 471.765 86.9433 475.592 84.75C479.419 82.5567 483.782 81.46 488.682 81.46ZM555.277 83.84C553.737 84.0733 552.593 84.47 551.847 85.03C551.147 85.59 550.657 86.4767 550.377 87.69C550.143 88.9033 550.027 90.7 550.027 93.08V111.63C550.027 118.303 549.07 123.25 547.157 126.47C545.897 128.523 544.077 130.133 541.697 131.3C539.317 132.42 536.4 132.98 532.947 132.98C527.533 132.98 523.333 131.813 520.347 129.48C518.2 127.753 516.753 125.583 516.007 122.97C515.26 120.31 514.887 116.6 514.887 111.84V89.86C514.887 88.0867 514.747 86.8033 514.467 86.01C514.233 85.2167 513.743 84.68 512.997 84.4C512.297 84.12 511.177 83.9333 509.637 83.84V82.44C512.017 82.58 515.657 82.65 520.557 82.65C525.41 82.65 529.12 82.58 531.687 82.44V83.84C530.007 83.9333 528.77 84.12 527.977 84.4C527.23 84.68 526.717 85.2167 526.437 86.01C526.157 86.8033 526.017 88.0867 526.017 89.86V116.25C526.017 121.15 526.717 124.767 528.117 127.1C529.563 129.387 532.083 130.53 535.677 130.53C540.343 130.53 543.633 128.967 545.547 125.84C547.46 122.667 548.417 118.187 548.417 112.4V93.92C548.417 91.2133 548.253 89.2067 547.927 87.9C547.6 86.5933 546.97 85.66 546.037 85.1C545.103 84.4933 543.633 84.0733 541.627 83.84V82.44C543.4 82.58 545.92 82.65 549.187 82.65C551.8 82.65 553.83 82.58 555.277 82.44V83.84ZM593.808 121.36C593.808 125.653 593.972 129.2 594.298 132C591.125 131.86 585.782 131.79 578.268 131.79C568.095 131.79 560.488 131.86 555.448 132V130.6C556.988 130.507 558.108 130.32 558.808 130.04C559.555 129.76 560.045 129.223 560.278 128.43C560.558 127.637 560.698 126.353 560.698 124.58V89.86C560.698 88.0867 560.558 86.8033 560.278 86.01C560.045 85.2167 559.555 84.68 558.808 84.4C558.108 84.12 556.988 83.9333 555.448 83.84V82.44C560.488 82.58 568.095 82.65 578.268 82.65C585.128 82.65 590.005 82.58 592.898 82.44C592.572 86.3133 592.408 89.7667 592.408 92.8C592.408 94.8533 592.478 96.44 592.618 97.56H591.008C590.308 92.5667 589.048 89.0667 587.228 87.06C585.408 85.0533 582.842 84.05 579.528 84.05H576.658C575.212 84.05 574.162 84.1667 573.508 84.4C572.855 84.6333 572.412 85.1 572.178 85.8C571.945 86.4533 571.828 87.5267 571.828 89.02V106.38H574.068C576.542 106.38 578.408 105.47 579.668 103.65C580.975 101.83 581.885 99.66 582.398 97.14H584.008C583.868 99.1 583.798 101.293 583.798 103.72V107.08C583.798 109.46 583.938 112.773 584.218 117.02H582.608C581.628 110.86 578.782 107.78 574.068 107.78H571.828V125.42C571.828 126.913 571.945 128.01 572.178 128.71C572.412 129.363 572.855 129.807 573.508 130.04C574.162 130.273 575.212 130.39 576.658 130.39H580.088C583.402 130.39 586.062 129.27 588.068 127.03C590.122 124.743 591.568 120.893 592.408 115.48H594.018C593.878 117.02 593.808 118.98 593.808 121.36ZM632.924 83.84L608.984 130.39H616.264C619.904 130.39 623.124 129.177 625.924 126.75C628.77 124.323 630.474 120.473 631.034 115.2H632.644C632.504 116.787 632.434 118.84 632.434 121.36C632.434 125.653 632.597 129.2 632.924 132C629.47 131.86 623.66 131.79 615.494 131.79C606.814 131.79 600.537 131.86 596.664 132V130.6L620.674 84.05H613.114C609.287 84.05 606.137 85.1467 603.664 87.34C601.237 89.5333 599.72 93.22 599.114 98.4H597.504C597.644 97.0467 597.714 95.2733 597.714 93.08C597.714 89.9533 597.55 86.4067 597.224 82.44C600.304 82.58 605.554 82.65 612.974 82.65C622.167 82.65 628.817 82.58 632.924 82.44V83.84ZM673.171 81.46C675.971 81.46 678.351 81.8567 680.311 82.65C682.271 83.4433 684.184 84.5633 686.051 86.01C686.564 86.43 687.008 86.64 687.381 86.64C688.314 86.64 688.921 85.24 689.201 82.44H690.811C690.624 85.6133 690.531 91.26 690.531 99.38H688.921C688.501 95.9267 687.941 93.29 687.241 91.47C686.541 89.65 685.351 88.0633 683.671 86.71C682.504 85.59 681.151 84.75 679.611 84.19C678.071 83.5833 676.461 83.28 674.781 83.28C670.068 83.28 666.568 85.59 664.281 90.21C661.994 94.7833 660.851 100.5 660.851 107.36C660.851 114.173 662.041 119.867 664.421 124.44C666.801 129.013 670.348 131.3 675.061 131.3C676.648 131.3 678.211 131.02 679.751 130.46C681.338 129.853 682.668 128.99 683.741 127.87C685.468 126.563 686.658 124.93 687.311 122.97C688.011 121.01 688.548 118.14 688.921 114.36H690.531C690.531 122.807 690.624 128.687 690.811 132H689.201C689.061 130.507 688.851 129.457 688.571 128.85C688.338 128.197 687.988 127.87 687.521 127.87C687.148 127.87 686.658 128.057 686.051 128.43C683.951 129.923 681.944 131.067 680.031 131.86C678.118 132.607 675.808 132.98 673.101 132.98C668.154 132.98 663.814 131.977 660.081 129.97C656.394 127.963 653.524 125.07 651.471 121.29C649.418 117.463 648.391 112.913 648.391 107.64C648.391 102.507 649.441 97.9567 651.541 93.99C653.641 90.0233 656.558 86.9433 660.291 84.75C664.071 82.5567 668.364 81.46 673.171 81.46ZM734.006 126.12C734.613 127.66 735.313 128.78 736.106 129.48C736.9 130.18 737.67 130.553 738.416 130.6V132C735.616 131.86 732.07 131.79 727.776 131.79C723.016 131.79 719.47 131.86 717.136 132V130.6C718.91 130.507 720.17 130.297 720.916 129.97C721.663 129.597 722.036 128.967 722.036 128.08C722.036 127.24 721.756 126.12 721.196 124.72L716.996 113.24H701.736L699.916 118.07C698.61 121.43 697.956 124.02 697.956 125.84C697.956 127.567 698.47 128.78 699.496 129.48C700.57 130.133 702.133 130.507 704.186 130.6V132C701.013 131.86 698.12 131.79 695.506 131.79C693.36 131.79 691.586 131.86 690.186 132V130.6C692.473 130.18 694.48 127.73 696.206 123.25L712.166 82.3C712.68 82.3467 713.496 82.37 714.616 82.37C715.736 82.37 716.53 82.3467 716.996 82.3L734.006 126.12ZM716.506 111.84L709.576 92.94L702.296 111.84H716.506ZM720.776 66.62C721.43 66.2467 722.153 66.06 722.946 66.06C723.693 66.06 724.37 66.2467 724.976 66.62C725.63 66.9933 726.12 67.5067 726.446 68.16C726.726 68.6267 726.866 69.1633 726.866 69.77C726.866 70.47 726.656 71.1467 726.236 71.8C725.816 72.4067 725.233 72.92 724.486 73.34C723.786 73.7133 722.97 74.0633 722.036 74.39C721.103 74.67 720.1 74.9267 719.026 75.16C718.7 75.2533 717.65 75.5333 715.876 76C714.15 76.4667 712.166 77.12 709.926 77.96L709.436 77.12C711.723 75.2067 714.033 72.99 716.366 70.47C717.393 69.3967 718.21 68.6033 718.816 68.09C719.423 67.53 720.076 67.04 720.776 66.62ZM761.532 81.46C764.332 81.46 766.712 81.8567 768.672 82.65C770.632 83.4433 772.546 84.5633 774.412 86.01C774.926 86.43 775.369 86.64 775.742 86.64C776.676 86.64 777.282 85.24 777.562 82.44H779.172C778.986 85.6133 778.892 91.26 778.892 99.38H777.282C776.862 95.9267 776.302 93.29 775.602 91.47C774.902 89.65 773.712 88.0633 772.032 86.71C770.866 85.59 769.512 84.75 767.972 84.19C766.432 83.5833 764.822 83.28 763.142 83.28C758.429 83.28 754.929 85.59 752.642 90.21C750.356 94.7833 749.212 100.5 749.212 107.36C749.212 114.173 750.402 119.867 752.782 124.44C755.162 129.013 758.709 131.3 763.422 131.3C765.009 131.3 766.572 131.02 768.112 130.46C769.699 129.853 771.029 128.99 772.102 127.87C773.829 126.563 775.019 124.93 775.672 122.97C776.372 121.01 776.909 118.14 777.282 114.36H778.892C778.892 122.807 778.986 128.687 779.172 132H777.562C777.422 130.507 777.212 129.457 776.932 128.85C776.699 128.197 776.349 127.87 775.882 127.87C775.509 127.87 775.019 128.057 774.412 128.43C772.312 129.923 770.306 131.067 768.392 131.86C766.479 132.607 764.169 132.98 761.462 132.98C756.516 132.98 752.176 131.977 748.442 129.97C744.756 127.963 741.886 125.07 739.832 121.29C737.779 117.463 736.752 112.913 736.752 107.64C736.752 102.507 737.802 97.9567 739.902 93.99C742.002 90.0233 744.919 86.9433 748.652 84.75C752.432 82.5567 756.726 81.46 761.532 81.46ZM820.338 121.36C820.338 125.653 820.501 129.2 820.828 132C817.654 131.86 812.311 131.79 804.798 131.79C794.624 131.79 787.018 131.86 781.978 132V130.6C783.518 130.507 784.638 130.32 785.338 130.04C786.084 129.76 786.574 129.223 786.808 128.43C787.088 127.637 787.228 126.353 787.228 124.58V89.86C787.228 88.0867 787.088 86.8033 786.808 86.01C786.574 85.2167 786.084 84.68 785.338 84.4C784.638 84.12 783.518 83.9333 781.978 83.84V82.44C787.018 82.58 794.624 82.65 804.798 82.65C811.658 82.65 816.534 82.58 819.428 82.44C819.101 86.3133 818.938 89.7667 818.938 92.8C818.938 94.8533 819.008 96.44 819.148 97.56H817.538C816.838 92.5667 815.578 89.0667 813.758 87.06C811.938 85.0533 809.371 84.05 806.058 84.05H803.188C801.741 84.05 800.691 84.1667 800.038 84.4C799.384 84.6333 798.941 85.1 798.708 85.8C798.474 86.4533 798.358 87.5267 798.358 89.02V106.38H800.598C803.071 106.38 804.938 105.47 806.198 103.65C807.504 101.83 808.414 99.66 808.928 97.14H810.538C810.398 99.1 810.328 101.293 810.328 103.72V107.08C810.328 109.46 810.468 112.773 810.748 117.02H809.138C808.158 110.86 805.311 107.78 800.598 107.78H798.358V125.42C798.358 126.913 798.474 128.01 798.708 128.71C798.941 129.363 799.384 129.807 800.038 130.04C800.691 130.273 801.741 130.39 803.188 130.39H806.618C809.931 130.39 812.591 129.27 814.598 127.03C816.651 124.743 818.098 120.893 818.938 115.48H820.548C820.408 117.02 820.338 118.98 820.338 121.36ZM870.303 128.92C869.043 130.367 867.69 131.393 866.243 132C864.796 132.653 863.046 132.98 860.993 132.98C858.286 132.98 856.14 132.42 854.553 131.3C853.013 130.133 852.01 128.173 851.543 125.42L850.283 118.42C849.676 115.013 848.93 112.517 848.043 110.93C847.203 109.297 845.78 108.48 843.773 108.48H839.223V124.58C839.223 126.353 839.34 127.637 839.573 128.43C839.853 129.223 840.343 129.76 841.043 130.04C841.743 130.32 842.886 130.507 844.473 130.6V132C841.953 131.86 838.43 131.79 833.903 131.79C828.91 131.79 825.223 131.86 822.843 132V130.6C824.383 130.507 825.503 130.32 826.203 130.04C826.95 129.76 827.44 129.223 827.673 128.43C827.953 127.637 828.093 126.353 828.093 124.58V89.86C828.093 88.0867 827.953 86.8033 827.673 86.01C827.44 85.2167 826.95 84.68 826.203 84.4C825.503 84.12 824.383 83.9333 822.843 83.84V82.44C825.223 82.58 828.77 82.65 833.483 82.65L841.253 82.58C842.186 82.5333 843.26 82.51 844.473 82.51C850.913 82.51 855.743 83.56 858.963 85.66C862.23 87.76 863.863 90.77 863.863 94.69C863.863 98.0033 862.65 100.92 860.223 103.44C857.796 105.96 853.783 107.547 848.183 108.2C852.383 108.573 855.51 109.483 857.563 110.93C859.616 112.377 860.946 114.547 861.553 117.44L863.163 124.65C863.536 126.517 863.956 127.823 864.423 128.57C864.936 129.317 865.636 129.69 866.523 129.69C867.083 129.643 867.55 129.503 867.923 129.27C868.343 129.037 868.81 128.64 869.323 128.08L870.303 128.92ZM843.563 83.84C842.303 83.84 841.37 84.0033 840.763 84.33C840.203 84.6567 839.806 85.24 839.573 86.08C839.34 86.92 839.223 88.18 839.223 89.86V107.08H842.233C846.06 107.08 848.673 106.077 850.073 104.07C851.52 102.017 852.243 99.1467 852.243 95.46C852.243 91.6333 851.566 88.74 850.213 86.78C848.86 84.82 846.643 83.84 843.563 83.84ZM906.17 121.36C906.17 125.653 906.333 129.2 906.66 132C903.486 131.86 898.143 131.79 890.63 131.79C880.456 131.79 872.85 131.86 867.81 132V130.6C869.35 130.507 870.47 130.32 871.17 130.04C871.916 129.76 872.406 129.223 872.64 128.43C872.92 127.637 873.06 126.353 873.06 124.58V89.86C873.06 88.0867 872.92 86.8033 872.64 86.01C872.406 85.2167 871.916 84.68 871.17 84.4C870.47 84.12 869.35 83.9333 867.81 83.84V82.44C872.85 82.58 880.456 82.65 890.63 82.65C897.49 82.65 902.366 82.58 905.26 82.44C904.933 86.3133 904.77 89.7667 904.77 92.8C904.77 94.8533 904.84 96.44 904.98 97.56H903.37C902.67 92.5667 901.41 89.0667 899.59 87.06C897.77 85.0533 895.203 84.05 891.89 84.05H889.02C887.573 84.05 886.523 84.1667 885.87 84.4C885.216 84.6333 884.773 85.1 884.54 85.8C884.306 86.4533 884.19 87.5267 884.19 89.02V106.38H886.43C888.903 106.38 890.77 105.47 892.03 103.65C893.336 101.83 894.246 99.66 894.76 97.14H896.37C896.23 99.1 896.16 101.293 896.16 103.72V107.08C896.16 109.46 896.3 112.773 896.58 117.02H894.97C893.99 110.86 891.143 107.78 886.43 107.78H884.19V125.42C884.19 126.913 884.306 128.01 884.54 128.71C884.773 129.363 885.216 129.807 885.87 130.04C886.523 130.273 887.573 130.39 889.02 130.39H892.45C895.763 130.39 898.423 129.27 900.43 127.03C902.483 124.743 903.93 120.893 904.77 115.48H906.38C906.24 117.02 906.17 118.98 906.17 121.36ZM926.175 81.53C928.602 81.53 930.538 81.7633 931.985 82.23C933.432 82.6967 934.902 83.3733 936.395 84.26C936.908 84.54 937.352 84.7733 937.725 84.96C938.145 85.1467 938.495 85.24 938.775 85.24C939.195 85.24 939.522 85.0067 939.755 84.54C939.988 84.0267 940.175 83.2333 940.315 82.16H941.925C941.692 85.2867 941.575 90.6067 941.575 98.12H939.965C939.778 95.6 939.195 93.1967 938.215 90.91C937.282 88.6233 935.928 86.78 934.155 85.38C932.428 83.9333 930.398 83.21 928.065 83.21C925.778 83.21 923.912 83.8633 922.465 85.17C921.065 86.43 920.365 88.1567 920.365 90.35C920.365 91.9833 920.715 93.4067 921.415 94.62C922.115 95.8333 923.095 96.9533 924.355 97.98C925.615 98.96 927.552 100.313 930.165 102.04L932.405 103.58C935.158 105.4 937.328 106.987 938.915 108.34C940.502 109.693 941.785 111.28 942.765 113.1C943.792 114.873 944.305 116.95 944.305 119.33C944.305 122.317 943.535 124.837 941.995 126.89C940.455 128.897 938.355 130.413 935.695 131.44C933.082 132.467 930.165 132.98 926.945 132.98C924.332 132.98 922.162 132.747 920.435 132.28C918.708 131.813 917.122 131.183 915.675 130.39C914.648 129.737 913.855 129.41 913.295 129.41C912.875 129.41 912.548 129.667 912.315 130.18C912.082 130.647 911.895 131.417 911.755 132.49H910.145C910.332 129.55 910.425 123.25 910.425 113.59H912.035C912.362 118.817 913.528 123.063 915.535 126.33C917.542 129.55 920.622 131.16 924.775 131.16C927.295 131.16 929.372 130.483 931.005 129.13C932.638 127.777 933.455 125.84 933.455 123.32C933.455 120.707 932.615 118.467 930.935 116.6C929.255 114.733 926.595 112.633 922.955 110.3C920.155 108.48 917.915 106.893 916.235 105.54C914.555 104.187 913.178 102.6 912.105 100.78C911.032 98.9133 910.495 96.7667 910.495 94.34C910.495 91.54 911.195 89.1833 912.595 87.27C914.042 85.31 915.955 83.8633 918.335 82.93C920.715 81.9967 923.328 81.53 926.175 81.53Z" fill="white"/>
<defs>
<clipPath id="clip0_444_31">
<rect width="1106" height="186" fill="white" transform="translate(0 19.3022) rotate(-1)"/>
</clipPath>
</defs>
</svg>
