<svg width="631" height="631" viewBox="0 0 631 631" fill="none" xmlns="http://www.w3.org/2000/svg">
<mask id="path-1-outside-1_29_124" maskUnits="userSpaceOnUse" x="0.74585" y="0.746094" width="630" height="630" fill="black">
<rect fill="white" x="0.74585" y="0.746094" width="630" height="630"/>
<path d="M625.746 315.746C625.746 381.212 605.021 444.997 566.541 497.959C528.061 550.922 473.803 590.344 411.541 610.574C349.28 630.804 282.212 630.804 219.951 610.574C157.689 590.344 103.43 550.922 64.9506 497.959C26.4709 444.997 5.74584 381.212 5.74585 315.746C5.74586 250.28 26.4709 186.495 64.9506 133.533C103.43 80.5699 157.689 41.1485 219.951 20.9186C282.212 0.688596 349.28 0.688605 411.541 20.9186L315.746 315.746L625.746 315.746Z"/>
</mask>
<path d="M625.746 315.746C625.746 381.212 605.021 444.997 566.541 497.959C528.061 550.922 473.803 590.344 411.541 610.574C349.28 630.804 282.212 630.804 219.951 610.574C157.689 590.344 103.43 550.922 64.9506 497.959C26.4709 444.997 5.74584 381.212 5.74585 315.746C5.74586 250.28 26.4709 186.495 64.9506 133.533C103.43 80.5699 157.689 41.1485 219.951 20.9186C282.212 0.688596 349.28 0.688605 411.541 20.9186L315.746 315.746L625.746 315.746Z" stroke="#FAFAFA" stroke-width="10" mask="url(#path-1-outside-1_29_124)"/>
</svg>
